<svg xmlns="http://www.w3.org/2000/svg" viewBox="0 0 750 500"><g id="freepik--background-complete--inject-17"><rect x="56.95" y="376.03" width="55.34" height="14.64" style="fill:#ebebeb"></rect><path d="M88.89,406.09s0-.1,0-.27,0-.44,0-.75c0-.69,0-1.65,0-2.88,0-2.53,0-6.16-.09-10.74l.17.17-55.33.11c.12-.12-.29.28.27-.28h0v14.63l-.28-.28,39.44.13,11.64.08,3.15,0,.82,0,.29,0a1,1,0,0,1-.25,0l-.79,0-3.09,0-11.58.08-39.63.13h-.27v-.28c0-2.35,0-4.76,0-7.2v-7.43h0c.56-.56.16-.16.29-.28l55.33.11h.17v.17c0,4.62-.07,8.29-.09,10.84,0,1.22,0,2.17,0,2.85,0,.29,0,.53,0,.72S88.9,406.1,88.89,406.09Z" style="fill:#e0e0e0"></path><path d="M512.43,178.2a1.33,1.33,0,0,1,0-.26c0-.2,0-.45,0-.76,0-.68,0-1.65,0-2.88,0-2.52-.05-6.16-.09-10.74l.17.17-55.34.11c.13-.12-.28.28.28-.28h0V171c0,2.44,0,4.85,0,7.2l-.27-.27,39.44.12,11.64.08,3.14,0h.83l.29,0a1.21,1.21,0,0,1-.26,0l-.79,0-3.09,0-11.57.08-39.63.13h-.28V163.57h0c.56-.56.16-.15.28-.28l55.34.11h.17v.17c0,4.63-.07,8.29-.1,10.85,0,1.21,0,2.16,0,2.84,0,.29,0,.53,0,.72S512.43,178.21,512.43,178.2Z" style="fill:#e0e0e0"></path><rect x="589.64" y="47.89" width="55.34" height="14.64" style="fill:#ebebeb"></rect><path d="M621.58,78s0-.1,0-.27l0-.75c0-.69,0-1.65,0-2.88,0-2.53-.06-6.16-.1-10.74l.17.17-55.33.11.28-.28h0v3.73c0,1.25,0,2.48,0,3.7V78l-.28-.28,39.44.13,11.64.08,3.15,0,.82,0a1.64,1.64,0,0,1,.29,0,1,1,0,0,1-.25,0l-.79,0-3.09,0-11.58.08-39.63.13H566V78c0-2.35,0-4.76,0-7.2V63.32h0l.29-.28,55.33.11h.18v.17c0,4.62-.07,8.29-.09,10.84,0,1.22,0,2.17,0,2.85,0,.29,0,.53,0,.72S621.59,78,621.58,78Z" style="fill:#e0e0e0"></path><rect x="359.2" y="410.67" width="55.34" height="14.64" style="fill:#ebebeb"></rect><path d="M391.14,440.73s0-.1,0-.27,0-.44,0-.75c0-.69,0-1.65,0-2.88,0-2.53-.06-6.16-.1-10.74l.17.17-55.33.11c.12-.13-.29.28.28-.28h0V428c0,.63,0,1.25,0,1.87v10.9l-.28-.28,39.44.13,11.64.07,3.15,0,.82,0a.94.94,0,0,1,.29,0h-.25l-.79,0-3.09,0-11.58.08L335.8,441h-.27v-.27c0-2.36,0-4.76,0-7.2v-7.42h0l.29-.29,55.33.11h.18v.17c0,4.62-.07,8.29-.09,10.84,0,1.22,0,2.16,0,2.84,0,.3,0,.54,0,.72A1.1,1.1,0,0,1,391.14,440.73Z" style="fill:#e0e0e0"></path><path d="M700.62,175.81s0-.1,0-.27l0-.75c0-.69,0-1.65,0-2.88,0-2.53-.06-6.16-.1-10.74l.17.17-55.33.11c.12-.13-.29.28.28-.28h0v7.42q0,3.66,0,7.2l-.27-.28,39.43.13,11.64.08,3.15,0,.82,0,.29,0-.25,0h-.79l-3.09,0-11.58.08-39.62.12H645v-7.48c0-1.22,0-2.46,0-3.7v-3.72h0c.57-.57.16-.16.29-.28l55.33.11h.18v.17c0,4.62-.08,8.29-.1,10.84,0,1.22,0,2.17,0,2.85l0,.72C700.64,175.74,700.63,175.81,700.62,175.81Z" style="fill:#e0e0e0"></path><path d="M708.13,161.17a1,1,0,0,1,0-.28c0-.21,0-.46,0-.78,0-.72,0-1.7-.06-2.93,0-2.57-.06-6.19-.1-10.65l.2.2-33.25.08.28-.28h0v7.53q0,3.68,0,7.1l-.27-.27,23.78.13,6.93.07,1.87,0,.67,0a4.43,4.43,0,0,1-.61,0l-1.81,0-6.87.07-24,.13h-.27v-.27c0-2.28,0-4.65,0-7.1v-7.53h0c-.07.06.53-.54.28-.28l33.25.08h.2v.2c0,4.51-.08,8.18-.11,10.77,0,1.22,0,2.18-.05,2.89A8.67,8.67,0,0,1,708.13,161.17Z" style="fill:#e0e0e0"></path><path d="M700.62,426.58s0-.09,0-.26l0-.75c0-.69,0-1.65,0-2.88,0-2.53-.06-6.17-.1-10.75l.17.18-55.33.11c.12-.13-.29.28.28-.29h0v7.41q0,3.67,0,7.2l-.27-.27,39.43.12,11.64.08,3.15,0,.82,0h.29s-.08,0-.25,0l-.79,0-3.09,0-11.58.07-39.62.13H645v-7.48c0-1.22,0-2.45,0-3.69V412h0l.29-.28,55.33.11h.18v.17c0,4.63-.08,8.3-.1,10.85,0,1.21,0,2.16,0,2.84l0,.72C700.64,426.51,700.63,426.59,700.62,426.58Z" style="fill:#e0e0e0"></path><path d="M708.13,411.94a.85.85,0,0,1,0-.27c0-.21,0-.47,0-.78,0-.72,0-1.7-.06-2.94,0-2.56-.06-6.19-.1-10.65l.2.21-33.25.08.28-.28h0v7.52c0,2.44,0,4.82,0,7.09l-.27-.26,23.78.12,6.93.08,1.87,0,.67,0a3.34,3.34,0,0,1-.61,0l-1.81,0-6.87.07-24,.13h-.27v-.27c0-2.27,0-4.65,0-7.09v-7.52h0c-.07.05.53-.54.28-.29l33.25.08h.2v.2c0,4.51-.08,8.18-.11,10.78,0,1.21,0,2.18-.05,2.89A8.35,8.35,0,0,1,708.13,411.94Z" style="fill:#e0e0e0"></path><path d="M166.19,77.71s0-.09,0-.26l0-.75c0-.69,0-1.65,0-2.88,0-2.53-.06-6.17-.1-10.75l.17.18-55.33.11c.12-.13-.29.28.28-.29h0v3.72c0,1.24,0,2.47,0,3.69v7.2l-.28-.27,39.44.12,11.64.08,3.15,0,.82,0h.29s-.08,0-.25,0l-.79,0-3.09,0-11.58.07L110.85,78h-.27v-.28q0-3.52,0-7.2V63.1h0l.29-.28,55.33.11h.18v.17c-.05,4.63-.08,8.3-.1,10.85,0,1.21,0,2.16,0,2.84l0,.72C166.21,77.64,166.2,77.72,166.19,77.71Z" style="fill:#e0e0e0"></path><path d="M403.37,49.48a.76.76,0,0,1,0-.26l0-.76c0-.68,0-1.64,0-2.88,0-2.52-.06-6.16-.1-10.74l.17.17L348,35.12l.28-.28h0v7.43c0,2.44,0,4.85,0,7.2l-.27-.27,39.43.12,11.64.08,3.15,0h.82l.3,0a1.33,1.33,0,0,1-.26,0l-.79,0-3.09,0-11.58.08L348,49.76h-.28V42.28c0-1.22,0-2.45,0-3.69V34.85h0l.29-.28,55.33.11h.18v.17c0,4.63-.08,8.29-.1,10.85,0,1.21,0,2.16,0,2.84l0,.72A1.66,1.66,0,0,1,403.37,49.48Z" style="fill:#e0e0e0"></path><path d="M106.24,224.76a.76.76,0,0,1,0-.26l0-.75c0-.69,0-1.65,0-2.89,0-2.52-.06-6.16-.1-10.74l.18.17-55.34.11.28-.28h0v7.43c0,2.44,0,4.85,0,7.2l-.27-.27,39.43.12,11.64.08,3.15,0h.82l.3,0a1.21,1.21,0,0,1-.26,0l-.79,0-3.09,0-11.57.08L50.9,225h-.28v-7.48c0-1.22,0-2.45,0-3.69v-3.74h0l.29-.28,55.34.11h.17v.17c0,4.63-.08,8.29-.1,10.85,0,1.21,0,2.16,0,2.84l0,.72A1.66,1.66,0,0,1,106.24,224.76Z" style="fill:#e0e0e0"></path><path d="M113.74,210.12a.9.9,0,0,1,0-.28c0-.21,0-.46,0-.77,0-.72,0-1.7,0-2.94,0-2.56-.07-6.19-.11-10.65l.2.21-33.25.07c-.25.26.34-.34.28-.28h0V203c0,2.45,0,4.83,0,7.1l-.27-.27,23.78.13,6.93.08,1.87,0,.67,0a5.15,5.15,0,0,1-.6,0l-1.82,0-6.86.07-24,.13h-.27v-.27c0-2.27,0-4.65,0-7.1v-7.51h0l.28-.28,33.25.08h.2v.2c0,4.51-.08,8.18-.11,10.78,0,1.21,0,2.18,0,2.89A8.35,8.35,0,0,1,113.74,210.12Z" style="fill:#e0e0e0"></path><path d="M375.47,235.9a1.33,1.33,0,0,1,0-.26l0-.75c0-.69,0-1.65,0-2.88,0-2.53-.05-6.16-.09-10.75l.17.18-55.34.11.28-.29h0v7.41q0,3.68,0,7.2l-.27-.27,39.44.12,11.64.08,3.14,0,.83,0h.29a.71.71,0,0,1-.26,0l-.79,0-3.09,0-11.57.07-39.63.13h-.28V221.29h0c.56-.56.16-.15.28-.28l55.34.11h.17v.17c0,4.63-.07,8.3-.1,10.85,0,1.21,0,2.16,0,2.84v.72C375.48,235.83,375.47,235.91,375.47,235.9Z" style="fill:#e0e0e0"></path><path d="M383,221.26a1.52,1.52,0,0,1,0-.27c0-.21,0-.47,0-.78,0-.72,0-1.7-.05-2.94,0-2.56-.07-6.19-.11-10.65l.2.21-33.25.08.28-.28h0v7.52c0,2.44,0,4.82,0,7.09l-.27-.26,23.79.12,6.93.08,1.86,0,.67,0a2.33,2.33,0,0,1-.6,0l-1.81,0-6.87.08-24,.12h-.27v-.27c0-2.27,0-4.65,0-7.09v-7.52h0l.28-.29,33.25.08h.21v.2c0,4.51-.08,8.18-.11,10.78,0,1.21,0,2.18-.05,2.89A6.14,6.14,0,0,1,383,221.26Z" style="fill:#e0e0e0"></path><rect x="93.44" y="77.89" width="34.27" height="14.64" style="fill:#ebebeb"></rect><rect x="468.24" y="338.6" width="55.34" height="14.64" style="fill:#ebebeb"></rect><path d="M500.18,368.66s0-.1,0-.27l0-.75c0-.69,0-1.65,0-2.88,0-2.53-.06-6.16-.1-10.74l.17.17-55.33.11c.12-.13-.29.28.28-.28h0v14.62l-.28-.28,39.44.13,11.64.08,3.15,0,.82,0a1.64,1.64,0,0,1,.29,0l-.25,0h-.79l-3.09,0-11.58.08-39.63.12h-.27v-.27c0-2.36,0-4.76,0-7.2V354h0c.57-.57.16-.16.29-.28l55.33.11h.18V354c0,4.62-.07,8.29-.09,10.84,0,1.22,0,2.16,0,2.84,0,.3,0,.54,0,.73A.94.94,0,0,1,500.18,368.66Z" style="fill:#e0e0e0"></path></g><g id="freepik--Table--inject-17"><path d="M704.48,465.89c0,.14-147.53.26-329.46.26s-329.5-.12-329.5-.26,147.49-.26,329.5-.26S704.48,465.74,704.48,465.89Z" style="fill:#263238"></path></g><g id="freepik--Lines--inject-17"><path d="M373.41,395.41c-.14,0-.22-10.35-.17-23.12s.2-23.13.34-23.12.23,10.35.18,23.12S373.56,395.41,373.41,395.41Z" style="fill:#263238"></path><path d="M352,374.63c-.13-.05,2-6.16,4.77-13.64s5.12-13.5,5.26-13.45-2,6.15-4.77,13.63S352.11,374.68,352,374.63Z" style="fill:#263238"></path><path d="M332.58,350.76a18.42,18.42,0,0,1,2.51-1.44c1.57-.85,3.71-2.06,6-3.48s4.35-2.82,5.81-3.84a19.29,19.29,0,0,1,2.41-1.61,13.47,13.47,0,0,1-2.19,1.9,65.31,65.31,0,0,1-5.75,4,67.23,67.23,0,0,1-6.13,3.37A14,14,0,0,1,332.58,350.76Z" style="fill:#263238"></path><path d="M401.57,365.89a18.36,18.36,0,0,1-2.22-2.46c-1.31-1.57-3.06-3.79-4.88-6.33s-3.38-4.89-4.46-6.63a18.35,18.35,0,0,1-1.63-2.89,22.92,22.92,0,0,1,1.94,2.68c1.15,1.69,2.75,4,4.57,6.54s3.52,4.78,4.75,6.4A22.67,22.67,0,0,1,401.57,365.89Z" style="fill:#263238"></path><path d="M419.09,344.38c0,.14-5.39-.76-12-2s-11.93-2.37-11.9-2.51,5.4.75,12,2S419.12,344.24,419.09,344.38Z" style="fill:#263238"></path></g><g id="freepik--speech-bubble--inject-17"><path d="M437.48,152.75l-6.66-11.33a41.89,41.89,0,1,0-7.29,13.1v0Z" style="fill:#fff"></path><path d="M437.48,152.75l-.88.13-2.65.37-10.41,1.4-.21,0,.09-.19v0l.19.12a41.74,41.74,0,0,1-16.6,12.3,40.75,40.75,0,0,1-6.19,2,47,47,0,0,1-6.89,1,41.89,41.89,0,0,1-44.69-42.53,41.29,41.29,0,0,1,5-19.29l1.27-2.26c.47-.72,1-1.41,1.47-2.12a40,40,0,0,1,3.2-4c.54-.66,1.2-1.21,1.79-1.81s1.18-1.21,1.85-1.73l2-1.57c.34-.25.65-.54,1-.76l1.05-.68a42.58,42.58,0,0,1,18.05-6.79A41.84,41.84,0,0,1,404,88a42.43,42.43,0,0,1,14.65,8.24,42,42,0,0,1,9.53,11.92l.82,1.59.4.79.33.82c.42,1.09.84,2.16,1.25,3.21a55.82,55.82,0,0,1,1.59,6.33,41.69,41.69,0,0,1-1.67,20.52v-.09c2.15,3.71,3.79,6.56,4.92,8.5l1.24,2.17c.28.48.41.72.41.72s-.17-.25-.46-.74l-1.3-2.17-5-8.37,0,0v-.05A41.64,41.64,0,0,0,432.25,121a56.63,56.63,0,0,0-1.6-6.27c-.41-1-.83-2.1-1.25-3.18l-.33-.81-.4-.78-.82-1.58A41.66,41.66,0,0,0,386,86.83a42.31,42.31,0,0,0-17.84,6.71l-1,.68c-.35.22-.65.5-1,.75l-1.95,1.56a24.26,24.26,0,0,0-1.82,1.7,24.91,24.91,0,0,0-1.77,1.79,40.49,40.49,0,0,0-3.16,4c-.48.7-1,1.39-1.44,2.1l-1.26,2.23a41.57,41.57,0,0,0-1,37.46,41.54,41.54,0,0,0,40.2,23.71,47.61,47.61,0,0,0,6.83-1,40.2,40.2,0,0,0,6.15-1.94,41.77,41.77,0,0,0,16.55-12.12l.54-.66-.35.78v0l-.11-.16,10.35-1.26,2.69-.32Z" style="fill:#263238"></path><path d="M345.26,137.66c-5-21.82,6.11-44.07,27.43-50a41.78,41.78,0,0,0-48.89,54.12l-6.66,11.34,14,1.79v0a41.53,41.53,0,0,0,23,14.22c7.06,1.62,12.87,1.67,19.38-.17C359.2,164.89,348.79,153.09,345.26,137.66Z" style="fill:#ebebeb"></path><path d="M391.39,119.35v19.12H387v-7.84h-8.69v7.84h-4.42V119.35h4.42v7.54H387v-7.54Z" style="fill:#263238"></path><path d="M395.84,121a2.31,2.31,0,0,1,0-3.39,2.72,2.72,0,0,1,1.91-.68,2.76,2.76,0,0,1,1.92.66,2.09,2.09,0,0,1,.73,1.64,2.32,2.32,0,0,1-.73,1.76,3,3,0,0,1-3.83,0Zm-.22,2.73h4.27v14.7h-4.27Z" style="fill:#263238"></path><path d="M404,138a2.35,2.35,0,0,1-.75-1.76,2.3,2.3,0,0,1,.74-1.74,2.89,2.89,0,0,1,3.77,0,2.42,2.42,0,0,1,0,3.5,2.79,2.79,0,0,1-3.74,0Zm-.67-18.62h5.08l-.84,12.48h-3.39Z" style="fill:#263238"></path></g><g id="freepik--character-2--inject-17"><path d="M630.5,284.65a8.51,8.51,0,0,0,9.54-6.06c-2.91,2-7.27.25-9-2.85s-1.46-6.92-.62-10.36,2.19-6.8,2.46-10.33c.71-9.55-6.37-17.66-10-26.51-7.37-17.78-.64-38.18-3.35-57.24-1-7.22-3.61-14.52-8.9-19.54s-13.74-7.16-20.15-3.67l-9.77,18c2.64,7.06,1,14.93-1.08,22.18s-4.55,14.69-3.45,22.14c1.28,8.64,7.29,16.6,6.07,25.25-.8,5.76-4.73,10.62-6.18,16.25-2.22,8.64,1.71,17.8,7.33,24.73a54.68,54.68,0,0,0,45.71,19.78c4.76-.35,10.46-2.26,11.31-7A16.91,16.91,0,0,1,630.5,284.65Z" style="fill:#263238"></path><path d="M604.45,151.24a13.72,13.72,0,0,0-6.6-7.93,9.76,9.76,0,0,0-10,.69l-3.81-.22c-.85,6.51,2.23,12.82,5.22,18.66a21.1,21.1,0,0,0,3.87,5.86,7.19,7.19,0,0,0,6.42,2.13,6.83,6.83,0,0,0,4.17-3.43,14.67,14.67,0,0,0,1.53-5.3A23.25,23.25,0,0,0,604.45,151.24Z" style="fill:#6F35A5"></path><path d="M592.91,181.22l-32.37,20.13,7.23,28.1c4.91-3.83,8.08-8,13.54-12.58C590.86,208.86,592.26,193.68,592.91,181.22Z" style="fill:#263238"></path><path d="M526.18,121.11c8.46-3.77,18.29-3.62,27.2-1.07s17,7.32,24.62,12.59c4.27,3,8.51,6.16,11.4,10.48,5.28,7.87,10.11,20.49,9.92,30-.16,7.66-4.62,26.52-8.41,33.19-3.47,6.12-17.71,9.84-24.67,10.86l-56.82-78A31.86,31.86,0,0,1,526.18,121.11Z" style="fill:#263238"></path><path d="M514.58,130.07l15.25-1.47c-9.8,18.91-15.65,63.49-22,83.81-4.89-8.49-15.78-34-14.31-43.71S496.85,127,514.58,130.07Z" style="fill:#263238"></path><path d="M503.4,161.29c2.19-14.94,13.67-32.54,28.51-29.71l33.9,11.63c10.88,3.73,17.53,13.7,17.41,25.2,0,.58.11-.11.06.31l-11.82,87.91-63.77,48.14h0l11.48-48.24c.58-7.32,1.47-18.38,1.46-18.34s-18.92-4.78-20.82-30.14C498.87,195.44,501,177.88,503.4,161.29Z" style="fill:#ae7461"></path><path d="M507,180.2a3.23,3.23,0,0,0,2.83,3.5,3.08,3.08,0,0,0,3.55-2.62,3.22,3.22,0,0,0-2.82-3.5A3.1,3.1,0,0,0,507,180.2Z" style="fill:#263238"></path><path d="M506.37,171.4c.36.45,2.94-1.15,6.4-.85s5.84,2.23,6.25,1.84c.2-.17-.15-1-1.18-1.86a8.85,8.85,0,0,0-5-2,8.57,8.57,0,0,0-5.14,1.2C506.61,170.47,506.19,171.2,506.37,171.4Z" style="fill:#263238"></path><path d="M536.35,182.5a3.21,3.21,0,0,0,2.82,3.49,3.08,3.08,0,0,0,3.55-2.62,3.23,3.23,0,0,0-2.82-3.5A3.08,3.08,0,0,0,536.35,182.5Z" style="fill:#263238"></path><path d="M539.18,174.05c.36.45,3-1.14,6.4-.85s5.84,2.24,6.25,1.84c.2-.17-.14-1-1.18-1.85a8.85,8.85,0,0,0-5-2,8.59,8.59,0,0,0-5.14,1.2C539.43,173.12,539,173.85,539.18,174.05Z" style="fill:#263238"></path><path d="M526.19,200.31c0-.19-2.09-.74-5.53-1.47-.88-.17-1.7-.41-1.79-1a4.47,4.47,0,0,1,.8-2.56l3.17-6.5c4.41-9.27,7.69-16.91,7.32-17.09s-4.26,7.2-8.68,16.46q-1.61,3.42-3.06,6.55a5.09,5.09,0,0,0-.75,3.42A2.23,2.23,0,0,0,519,199.5a5.79,5.79,0,0,0,1.48.33C524,200.31,526.16,200.51,526.19,200.31Z" style="fill:#263238"></path><path d="M554.56,232s-9.54,16.54-34.4,12.12l.47-5.89A63.24,63.24,0,0,0,554.56,232Z" style="fill:#6f4439"></path><path d="M541.27,161.65c.27,1,3.75.81,7.76,1.64s7.2,2.2,7.81,1.4c.27-.38-.22-1.31-1.47-2.33A13.77,13.77,0,0,0,543.51,160C542,160.52,541.16,161.2,541.27,161.65Z" style="fill:#263238"></path><path d="M508.35,160.92c.54.84,3,.22,5.85.42s5.24,1,5.87.19c.28-.38,0-1.19-1-2a8.49,8.49,0,0,0-9.44-.49C508.51,159.74,508.11,160.52,508.35,160.92Z" style="fill:#263238"></path><path d="M512.05,139c1.84-3.64,6.15-5.57,10.23-5.45s7.92,2,11.28,4.3c14.21,9.82,20.19,31.26,34.21,41.37,3.44,2.49,8.32.86,11.17,4s4.47,8,2.45,11.7a35.27,35.27,0,0,0,5.81-8.23c1.38-3.08,1.82-6.75.38-9.8-1.1-2.31-3.22-4.18-3.63-6.7-.37-2.22.67-4.43.76-6.68a14.66,14.66,0,0,0-1.78-6.57c-4.94-10.67-12.14-20.54-21.9-27.11a42.49,42.49,0,0,0-21.51-7.46A32.52,32.52,0,0,0,517.94,129c-3.54,2.8-7.26,5.7-5.89,10" style="fill:#263238"></path><path d="M578.33,186.28c.32-.7,13.76-4.36,12.81,9.54-.92,13.5-14.32,9.74-14.31,9.35S578.33,186.28,578.33,186.28Z" style="fill:#ae7461"></path><path d="M581.36,200.36c.06,0,.22.18.61.39a2.38,2.38,0,0,0,1.75.16c1.46-.42,2.82-2.6,3.06-5a7.76,7.76,0,0,0-.41-3.41,2.73,2.73,0,0,0-1.64-1.93,1.21,1.21,0,0,0-1.44.54c-.2.37-.14.64-.21.66s-.27-.24-.13-.79a1.49,1.49,0,0,1,.6-.81,1.76,1.76,0,0,1,1.32-.25,3.31,3.31,0,0,1,2.31,2.26,8,8,0,0,1,.54,3.83c-.28,2.71-1.85,5.15-3.84,5.58a2.53,2.53,0,0,1-2.13-.51C581.36,200.68,581.31,200.38,581.36,200.36Z" style="fill:#6f4439"></path><path d="M584.25,179.78a5,5,0,0,1-.78-.52c-.49-.37-1.25-.87-2.14-1.62a46.53,46.53,0,0,1-6.75-7.22,130.19,130.19,0,0,1-8-12.28,106.52,106.52,0,0,0-10-14.76,42.38,42.38,0,0,0-6.73-6.25,34.59,34.59,0,0,0-7.47-4.15,38.53,38.53,0,0,0-14.14-2.91,37.07,37.07,0,0,0-9.73,1.1c-1.13.25-2,.56-2.57.73a6.44,6.44,0,0,1-.9.24,4.54,4.54,0,0,1,.86-.36,22.25,22.25,0,0,1,2.55-.84,35.11,35.11,0,0,1,9.79-1.31,38.47,38.47,0,0,1,14.36,2.82,35.69,35.69,0,0,1,7.61,4.18,42.37,42.37,0,0,1,6.83,6.35,101.73,101.73,0,0,1,10,14.87,141.14,141.14,0,0,0,7.83,12.31,50.49,50.49,0,0,0,6.56,7.3c.86.77,1.59,1.3,2.06,1.7A5.41,5.41,0,0,1,584.25,179.78Z" style="fill:#455a64"></path><path d="M580.55,183.32c-.09,3.7-.23,7.6-2.2,10.74s-6.43,5-9.49,2.92c-2.49-1.7-3-5.11-3.2-8.12-.59-8.69-.47-17.42-1.13-26.11Z" style="fill:#263238"></path><path d="M534.15,207.56A6.71,6.71,0,0,1,530,217.73a4,4,0,0,1-2.52-.17c-1.37-.64-1.94-2.25-2.39-3.69-.37-1.2-.74-2.4-1.12-3.61a1.17,1.17,0,0,1,1.16-1.8l8.82-1.39" style="fill:#6f4439"></path><path d="M527.67,217.16a8,8,0,0,0,4-.18,6.19,6.19,0,0,0,3.67-2.52,4.64,4.64,0,0,0,.74-2.64,7.76,7.76,0,0,0-.46-2.82,7.16,7.16,0,0,0-1.44-2.38l-.22-.23-.29.07c-5.9,1.56-10.46,2.22-10.44,2.47s4.69,0,10.69-1.48l-.5-.15a6.54,6.54,0,0,1,1.22,2.06c.53,1.6.65,3.41-.11,4.59a5.76,5.76,0,0,1-3.08,2.33C529.21,217,527.65,217,527.67,217.16Z" style="fill:#263238"></path><path d="M515.89,132.82c0,.08,1.21-.13,3.38,0a23.34,23.34,0,0,1,8.79,2.35,30.15,30.15,0,0,1,5.36,3.33,63.71,63.71,0,0,1,5.41,4.87,69.62,69.62,0,0,1,10.31,13.09c1.52,2.54,2.83,5.14,4.29,7.56a34.39,34.39,0,0,0,4.92,6.52,59.81,59.81,0,0,0,10.78,8.54c3.3,2.11,6.08,3.62,8,4.66l2.23,1.17a3.91,3.91,0,0,0,.8.36,4.27,4.27,0,0,0-.73-.49l-2.16-1.3c-1.87-1.12-4.6-2.7-7.85-4.85A62.45,62.45,0,0,1,558.85,170a34.4,34.4,0,0,1-4.78-6.41c-1.43-2.4-2.74-5-4.28-7.57a68,68,0,0,0-10.47-13.19A58.92,58.92,0,0,0,533.8,138a29.57,29.57,0,0,0-5.51-3.31,22.22,22.22,0,0,0-9-2.16,16.2,16.2,0,0,0-2.53.14A4.66,4.66,0,0,0,515.89,132.82Z" style="fill:#455a64"></path><path d="M581.6,175a5.38,5.38,0,0,0,1.12.9L586,178.2l1.09.75a3.61,3.61,0,0,0,1.44.61,1.42,1.42,0,0,0,.93-.14,1.16,1.16,0,0,0,.58-.85,3.11,3.11,0,0,0-.5-1.75l-3.45-6.67-.58.45a14.19,14.19,0,0,0,8.94,3.47,4.07,4.07,0,0,0,1.24-.11,1.66,1.66,0,0,0,1.12-.82,1.5,1.5,0,0,0-.11-1.39,6.25,6.25,0,0,0-.7-.9,28.48,28.48,0,0,1-4.13-6.17,49.38,49.38,0,0,1-2.42-6.44,7.41,7.41,0,0,0,.28,1.85,24.75,24.75,0,0,0,1.66,4.83,27.08,27.08,0,0,0,4.08,6.39c.46.51.92,1.1.69,1.51s-1,.56-1.69.51A13.64,13.64,0,0,1,586,170l-1.51-1.31.94,1.77,3.53,6.62a2.5,2.5,0,0,1,.47,1.36.64.64,0,0,1-.82.51,6.87,6.87,0,0,1-2.35-1.19l-3.37-2.1A6.54,6.54,0,0,0,581.6,175Z" style="fill:#455a64"></path><path d="M561,200.51l7.73,12.25s-12.66,32.06-47.58,26.08c-22.42-3.84-22.63-37.67-22.63-37.67,3,.82,10.12-3.06,15.47-6.16a11.39,11.39,0,0,1,10.07-.69C532.74,197.89,550.59,204.19,561,200.51Z" style="fill:#ebebeb"></path><path d="M541.87,215a6,6,0,0,1-1.23,0l-3.35-.23c-2.82-.18-6.73-.35-11-.3s-8.22.32-11,.58l-3.34.31a6.07,6.07,0,0,1-1.24.07,5.52,5.52,0,0,1,1.21-.27c.78-.14,1.92-.31,3.33-.48a104.35,104.35,0,0,1,11.07-.73,106.55,106.55,0,0,1,11.08.45c1.42.14,2.56.28,3.34.4A5,5,0,0,1,541.87,215Z" style="fill:#263238"></path><path d="M534.21,220.78a48.47,48.47,0,0,1-7.19.1,47.49,47.49,0,0,1-7.18-.42,52,52,0,0,1,7.19-.1A50.84,50.84,0,0,1,534.21,220.78Z" style="fill:#263238"></path><path d="M527.51,209.62c0,.15-2.45-.13-5.43,0s-5.38.62-5.42.47a19.88,19.88,0,0,1,10.85-.47Z" style="fill:#263238"></path><path d="M556.33,202.11a81.54,81.54,0,0,1,5.19,7.59,81.44,81.44,0,0,1,4.76,7.87,81.54,81.54,0,0,1-5.19-7.59A81.44,81.44,0,0,1,556.33,202.11Z" style="fill:#263238"></path><path d="M580,183.11c.1.11-4.18,4.4-9.57,9.6s-9.83,9.33-9.93,9.22,4.18-4.4,9.57-9.6S579.9,183,580,183.11Z" style="fill:#e0e0e0"></path><path d="M580,205.22a37.53,37.53,0,0,1-5.61,3.9,54.53,54.53,0,0,1-5.88,3.46,37.3,37.3,0,0,1,5.6-3.9A58.32,58.32,0,0,1,580,205.22Z" style="fill:#e0e0e0"></path><path d="M599.12,168.81a3.53,3.53,0,0,1,.1.59c0,.44.12,1,.2,1.68,0,.37.08.78.13,1.21s0,.94.05,1.46c0,1,.11,2.23,0,3.55,0,.66-.06,1.35-.09,2.06s-.14,1.46-.22,2.23c-.12,1.55-.44,3.17-.74,4.89a56.62,56.62,0,0,1-8.73,20.77c-1,1.41-2,2.78-3,3.95-.5.59-1,1.19-1.44,1.71L584,214.42c-.88,1-1.79,1.75-2.55,2.46-.39.35-.74.69-1.08,1l-1,.76-1.34,1a2.63,2.63,0,0,1-.49.34,2.59,2.59,0,0,1,.42-.42l1.28-1.11.92-.79c.34-.29.67-.64,1-1,.74-.73,1.63-1.51,2.48-2.51l1.39-1.51c.47-.53.92-1.13,1.4-1.73,1-1.17,1.92-2.53,2.91-3.94a63.62,63.62,0,0,0,5.33-9.88,64.37,64.37,0,0,0,3.33-10.72c.31-1.69.65-3.3.79-4.84.08-.76.2-1.49.24-2.21s.08-1.39.12-2c.11-1.31,0-2.49,0-3.53,0-.52,0-1,0-1.45s-.06-.85-.09-1.22c0-.68-.07-1.24-.1-1.68A2.57,2.57,0,0,1,599.12,168.81Z" style="fill:#455a64"></path><path d="M558.72,207.31l-.63.06c-.41,0-1,.06-1.81.06a59.33,59.33,0,0,1-6.65-.3,65.58,65.58,0,0,1-9.73-1.67c-1.81-.44-3.68-1-5.6-1.65s-3.86-1.46-5.85-2.22a21.43,21.43,0,0,0-6-1.49,16,16,0,0,0-5.65.71,82.13,82.13,0,0,0-9,3.82,26.31,26.31,0,0,1-6.33,2.06,10.62,10.62,0,0,1-1.8.19,2.64,2.64,0,0,1-.64,0,3,3,0,0,1,.63-.1,16.39,16.39,0,0,0,1.77-.28,29.51,29.51,0,0,0,6.22-2.2,75.22,75.22,0,0,1,9.05-4,16.6,16.6,0,0,1,5.83-.76,21.37,21.37,0,0,1,6.12,1.52c2,.76,3.92,1.57,5.83,2.22s3.75,1.21,5.55,1.67a71.72,71.72,0,0,0,9.65,1.77c2.78.32,5.05.41,6.61.45l1.81,0A2.42,2.42,0,0,1,558.72,207.31Z" style="fill:#263238"></path><path d="M413.07,227.21l15.47-20.93,3.84-5.91a7.17,7.17,0,0,1,7.46-6,6.15,6.15,0,0,1,6.57.31s14.57,4.79,15.46,6.14,1.54,5.29,1.54,5.29,5.34.6,6.4,3.38-1.61,4.74-4.28,6.7l-.81,8.45s-6.56,1.33-6.67-4.11c0,0-1.65,2.93-3.66,2.81a5.4,5.4,0,0,1-5.25,3.18s-6.84,6.62-12.81,6.79c0,0-7.07,4.67-12.24,4s-13.9-6.87-13.9-6.87Z" style="fill:#ae7461"></path><path d="M437.66,206.09a2.86,2.86,0,0,1,.6.37l1.67,1.1c1.46,1,3.63,2.24,6.36,3.76l1,.59a5.43,5.43,0,0,1,1.08.71,3.85,3.85,0,0,1,1.27,2.43c.13,1.84.26,3.8.4,5.86,0,.51.06,1,.07,1.57,0,.14,0,.27,0,.42a1.38,1.38,0,0,1,0,.26l-.08.2a4.84,4.84,0,0,1-.37.76,6.84,6.84,0,0,1-2.57,2.23,24.24,24.24,0,0,1-3.17,1.37,4.94,4.94,0,0,1-1.79.41,1.9,1.9,0,0,1-1.69-1,2.15,2.15,0,0,1-.19-1.57,3.39,3.39,0,0,1,.75-1.32,7.25,7.25,0,0,1,2.42-1.49l-.14.31a15.57,15.57,0,0,1-.77-5.39l.24.25a5.75,5.75,0,0,1-4.65-2.63l.43-.16a2.4,2.4,0,0,1-1.12,2.33,2.38,2.38,0,0,1-2.43,0l.27-.29a9.23,9.23,0,0,1,1.72,5.31,9,9,0,0,1-1,4.13,8.75,8.75,0,0,1-1.58,2.2c-.22.22-.4.37-.52.47a.94.94,0,0,1-.2.14,11.13,11.13,0,0,0,2.09-2.91,8.88,8.88,0,0,0,.87-4,9,9,0,0,0-1.72-5.07l-.59-.82.86.52a2,2,0,0,0,2,0,2,2,0,0,0,.89-1.9l-.15-1,.57.89a5.34,5.34,0,0,0,4.27,2.39H443v.25a15.3,15.3,0,0,0,.76,5.22l.07.22-.21.09a6.71,6.71,0,0,0-2.25,1.39,2,2,0,0,0-.49,2.28,1.42,1.42,0,0,0,1.25.7,4.7,4.7,0,0,0,1.6-.37,28.26,28.26,0,0,0,3.11-1.34,6.28,6.28,0,0,0,2.38-2.05,3.52,3.52,0,0,0,.34-.67l.07-.18a.44.44,0,0,0,0-.13c0-.12,0-.25,0-.38q0-.78-.06-1.56c-.12-2.05-.24-4-.35-5.83a3.41,3.41,0,0,0-1.11-2.18,5.49,5.49,0,0,0-1-.68l-1-.6c-2.7-1.56-4.85-2.9-6.28-3.91-.72-.49-1.26-.9-1.63-1.19A3.64,3.64,0,0,1,437.66,206.09Z" style="fill:#6f4439"></path><path d="M453.87,223.84a18.2,18.2,0,0,1,1-3.82,21.76,21.76,0,0,0,.92-4.12,8,8,0,0,0-.92-4.9,11.08,11.08,0,0,0-3.81-3.34l-3.62-2.28c-1-.65-1.86-1.19-2.42-1.57a3.88,3.88,0,0,1-.85-.64,4.17,4.17,0,0,1,1,.47c.6.32,1.46.81,2.51,1.43l3.68,2.18a11.21,11.21,0,0,1,4,3.47,8.25,8.25,0,0,1,.95,5.22,19.26,19.26,0,0,1-1,4.19c-.37,1.06-.69,2-1,2.72A5.8,5.8,0,0,1,453.87,223.84Z" style="fill:#6f4439"></path><path d="M457.5,221.46c-.09,0,.78-1.62,1.58-4.38a27.17,27.17,0,0,0,.93-5,20.46,20.46,0,0,0,.09-2.95,4,4,0,0,0-1.16-2.73,18.57,18.57,0,0,0-2.53-1.9c-.85-.59-1.69-1.14-2.49-1.65-1.61-1-3.09-1.89-4.35-2.6s-2.28-1.27-3-1.65a5.41,5.41,0,0,1-1.09-.64,5.63,5.63,0,0,1,1.18.46c.74.33,1.79.83,3.08,1.5s2.79,1.52,4.42,2.52c.82.51,1.66,1,2.53,1.63a19,19,0,0,1,2.61,2,4.1,4.1,0,0,1,1,1.43,5.58,5.58,0,0,1,.34,1.63,19.89,19.89,0,0,1-.12,3,25.05,25.05,0,0,1-1.06,5,21.88,21.88,0,0,1-1.29,3.19A5.62,5.62,0,0,1,457.5,221.46Z" style="fill:#6f4439"></path><path d="M465.51,217.14c-.16,0-.19-2.61-.85-5.73s-1.66-5.53-1.52-5.59a19.78,19.78,0,0,1,2.37,11.32Z" style="fill:#6f4439"></path><path d="M407.21,226.53c-1.3,2.26-33.33,56.23-36.54,67.55-3.33,11.75-3.82,25.69,2.91,32.11s21.46,10.33,26.27,9.66c10.34-1.45,70.47-9.66,70.47-9.66l36.31-72.07a71.62,71.62,0,0,0-19.49,3.49c-6.16,2.12-21.33,10.1-26.77,13s-46.48,17.44-46.48,17.44l20.57-52.33Z" style="fill:#6F35A5"></path><g style="opacity:0.30000000000000004"><path d="M384,332.42s13.28-14.23,15.44-23.69c3.33-14.51-15.87-41-15.87-41l-4.12,7.61c-5.14,9.26-9.29,17.93-10.22,24.71L379,320.84l-3.48,7.07A32.71,32.71,0,0,0,384,332.42Z"></path></g><path d="M610,449.39c-1.75-5.81-5.76-15.45-5.76-15.45l-14.84-39.08,8.19-44.27-6.7-24.47,13-64-31.66-12.18s-10.12,20.44-37.54,16.29c-16-2.43-14.79-13.75-14.79-13.75l-10.1,1.22-6.05.82-28.62,47.21a125.26,125.26,0,0,0-1.66,64.57c2.24,9.38,2.44,29.33,2.86,32.22,1.1,7.49-8.76,60.68-6.57,67.37H614.28S611.29,453.7,610,449.39Z" style="fill:#6F35A5"></path><path d="M600.54,260.92s18.73,4.53,27.56,34l9.63,31.25,29.08.28-6.28,31.13c-5,22-10.38,27.07-17.76,33.84-12.57,11.51-35.11-.91-40.44-21.25l-12.94-47.71Z" style="fill:#6F35A5"></path><path d="M604.41,376a3.29,3.29,0,0,1-.21-.58c-.14-.44-.32-1-.53-1.68-.45-1.53-1.08-3.64-1.84-6.22C600.31,362.23,598.24,355,596,347s-4.28-15.34-5.71-20.62c-.7-2.6-1.26-4.72-1.68-6.27l-.42-1.71a2.29,2.29,0,0,1-.12-.6,2.48,2.48,0,0,1,.22.58c.13.43.31,1,.52,1.68l1.83,6.22c1.52,5.32,3.58,12.57,5.86,20.58s4.25,15.28,5.74,20.61c.69,2.6,1.26,4.72,1.68,6.26.17.7.31,1.27.43,1.71A2.59,2.59,0,0,1,604.41,376Z" style="fill:#263238"></path><path d="M487,287.06a11.31,11.31,0,0,1-.77,1.5l-2.28,4c-1.92,3.37-4.68,8-7.25,13.29a80,80,0,0,0-3.19,7.68c-.84,2.42-1.45,4.64-1.9,6.52s-.74,3.42-.91,4.49a10,10,0,0,1-.35,1.66,11.46,11.46,0,0,1,.15-1.69c.11-1.08.36-2.63.75-4.54a59.64,59.64,0,0,1,1.8-6.6,74.78,74.78,0,0,1,3.18-7.74c2.58-5.36,5.4-9.93,7.4-13.26l2.42-3.9A10.1,10.1,0,0,1,487,287.06Z" style="fill:#263238"></path><path d="M402,300.6a155.11,155.11,0,0,1,12.36-12.76,74.42,74.42,0,0,1-6,6.56A74.82,74.82,0,0,1,402,300.6Z" style="fill:#263238"></path><g style="opacity:0.30000000000000004"><path d="M590.11,324.52s-3.47,34.45-2.37,43.93a104.55,104.55,0,0,0,3.41,16.9l6.43-34.76Z"></path></g><path d="M545.13,394.49a2.93,2.93,0,0,1-.54.28l-1.57.7c-1.36.6-3.36,1.41-5.86,2.34s-5.52,1.95-8.9,3-7.14,2-11.13,2.82-7.82,1.45-11.32,1.92-6.67.73-9.33.88-4.83.23-6.32.23h-1.72a3.13,3.13,0,0,1-.6,0,2.66,2.66,0,0,1,.6-.07l1.71-.09c1.49-.06,3.65-.19,6.3-.39s5.81-.53,9.3-1,7.3-1.12,11.27-1.95,7.72-1.81,11.11-2.77,6.39-1.95,8.9-2.85,4.53-1.63,5.92-2.18l1.6-.61A3.53,3.53,0,0,1,545.13,394.49Z" style="fill:#263238"></path><path d="M557.87,400.73c0,.13-7.43,2.75-16.7,5.83s-16.81,5.49-16.85,5.35,7.42-2.75,16.69-5.84S557.82,400.59,557.87,400.73Z" style="fill:#263238"></path><path d="M673.06,278l8-14.4,8.67-19.13,5.06-17s0-1.93-2.54-1.79-5.23,9.47-5.23,9.47l-3,6.51s-3.68,4.31-3.84,3.71,3.06-9.82,3.06-9.82l6-20.26a2.76,2.76,0,0,0-2.45-2.88c-1.46-.26-3.23,1.15-4.49,4s-2.45,8-3.13,9.65-4.29,11.11-4.29,11.11l4.45-23.83s2.31-7.3-1-7.78-3.91,5.29-4.87,7.43-4.16,18.27-6.53,22-2,1.46-2,1.46,1.72-7.3,3.08-13,1-9.69-1-11.21S661.84,224,661.84,224L657,242.36l-3.64,4.77-1.23-6.63s3.09-6.24.56-10.82-5-2.19-5-2.19l-5.18,27.67c-.33,4.8,6.77,18.12,6.77,18.12l-10.45,25,25.7,11.45Z" style="fill:#ae7461"></path><path d="M668.61,265.44c-.18.06-.73-1.72-1.85-4.44s-3.06-6.51-7-8.35a8.12,8.12,0,0,0-5.27-.69l-.6.15-.11-.66c-.5-2.88-1.25-5.57-1.58-7.39s-.45-3-.3-3a14.9,14.9,0,0,1,1,2.83,77.14,77.14,0,0,1,2,7.48l-.71-.51a8.92,8.92,0,0,1,6.06.68,12.47,12.47,0,0,1,5,4.34,19.67,19.67,0,0,1,2.34,4.81C668.5,263.57,668.75,265.41,668.61,265.44Z" style="fill:#6f4439"></path><polygon points="621.02 359.71 641.11 279.75 676.67 290.15 660.53 354.29 621.02 359.71" style="fill:#6F35A5"></polygon><path d="M641.11,279.75c.14,0-3.6,15.75-8.34,35.09s-8.71,35-8.85,35,3.59-15.75,8.34-35.1S641,279.71,641.11,279.75Z" style="fill:#263238"></path><path d="M603.15,265.45a50.22,50.22,0,0,0-5.44,3.8l-1.21,1.05c-.4.39-.79.82-1.21,1.26a36,36,0,0,0-2.49,2.92,42.87,42.87,0,0,0-4.37,7.63,50.82,50.82,0,0,0-3.87,15.48c-.13,1-.14,2-.19,2.77s-.07,1.52-.06,2.09a12.69,12.69,0,0,1-.07,1.79,11.69,11.69,0,0,1-.14-1.79c0-.57-.05-1.28,0-2.1s0-1.76.11-2.79A48.18,48.18,0,0,1,588,281.9a40.87,40.87,0,0,1,4.47-7.71,34.63,34.63,0,0,1,2.56-2.93c.43-.43.84-.86,1.25-1.25l1.25-1.05a20.86,20.86,0,0,1,2.25-1.65c.34-.23.66-.45,1-.63l.85-.45A10.51,10.51,0,0,1,603.15,265.45Z" style="fill:#263238"></path><g style="opacity:0.30000000000000004"><path d="M558,389.67c-9.81,6.47-20.07,12.47-31.26,16.05s-23.46,4.63-34.7,1.17C513.87,405,535.87,398.76,558,389.67Z"></path></g><circle cx="581.45" cy="209.32" r="7.2" style="fill:#455a64"></circle></g><g id="freepik--character-1--inject-17"><path d="M250.86,183.42a3.74,3.74,0,0,1-.67-.06,12.79,12.79,0,0,1-1.89-.42,36.27,36.27,0,0,1-6.5-2.85,46.88,46.88,0,0,0-4.41-2.08,15.5,15.5,0,0,0-5.38-1.16,19,19,0,0,0-6,1c-2.05.63-4.1,1.49-6.23,2.33a68.08,68.08,0,0,1-22.86,4.76,61.12,61.12,0,0,1-7.1-.16c-.83-.06-1.48-.15-1.92-.2a3.67,3.67,0,0,1-.66-.11,2.85,2.85,0,0,1,.67,0c.44,0,1.09.08,1.93.1,1.66.09,4.08.14,7.07,0a70.68,70.68,0,0,0,22.68-4.87c2.12-.84,4.19-1.7,6.27-2.34a19.49,19.49,0,0,1,6.18-1,15.89,15.89,0,0,1,5.53,1.24,47,47,0,0,1,4.42,2.15,39.27,39.27,0,0,0,6.39,3C249.94,183.26,250.87,183.36,250.86,183.42Z" style="fill:#263238"></path><path d="M284.15,181.48c-.17.13.62,7.42.26,11.93a4.76,4.76,0,0,0,1.15,3.52c2.81,3.23,9,10.19,10.85,11,2.42,1,15.38,4.67,19.7,8.29s8.12,11.23,8.64,11.23S351,221,351,221L338.74,200s-2.42-8.81-5.18-14.16-5-10.37-6.57-11.23-13.82-1-13.82-1-2.76-.17-2.94,1.9c0,0-6.45-.7-6.66,1.57a29.72,29.72,0,0,0-4.85.17A6.85,6.85,0,0,0,296,179s-3-.6-4.16.34a15,15,0,0,0-2.23,2.27S287.34,179,284.15,181.48Z" style="fill:#ffbf9d"></path><path d="M301.44,197.08a9.2,9.2,0,0,1-1-.22,8.1,8.1,0,0,0-2.84-.05l-.21,0,0-.21a5.15,5.15,0,0,0-4.63-4.69l-.48,0H292v-.27a27.73,27.73,0,0,0,.05-4.25,14.55,14.55,0,0,0-.74-3.34,5.77,5.77,0,0,0-1.78-2.53,1.94,1.94,0,0,1,.75.44,4.93,4.93,0,0,1,1.37,1.95,14.27,14.27,0,0,1,.87,3.43,26.05,26.05,0,0,1,0,4.33l-.26-.28.53,0a5.5,5.5,0,0,1,3.69,1.93,5.4,5.4,0,0,1,1.28,3.24l-.22-.18a7.32,7.32,0,0,1,2.95.23A2.53,2.53,0,0,1,301.44,197.08Z" style="fill:#ff9a6c"></path><path d="M292.26,187.28a15,15,0,0,1,2.23,1.46c1.34.95,3.16,2.27,5.16,3.81a3.75,3.75,0,0,1,1.21,1.51,6.23,6.23,0,0,1,.3,1.73c.09,1,.16,2,.23,2.87a13.24,13.24,0,0,1,.08,2.66,14.1,14.1,0,0,1-.44-2.62c-.11-.87-.22-1.83-.34-2.86a6.57,6.57,0,0,0-.31-1.6,3.3,3.3,0,0,0-1.06-1.29c-2-1.51-3.78-2.9-5.05-3.92A13.85,13.85,0,0,1,292.26,187.28Z" style="fill:#ff9a6c"></path><path d="M303.94,181.78a29.15,29.15,0,0,1-4.09-1.05A10.34,10.34,0,0,1,296,179c.06-.12,1.79.58,4,1.21S304,181.62,303.94,181.78Z" style="fill:#ff9a6c"></path><path d="M308.77,182.27c-.07.14-1.21-.39-2.7-.43s-2.67.4-2.73.25a3.69,3.69,0,0,1,2.74-.77A3.64,3.64,0,0,1,308.77,182.27Z" style="fill:#ff9a6c"></path><path d="M314,177.48a27.68,27.68,0,0,1-5.26.05,25.72,25.72,0,0,1-5.24-.47,27.68,27.68,0,0,1,5.26-.05A25.61,25.61,0,0,1,314,177.48Z" style="fill:#ff9a6c"></path><path d="M319.51,182.48a9,9,0,0,0-1.68-3.11,9.15,9.15,0,0,0-3.06-1.77c0-.06.43-.11,1.11.05A5.09,5.09,0,0,1,318.2,179a5,5,0,0,1,1.29,2.36C319.64,182.05,319.58,182.47,319.51,182.48Z" style="fill:#ff9a6c"></path><path d="M322.72,176a26.12,26.12,0,0,1-6.27,0c-3.45-.3-6.23-.43-6.24-.56a25,25,0,0,1,6.28,0C319.93,175.75,322.71,175.89,322.72,176Z" style="fill:#ff9a6c"></path><path d="M191.61,89.46A11.13,11.13,0,0,1,203.3,84.1a15.18,15.18,0,0,1,18.69.84,13.51,13.51,0,0,1,20.1,11.56,11.3,11.3,0,0,1,9.38,19.28,10.85,10.85,0,0,1-5.11,21L193.31,102.2A11.13,11.13,0,0,1,191.61,89.46Z" style="fill:#263238"></path><path d="M247.9,138.32a46,46,0,0,0-44.81-43.5l-2.39-.06c-25.74.84-39.41,23.18-37.85,48.89l1.54,85.69,3.25,10.86,36.17,26.71,16.55-16.35L224,225.09s24.82-3.21,25.75-27.91C250.19,185.25,249.12,160.61,247.9,138.32Z" style="fill:#ffbf9d"></path><path d="M224.2,225.06s-15.8.55-32.13-10.3c0,0,6.26,18.64,31,17Z" style="fill:#ff9a6c"></path><path d="M240.15,160a3.53,3.53,0,0,1-3.49,3.47,3.37,3.37,0,0,1-3.55-3.27,3.53,3.53,0,0,1,3.48-3.48A3.38,3.38,0,0,1,240.15,160Z" style="fill:#263238"></path><path d="M242.52,151.54c-.45.45-3.07-1.6-6.87-1.69s-6.62,1.75-7,1.27c-.2-.21.27-1,1.5-1.88a9.7,9.7,0,0,1,5.64-1.59,9.38,9.38,0,0,1,5.46,1.92C242.37,150.5,242.74,151.34,242.52,151.54Z" style="fill:#263238"></path><path d="M207.55,160a3.53,3.53,0,0,1-3.49,3.47,3.39,3.39,0,0,1-3.56-3.27,3.54,3.54,0,0,1,3.49-3.48A3.37,3.37,0,0,1,207.55,160Z" style="fill:#263238"></path><path d="M206.21,150.08c-.45.45-3.07-1.59-6.87-1.68s-6.63,1.74-7,1.26c-.19-.21.27-1,1.51-1.88a9.7,9.7,0,0,1,5.64-1.58,9.25,9.25,0,0,1,5.45,1.91C206.06,149,206.43,149.88,206.21,150.08Z" style="fill:#263238"></path><path d="M218,178.54c0-.21,2.36-.56,6.19-.95,1-.08,1.9-.25,2.08-.91s-.13-1.75-.57-2.89c-.86-2.36-1.75-4.85-2.68-7.45-3.72-10.62-6.38-19.33-6-19.48s3.79,8.34,7.5,18.95c.89,2.62,1.75,5.11,2.56,7.5.34,1.11.94,2.38.4,3.82a2.45,2.45,0,0,1-1.63,1.38,6.38,6.38,0,0,1-1.65.18C220.4,178.8,218,178.76,218,178.54Z" style="fill:#263238"></path><path d="M206.76,180.88c.62,0,.52,4.1,4,7.12s7.85,2.67,7.87,3.25c.05.26-1,.78-2.85.78a10.29,10.29,0,0,1-6.58-2.48,9,9,0,0,1-3.07-6C206,181.86,206.48,180.85,206.76,180.88Z" style="fill:#263238"></path><path d="M206.54,139.24c-.48,1-3.73,0-7.7,0s-7.31.71-7.69-.29c-.17-.47.52-1.35,1.94-2.15a11.85,11.85,0,0,1,5.93-1.41,11.42,11.42,0,0,1,5.79,1.65C206.15,137.87,206.75,138.77,206.54,139.24Z" style="fill:#263238"></path><path d="M241.93,141.1c-.62.9-3.28.16-6.43.29s-5.77.91-6.43,0c-.29-.42.08-1.31,1.19-2.19a9.33,9.33,0,0,1,10.36-.26C241.78,139.8,242.2,140.67,241.93,141.1Z" style="fill:#263238"></path><path d="M245.81,126.93s-6.12-15.64-13.49-19.44c-8.92-4.6-13.06,5.21-21.61,2.59s-17.06-7-26-.61c-9.81,7-5.43,12.26-6.31,23.21-3.54,44.38-12,56.74-13.75,35.75-.2-2.3-6.52-4.29-7.21-14-.91-12.6-1-27.87,2-36.71,2.56-7.46,7-12.54,14.81-18.07,12.36-8.73,29-8.5,40.31-7.07S247.34,107.58,245.81,126.93Z" style="fill:#263238"></path><path d="M166.21,167.8a6.71,6.71,0,0,0-7.08-6.65c-4.62.32-9.81,2.81-9.75,12.34.11,16.9,17.06,13.31,17.08,12.82C166.48,186,166.32,174.87,166.21,167.8Z" style="fill:#ffbf9d"></path><path d="M162.75,180c-.08-.05-.3.21-.79.44a2.89,2.89,0,0,1-2.2.06c-1.8-.64-3.32-3.47-3.42-6.51a9.7,9.7,0,0,1,.8-4.22,3.4,3.4,0,0,1,2.2-2.28,1.5,1.5,0,0,1,1.74.8c.23.47.13.81.22.83s.36-.28.22-1a1.94,1.94,0,0,0-.68-1.05,2.16,2.16,0,0,0-1.63-.42,4.13,4.13,0,0,0-3.06,2.64,10,10,0,0,0-1,4.72c.13,3.4,1.9,6.58,4.35,7.27a3.14,3.14,0,0,0,2.69-.47C162.72,180.38,162.8,180,162.75,180Z" style="fill:#ff9a6c"></path><path d="M167.37,135.08c2.16,1.55,4.44,3.16,7.07,3.48s5.7-1.11,6.22-3.71c.23-1.17,0-2.55.77-3.44.95-1.06,2.64-.67,4-.49a10.78,10.78,0,0,0,11.39-7.44c1.21,1.91,4.13,1.9,6.06.73s3.2-3.15,4.72-4.81,3.65-3.12,5.88-2.75c1.24.21,2.39,1,3.65.9,2.22-.14,3.37-2.71,3.76-4.9s.72-4.76,2.63-5.9,4-.37,6.05,0,4.68-.06,5.25-2a4,4,0,0,0-.68-3.08,10.92,10.92,0,0,0-12.8-4.47,14.83,14.83,0,0,0-27.17-3.57A15.06,15.06,0,0,0,170,98.44,10.91,10.91,0,0,0,157.32,114c-3.08,1.66-5.76,4.61-5.91,8.1s3.16,7.07,6.56,6.24a6,6,0,0,0,10.29,6.29" style="fill:#263238"></path><path d="M156.73,128.26s-.35,1.41,1,3.27a5.42,5.42,0,0,0,3.34,2.11,5.89,5.89,0,0,0,4.85-1.28l-.71-.13a16.58,16.58,0,0,0,3.26,4.3,9.54,9.54,0,0,0,3,2,7.49,7.49,0,0,0,8.34-2.26,9.79,9.79,0,0,0,1.45-3.48,3.25,3.25,0,0,0,.17-1.37,4.65,4.65,0,0,0-.53,1.26,11.58,11.58,0,0,1-1.64,3.17c-1.66,2.38-6.91,3.49-10.16,0a17,17,0,0,1-3.11-4l-.29-.5-.43.38a5.14,5.14,0,0,1-4.1,1.19,5,5,0,0,1-3-1.69A8.35,8.35,0,0,1,156.73,128.26Z" style="fill:#455a64"></path><path d="M189.63,90.49c0,.06.44.13,1.19.47a5.83,5.83,0,0,1,2.57,2.3l.19.33.24-.31a21,21,0,0,1,8.34-6.41,16.48,16.48,0,0,1,6.68-1.29A13.76,13.76,0,0,1,216,87.81,13.91,13.91,0,0,1,220.1,92a11.36,11.36,0,0,1,1.73,5.14l0,.53.52-.13a9.47,9.47,0,0,1,7,1,9.29,9.29,0,0,1,3.74,4.21,12.41,12.41,0,0,1,.92,5,3.34,3.34,0,0,0,.24-1.37,9.3,9.3,0,0,0-.66-3.87,9.59,9.59,0,0,0-3.85-4.65,10.18,10.18,0,0,0-7.6-1.26l.56.41a12.34,12.34,0,0,0-1.82-5.59A14.86,14.86,0,0,0,216.47,87a14.48,14.48,0,0,0-7.6-2.35,17,17,0,0,0-7.05,1.45A20.65,20.65,0,0,0,193.4,93l.43,0a5.73,5.73,0,0,0-2.91-2.28A2.67,2.67,0,0,0,189.63,90.49Z" style="fill:#455a64"></path><path d="M183.79,179l-8.46,13.31s13.5,37.79,52.41,32c29.58-4.42,22.67-45.87,22.67-45.87-3.33.93-8.48-2.87-14.46-6.11a13,13,0,0,0-11.19-.58C215.16,175.68,195.4,182.74,183.79,179Z" style="fill:#ebebeb"></path><path d="M248.93,193.12a1.91,1.91,0,0,1-.55.2l-1.6.49c-.7.22-1.56.47-2.57.7s-2.15.54-3.44.76-2.68.52-4.21.72-3.15.39-4.87.56a82.31,82.31,0,0,1-22.37-1.21c-1.69-.35-3.3-.66-4.78-1.07s-2.87-.78-4.11-1.16-2.36-.79-3.34-1.14-1.8-.67-2.47-1l-1.55-.66a1.93,1.93,0,0,1-.52-.26,2.22,2.22,0,0,1,.56.17l1.58.56c.68.26,1.51.57,2.5.88s2.09.72,3.34,1.05,2.62.76,4.11,1.1,3.08.68,4.77,1a86.39,86.39,0,0,0,22.25,1.2c1.71-.16,3.33-.28,4.84-.51s2.92-.42,4.2-.65,2.43-.48,3.44-.69,1.88-.42,2.58-.6l1.63-.4A2.56,2.56,0,0,1,248.93,193.12Z" style="fill:#263238"></path><path d="M238.62,202.53a6.31,6.31,0,0,1-1.27.57,15,15,0,0,1-1.53.55c-.6.2-1.28.44-2.06.63a42.21,42.21,0,0,1-5.51,1.12,46.71,46.71,0,0,1-6.88.38,47.27,47.27,0,0,1-6.85-.71,42.27,42.27,0,0,1-5.44-1.39c-.77-.22-1.44-.5-2-.72s-1.09-.44-1.5-.63a7.31,7.31,0,0,1-1.24-.63,7.57,7.57,0,0,1,1.32.44c.41.16.92.35,1.52.54s1.28.45,2,.65a48.5,48.5,0,0,0,5.43,1.27,52.84,52.84,0,0,0,6.78.66,52.25,52.25,0,0,0,6.8-.33,50.22,50.22,0,0,0,5.48-1c.77-.17,1.46-.39,2.07-.55s1.12-.33,1.55-.47A8.17,8.17,0,0,1,238.62,202.53Z" style="fill:#263238"></path><path d="M238.43,184.93a4.54,4.54,0,0,1-1,.41c-.67.24-1.66.53-2.89.86a58.76,58.76,0,0,1-19.77,1.66c-1.27-.11-2.29-.24-3-.36a5.46,5.46,0,0,1-1.09-.23c0-.09,1.58.09,4.11.23a75,75,0,0,0,9.88-.15,72.51,72.51,0,0,0,9.78-1.51C236.9,185.28,238.41,184.85,238.43,184.93Z" style="fill:#263238"></path><path d="M189,180.61a95.46,95.46,0,0,1-5.23,8.53,93.69,93.69,0,0,1-5.66,8.25,95.46,95.46,0,0,1,5.23-8.53A93.69,93.69,0,0,1,189,180.61Z" style="fill:#263238"></path><path d="M162.51,160.56a5.18,5.18,0,0,1,.93.72c.66.57,1.47,1.27,2.42,2.11l7.94,7c3.09,2.74,5.86,5.26,7.84,7.12,1,.93,1.77,1.69,2.31,2.22a4.75,4.75,0,0,1,.79.88,6.5,6.5,0,0,1-.93-.73l-2.42-2.1-7.94-7c-3.09-2.75-5.86-5.26-7.83-7.12-1-.93-1.78-1.69-2.32-2.23A5.43,5.43,0,0,1,162.51,160.56Z" style="fill:#e0e0e0"></path><path d="M162.73,187a9.91,9.91,0,0,1,2,.75l4.72,2a65.28,65.28,0,0,1,6.64,2.88A8,8,0,0,1,174,192c-1.24-.42-2.94-1.06-4.79-1.82A33.65,33.65,0,0,1,162.73,187Z" style="fill:#e0e0e0"></path><path d="M110,276.3s-7.88,10.17-7.88,19.62S91,416.58,94.49,427.17c6.26,19.06,31.83,20.91,40,9.62a81.36,81.36,0,0,0,11.25-21.15L131.8,326.07Z" style="fill:#455a64"></path><path d="M152.75,240.44s-38.88,26-44.57,38.93,21.34,101.85,22.29,101.85,19.43,46,19.43,46l-2.18,38.66h151.7L285,352.91l-8.58-59.85-20.81-52.62-27-1.47s-19.15-7.24-27.21-10-31.56-9-41-4.27l-2.84,11.8Z" style="fill:#455a64"></path><path d="M253.19,240.31s17.06,0,31.39,7.87,54.59,27.54,54.59,27.54l-21.72-51.41L351,211.48s42.35,79.64,42.81,91.2-9.06,26.85-22,28.7-96.19-14.89-96.19-14.89-20.29-30-20.29-33.72S253.19,240.31,253.19,240.31Z" style="fill:#455a64"></path><path d="M110.57,312.8a1.2,1.2,0,0,1,.11.3c.07.22.17.51.28.87l1,3.39c.87,3,2.12,7.23,3.65,12.47,3.09,10.53,7.35,25.08,12.61,41,2.64,7.95,5.31,15.46,7.86,22.25s5,12.85,7.16,17.89c1,2.54,2.08,4.79,2.95,6.79s1.65,3.7,2.3,5.09L150,426c.16.35.28.63.37.84a.83.83,0,0,1,.11.3,2.77,2.77,0,0,1-.15-.27l-.42-.82-1.56-3.17c-.68-1.38-1.49-3.07-2.39-5.06s-2-4.24-3-6.76c-2.21-5-4.67-11.09-7.27-17.87s-5.26-14.3-7.91-22.25c-5.26-15.91-9.47-30.48-12.46-41-1.47-5.26-2.66-9.53-3.49-12.52-.4-1.46-.7-2.6-.92-3.42-.1-.37-.17-.66-.23-.89A1.14,1.14,0,0,1,110.57,312.8Z" style="fill:#263238"></path><path d="M248.76,296.08a2.94,2.94,0,0,1-.39-.46c-.24-.33-.62-.78-1-1.42a36.28,36.28,0,0,1-3.14-5.64,39,39,0,0,1,4.9-40.36,36.56,36.56,0,0,1,4.4-4.73c.56-.52,1-.87,1.35-1.13a2.47,2.47,0,0,1,.49-.35,3.33,3.33,0,0,1-.43.43c-.28.29-.74.66-1.27,1.2a41.43,41.43,0,0,0-4.25,4.8,39.54,39.54,0,0,0-4.85,40,41.31,41.31,0,0,0,3,5.68c.39.65.74,1.12.95,1.46A2.35,2.35,0,0,1,248.76,296.08Z" style="fill:#263238"></path><path d="M231.39,240a3.81,3.81,0,0,1-.78-.06l-2.2-.27-8.09-1.08c-6.83-.88-16.24-2.43-26.7-3.38a131.74,131.74,0,0,0-14.79-.55,79,79,0,0,0-12,1.18c-1.7.27-3.2.67-4.54,1s-2.45.68-3.37,1l-2.1.71a4.22,4.22,0,0,1-.75.21,4.76,4.76,0,0,1,.71-.31l2.08-.8c.91-.31,2-.65,3.36-1.05s2.84-.75,4.54-1a74.83,74.83,0,0,1,12.06-1.3,127.48,127.48,0,0,1,14.84.51c10.49.95,19.89,2.56,26.71,3.54l8.07,1.24,2.19.37A4.46,4.46,0,0,1,231.39,240Z" style="fill:#263238"></path><path d="M231.27,422.48a2.75,2.75,0,0,1-.67.08l-1.95.14-7.17.44c-6,.36-14.41.88-23.64,1.54s-17.57,1.33-23.61,1.83l-7.16.58-1.95.14a4.36,4.36,0,0,1-.68,0,3.1,3.1,0,0,1,.67-.12l1.94-.24c1.69-.19,4.13-.45,7.14-.75,6-.59,14.39-1.32,23.62-2s17.59-1.12,23.65-1.39c3-.13,5.48-.22,7.18-.27l2,0A2.71,2.71,0,0,1,231.27,422.48Z" style="fill:#263238"></path><path d="M358.55,286.47c-.07.12-4.78-2.24-10.52-5.29s-10.35-5.61-10.28-5.74,4.77,2.24,10.52,5.28S358.62,286.34,358.55,286.47Z" style="fill:#263238"></path><g style="opacity:0.30000000000000004"><path d="M113.93,324.61s1.5,58.72,12,74.73,19.49,17.15,19.49,17.15C133.53,390,123.23,358.82,113.93,324.61Z"></path></g><path d="M246.16,294.74c0,.15-28.87,3.88-64.52,8.34s-64.57,8-64.59,7.82,28.87-3.87,64.53-8.34S246.14,294.6,246.16,294.74Z" style="fill:#263238"></path><path d="M184.71,360.94a1.39,1.39,0,0,1-.11-.25l-.27-.76-1-2.93c-.86-2.54-2.05-6.24-3.48-10.83-2.86-9.16-6.59-21.91-10.23-36.1s-6.5-27.17-8.4-36.58c-.95-4.71-1.68-8.52-2.15-11.17l-.54-3-.12-.8a.93.93,0,0,1,0-.27.91.91,0,0,1,.08.26l.18.79c.15.73.36,1.74.63,3,.55,2.67,1.34,6.46,2.31,11.13,2,9.4,4.91,22.34,8.55,36.53s7.3,26.93,10.07,36.13l3.32,10.87.9,3c.09.31.17.57.22.77A1,1,0,0,1,184.71,360.94Z" style="fill:#263238"></path><path d="M184.17,325.82c-.13.07-2.47-4.46-5.22-10.1s-4.87-10.28-4.74-10.34,2.46,4.46,5.21,10.11S184.3,325.76,184.17,325.82Z" style="fill:#263238"></path><path d="M315.83,323.35c0,.14-11.69-2.13-26-5.07s-26-5.45-25.94-5.59,11.69,2.13,26,5.08S315.86,323.21,315.83,323.35Z" style="fill:#263238"></path></g></svg>