<svg xmlns="http://www.w3.org/2000/svg" viewBox="0 0 500 500"><g id="freepik--background-complete--inject-59"><rect x="248.08" y="344.51" width="169.41" height="78.13" style="fill:#f5f5f5"></rect><path d="M413.45,419H252V348.62H413.45ZM253,417.9H412.4V349.67H253Z" style="fill:#e0e0e0"></path><rect x="417.49" y="344.51" width="41.38" height="78.13" style="fill:#e0e0e0"></rect><path d="M252.48,370.39H412.93a.22.22,0,0,0,0-.43H252.48a.22.22,0,0,0,0,.43Z" style="fill:#e0e0e0"></path><path d="M333.23,370.17a174.69,174.69,0,0,0,0-21.22.22.22,0,0,0-.43,0,176.74,176.74,0,0,0,.06,21.22.16.16,0,0,0,.32,0Z" style="fill:#e0e0e0"></path><path d="M376.41,359.56a2.19,2.19,0,1,1-2.18-2.18A2.18,2.18,0,0,1,376.41,359.56Z" style="fill:#e0e0e0"></path><path d="M292.21,359.56a2.19,2.19,0,1,1-2.18-2.18A2.18,2.18,0,0,1,292.21,359.56Z" style="fill:#e0e0e0"></path><path d="M334.89,383.79a2.19,2.19,0,1,1-2.18-2.19A2.19,2.19,0,0,1,334.89,383.79Z" style="fill:#e0e0e0"></path><polygon points="268.33 422.64 259.61 471.69 264.52 471.69 280.6 422.64 268.33 422.64" style="fill:#e0e0e0"></polygon><polygon points="405.5 422.64 412.79 471.77 407.89 471.77 393.24 422.64 405.5 422.64" style="fill:#e0e0e0"></polygon><polygon points="438.25 422.64 446.51 471.77 441.61 471.77 425.98 422.64 438.25 422.64" style="fill:#e0e0e0"></polygon><path d="M334.74,405.9a2.19,2.19,0,1,1-2.18-2.19A2.18,2.18,0,0,1,334.74,405.9Z" style="fill:#e0e0e0"></path><path d="M252.48,394.58H412.93a.22.22,0,0,0,0-.43H252.48a.22.22,0,0,0,0,.43Z" style="fill:#e0e0e0"></path><rect x="335.51" y="287.3" width="10.43" height="51.22" transform="translate(651.83 -29.45) rotate(89.7)" style="fill:#e0e0e0"></rect><rect x="335.82" y="307.8" width="16.2" height="57.09" transform="translate(678.44 -9.36) rotate(89.7)" style="fill:#f5f5f5"></rect><path d="M361.51,344.18a59.76,59.76,0,0,1-.28-8.1,59.64,59.64,0,0,1,.28-8.1,57.75,57.75,0,0,1,.28,8.1A57.87,57.87,0,0,1,361.51,344.18Z" style="fill:#e0e0e0"></path><path d="M363.91,344.18a59.76,59.76,0,0,1-.28-8.1,59.64,59.64,0,0,1,.28-8.1,59.64,59.64,0,0,1,.28,8.1A59.76,59.76,0,0,1,363.91,344.18Z" style="fill:#e0e0e0"></path><path d="M324,344.18a59.76,59.76,0,0,1-.28-8.1A59.64,59.64,0,0,1,324,328a59.64,59.64,0,0,1,.28,8.1A59.76,59.76,0,0,1,324,344.18Z" style="fill:#e0e0e0"></path><path d="M326.41,344.18a59.76,59.76,0,0,1-.28-8.1,59.64,59.64,0,0,1,.28-8.1,59.64,59.64,0,0,1,.28,8.1A59.76,59.76,0,0,1,326.41,344.18Z" style="fill:#e0e0e0"></path><path d="M331.64,336.34c0-.16,5.76-.28,12.87-.28s12.86.12,12.86.28-5.76.28-12.86.28S331.64,336.49,331.64,336.34Z" style="fill:#e0e0e0"></path><rect x="353.48" y="287.75" width="10.43" height="70.45" transform="translate(679.77 -37.43) rotate(89.7)" style="fill:#ebebeb"></rect><path d="M383.86,326.7a3.37,3.37,0,1,1,3.33-3.37A3.35,3.35,0,0,1,383.86,326.7Z" style="fill:#e0e0e0"></path><rect x="350.09" y="299.75" width="2.08" height="47.16" transform="translate(674.46 -27.8) rotate(90)" style="fill:#e0e0e0"></rect><circle cx="105.64" cy="169.91" r="46.87" style="fill:#f5f5f5"></circle><path d="M136,205.47c-1.39-14.4-13.65-26.61-30.3-26.61s-28,12.59-30.3,26.71c0,0,10.29,11.38,30.3,11.21S136,205.47,136,205.47Z" style="fill:#e0e0e0"></path><circle cx="105.65" cy="163.69" r="18.38" transform="translate(-68.57 250.89) rotate(-83.75)" style="fill:#e0e0e0"></circle><circle cx="78.28" cy="205.65" r="21.06" style="fill:#ebebeb"></circle><path d="M78.06,214.66a2.66,2.66,0,0,1-2.33-2.72V198.78a2.68,2.68,0,0,1,2.33-2.72,2.55,2.55,0,0,1,2.77,2.54v13.52A2.55,2.55,0,0,1,78.06,214.66Z" style="fill:#fff"></path><path d="M85,207.91H71.7A2.68,2.68,0,0,1,69,205.59a2.55,2.55,0,0,1,2.54-2.78H84.86a2.68,2.68,0,0,1,2.72,2.32A2.55,2.55,0,0,1,85,207.91Z" style="fill:#fff"></path><rect x="356.84" y="37.62" width="90.03" height="130.5" style="fill:#e0e0e0"></rect><rect x="352.33" y="37.62" width="90.03" height="130.5" style="fill:#f5f5f5"></rect><rect x="363.52" y="51.76" width="67.66" height="102.23" style="fill:#fff"></rect><path d="M431.18,154s0-.17,0-.5,0-.82,0-1.45c0-1.29,0-3.17,0-5.61,0-4.9,0-12-.06-21.06,0-18-.07-43.55-.11-73.61l.22.22-67.65,0h0l.24-.24c0,38.56,0,74.12-.05,102.23l-.19-.2,49.25.11,13.61,0,3.57,0c.81,0,1.23,0,1.23,0L430,154l-3.54,0-13.56.05-49.37.1h-.2V154c0-28.11,0-63.67-.05-102.23v-.25h.26l67.65,0h.23v.23c-.05,30.12-.09,55.7-.11,73.76,0,9-.05,16.12-.06,21,0,2.42,0,4.29,0,5.56,0,.62,0,1.09,0,1.42S431.18,154,431.18,154Z" style="fill:#e0e0e0"></path><path d="M442.62,37.62A16.33,16.33,0,0,1,441,40c-1,1.4-2.53,3.3-4.23,5.36s-3.28,3.88-4.45,5.18a16.07,16.07,0,0,1-2,2,16,16,0,0,1,1.72-2.25L436.41,45l4.33-5.26A18.35,18.35,0,0,1,442.62,37.62Z" style="fill:#e0e0e0"></path><path d="M431.53,153.66a83.84,83.84,0,0,0,11.8,14.76" style="fill:#fff"></path><path d="M443.33,168.42a13.32,13.32,0,0,1-2.06-1.87,66.88,66.88,0,0,1-4.45-5,63.54,63.54,0,0,1-3.92-5.45,13.25,13.25,0,0,1-1.37-2.42,19.48,19.48,0,0,1,1.66,2.22c1,1.4,2.38,3.3,4,5.34s3.18,3.81,4.32,5.09A18.71,18.71,0,0,1,443.33,168.42Z" style="fill:#e0e0e0"></path><path d="M352.32,168l11.79-14.55" style="fill:#fff"></path><path d="M364.11,153.47a90.54,90.54,0,0,1-5.7,7.43,89.53,89.53,0,0,1-6.09,7.12,90.16,90.16,0,0,1,5.71-7.43A88.58,88.58,0,0,1,364.11,153.47Z" style="fill:#e0e0e0"></path><path d="M352.33,37.62a82,82,0,0,1,5.73,6.84,86,86,0,0,1,5.34,7.15,80,80,0,0,1-5.73-6.84A82.32,82.32,0,0,1,352.33,37.62Z" style="fill:#e0e0e0"></path><rect x="387.45" y="72.51" width="22.66" height="64.33" style="fill:#e0e0e0"></rect><rect x="39.99" y="31.38" width="69.81" height="72.77" style="fill:#e0e0e0"></rect><rect x="35.26" y="31.38" width="69.81" height="72.77" style="fill:#fafafa"></rect><path d="M105.09,104.17H35.24V31.36h69.85Zm-69.81,0h69.77V31.4H35.28Z" style="fill:#e0e0e0"></path><rect x="44.64" y="41.16" width="51.04" height="53.21" style="fill:#fff"></rect><path d="M44.64,94.72a7.91,7.91,0,0,1-1.26,1.47c-.81.86-2,2-3.24,3.29s-2.47,2.39-3.34,3.19a8.68,8.68,0,0,1-1.47,1.23,7.73,7.73,0,0,1,1.25-1.46c.82-.86,2-2,3.25-3.3S42.3,96.75,43.17,96A8.68,8.68,0,0,1,44.64,94.72Z" style="fill:#e0e0e0"></path><path d="M95.69,94.59a9.13,9.13,0,0,1,1.46,1.26c.86.82,2,2,3.29,3.25s2.39,2.46,3.19,3.33a8.06,8.06,0,0,1,1.23,1.48,8.51,8.51,0,0,1-1.46-1.26c-.86-.81-2-2-3.29-3.25s-2.4-2.47-3.2-3.34A7.73,7.73,0,0,1,95.69,94.59Z" style="fill:#e0e0e0"></path><path d="M95.55,41.3a8.51,8.51,0,0,1,1.26-1.46c.81-.86,2-2,3.24-3.29s2.47-2.39,3.34-3.19a8.11,8.11,0,0,1,1.47-1.23,8.68,8.68,0,0,1-1.25,1.46c-.82.86-2,2-3.25,3.29s-2.47,2.4-3.35,3.2A7.9,7.9,0,0,1,95.55,41.3Z" style="fill:#e0e0e0"></path><path d="M44.5,41.43A8.51,8.51,0,0,1,43,40.17c-.86-.81-2-2-3.29-3.24s-2.39-2.47-3.19-3.34a8.11,8.11,0,0,1-1.23-1.47,8.68,8.68,0,0,1,1.46,1.25c.86.82,2,2,3.29,3.25s2.4,2.47,3.2,3.35A7.9,7.9,0,0,1,44.5,41.43Z" style="fill:#e0e0e0"></path><path d="M95.55,94.37a1,1,0,0,1,0-.26c0-.18,0-.43,0-.74,0-.67,0-1.63,0-2.87,0-2.53,0-6.19,0-10.85,0-9.32-.06-22.59-.1-38.49l.2.2-50.9,0h0l.23-.23c0,19.53,0,37.8,0,53.21l-.2-.19,36.86.09,10.35,0,2.74,0h0l-2.7,0-10.31,0-37,.1h-.19v-.19c0-15.41,0-33.68,0-53.21v-.23h.23l50.9,0h.19v.2c0,16-.07,29.27-.1,38.62,0,4.63,0,8.29,0,10.8,0,1.23,0,2.17,0,2.83,0,.31,0,.55,0,.72S95.55,94.37,95.55,94.37Z" style="fill:#e0e0e0"></path><rect x="61.65" y="59.25" width="17.03" height="17.03" style="fill:#ebebeb"></rect></g><g id="freepik--Floor--inject-59"><path d="M457.64,471c0,.15-95.21.26-212.63.26S32.36,471.18,32.36,471s95.19-.26,212.65-.26S457.64,470.89,457.64,471Z" style="fill:#263238"></path></g><g id="freepik--Device--inject-59"><path d="M289.83,384.28l-122.56-.07a26.7,26.7,0,0,1-26.68-26.7l.06-307.24a26.7,26.7,0,0,1,26.71-26.69l122.56.07a26.7,26.7,0,0,1,26.68,26.7l-.06,307.24A26.7,26.7,0,0,1,289.83,384.28Z" style="fill:#455a64"></path><path d="M289.51,34.61l-23.76,0a5.91,5.91,0,0,0-5.77,6v4.31a5.9,5.9,0,0,1-5.77,6l-46.31,0a5.9,5.9,0,0,1-5.77-6V40.59a5.91,5.91,0,0,0-5.77-6H167.21A18.69,18.69,0,0,0,148.5,53.23l-.06,299.89a18.7,18.7,0,0,0,18.68,18.7l122.31.07a18.69,18.69,0,0,0,18.71-18.69l.06-299.89A18.69,18.69,0,0,0,289.51,34.61Z" style="fill:#fff"></path><path d="M165.14,71.15a.48.48,0,0,1-.33-.13l-4.66-4.08a.46.46,0,0,1-.16-.38.48.48,0,0,1,.17-.37l4.66-3.87a.49.49,0,0,1,.63.75l-4.22,3.51,4.23,3.71a.49.49,0,0,1,0,.69A.48.48,0,0,1,165.14,71.15Z" style="fill:#263238"></path><path d="M207.71,69.8h-2.92l-.56,1.35h-1.49l2.8-6.28H207l2.81,6.28h-1.53Zm-.46-1.1-1-2.41-1,2.41Z" style="fill:#263238"></path><path d="M215.22,64.49v6.66h-1.34v-.56a1.86,1.86,0,0,1-1.51.63,2.49,2.49,0,0,1,0-5,1.88,1.88,0,0,1,1.45.58V64.49Zm-1.38,4.24a1.23,1.23,0,1,0-1.23,1.34A1.22,1.22,0,0,0,213.84,68.73Z" style="fill:#263238"></path><path d="M221.42,64.49v6.66h-1.33v-.56a1.86,1.86,0,0,1-1.51.63,2.49,2.49,0,0,1,0-5,1.88,1.88,0,0,1,1.45.58V64.49Zm-1.37,4.24a1.23,1.23,0,1,0-1.23,1.34A1.22,1.22,0,0,0,220.05,68.73Z" style="fill:#263238"></path><path d="M226.81,66v1.66h2.9v1.17h-2.9v2.29h-1.46V64.87h4.75V66Z" style="fill:#263238"></path><path d="M233.9,66.25v1.29l-.32,0a1.19,1.19,0,0,0-1.28,1.35v2.28h-1.4V66.32h1.34V67A1.93,1.93,0,0,1,233.9,66.25Z" style="fill:#263238"></path><path d="M234.56,64.87a.81.81,0,0,1,.87-.79.79.79,0,0,1,.87.76.87.87,0,0,1-1.74,0Zm.17,1.45h1.4v4.83h-1.4Z" style="fill:#263238"></path><path d="M242.13,69.13h-3.65a1.29,1.29,0,0,0,1.38,1,1.65,1.65,0,0,0,1.21-.47l.75.81a2.82,2.82,0,0,1-4.75-1.71,2.46,2.46,0,0,1,2.58-2.48,2.39,2.39,0,0,1,2.51,2.5C242.16,68.86,242.14,69,242.13,69.13Zm-3.67-.82h2.38a1.21,1.21,0,0,0-2.38,0Z" style="fill:#263238"></path><path d="M248,68.38v2.77h-1.4V68.6c0-.78-.36-1.14-1-1.14s-1.16.41-1.16,1.3v2.39h-1.4V66.32h1.34v.56a2.12,2.12,0,0,1,1.6-.63A1.89,1.89,0,0,1,248,68.38Z" style="fill:#263238"></path><path d="M254.26,64.49v6.66h-1.33v-.56a1.86,1.86,0,0,1-1.51.63,2.49,2.49,0,0,1,0-5,1.86,1.86,0,0,1,1.44.58V64.49Zm-1.37,4.24a1.24,1.24,0,1,0-1.23,1.34A1.22,1.22,0,0,0,252.89,68.73Z" style="fill:#263238"></path><path d="M255.09,70.7l.47-1a3.26,3.26,0,0,0,1.67.47c.65,0,.89-.17.89-.44,0-.79-2.91,0-2.91-1.91,0-.92.82-1.56,2.23-1.56a4,4,0,0,1,1.86.42l-.47,1a2.84,2.84,0,0,0-1.39-.35c-.63,0-.9.19-.9.44,0,.83,2.92,0,2.92,1.93,0,.9-.84,1.54-2.28,1.54A4.2,4.2,0,0,1,255.09,70.7Z" style="fill:#263238"></path><rect x="255.13" y="143.75" width="43.22" height="20.45" rx="7.41" style="fill:#6F35A5"></rect><path d="M270.09,154.26a1.72,1.72,0,0,0,1-1.6,1.62,1.62,0,1,0-3.24,0,1.74,1.74,0,0,0,1,1.61,2.77,2.77,0,0,0-2.06,2.09h5.25A2.84,2.84,0,0,0,270.09,154.26Z" style="fill:#fff"></path><path d="M278.8,155H277l-.34.83h-.92l1.73-3.88h.88l1.74,3.88h-.95Zm-.28-.68-.62-1.49-.61,1.49Z" style="fill:#fff"></path><path d="M283.44,151.68v4.11h-.83v-.35a1.13,1.13,0,0,1-.92.39,1.54,1.54,0,0,1,0-3.07,1.17,1.17,0,0,1,.89.36v-1.44Zm-.85,2.62a.76.76,0,1,0-.76.82A.76.76,0,0,0,282.59,154.3Z" style="fill:#fff"></path><path d="M287.28,151.68v4.11h-.83v-.35a1.15,1.15,0,0,1-.93.39,1.54,1.54,0,0,1,0-3.07,1.14,1.14,0,0,1,.89.36v-1.44Zm-.85,2.62a.76.76,0,1,0-.76.82A.76.76,0,0,0,286.43,154.3Z" style="fill:#fff"></path><path d="M265.44,154.36a.34.34,0,0,1-.35-.34v-1.83a.35.35,0,1,1,.69,0V154A.34.34,0,0,1,265.44,154.36Z" style="fill:#fff"></path><path d="M266.35,153.45h-1.83a.35.35,0,0,1-.34-.35.34.34,0,0,1,.34-.34h1.83a.34.34,0,0,1,.34.34A.35.35,0,0,1,266.35,153.45Z" style="fill:#fff"></path><path d="M307.47,81.1c0,.14-35.77.26-79.88.26s-79.88-.12-79.88-.26,35.76-.26,79.88-.26S307.47,81,307.47,81.1Z" style="fill:#e0e0e0"></path><path d="M307.47,122.89c0,.15-35.77.26-79.88.26s-79.88-.11-79.88-.26,35.76-.26,79.88-.26S307.47,122.75,307.47,122.89Z" style="fill:#e0e0e0"></path><path d="M308.46,179.64c0,.14-35.77.26-79.88.26s-79.88-.12-79.88-.26,35.76-.27,79.88-.27S308.46,179.49,308.46,179.64Z" style="fill:#e0e0e0"></path><path d="M308.48,234.48c0,.14-35.77.26-79.88.26s-79.88-.12-79.88-.26,35.75-.26,79.88-.26S308.48,234.34,308.48,234.48Z" style="fill:#e0e0e0"></path><path d="M308.48,289.94c0,.14-35.77.26-79.88.26s-79.88-.12-79.88-.26,35.75-.26,79.88-.26S308.48,289.8,308.48,289.94Z" style="fill:#e0e0e0"></path><rect x="162.81" y="93.23" width="135.17" height="19.57" rx="7.09" style="fill:#ebebeb"></rect><path d="M285.66,106.18a4.64,4.64,0,1,1,4.64-4.64A4.64,4.64,0,0,1,285.66,106.18Zm0-8.78a4.14,4.14,0,1,0,4.14,4.14A4.14,4.14,0,0,0,285.66,97.4Z" style="fill:#263238"></path><path d="M291.62,106.94a.24.24,0,0,1-.14,0l-2.83-2.09a.25.25,0,1,1,.3-.4l2.82,2.09a.25.25,0,0,1,.06.35A.28.28,0,0,1,291.62,106.94Z" style="fill:#263238"></path><path d="M244.69,151.73c0,.15-8.45.26-18.87.26s-18.87-.11-18.87-.26,8.45-.26,18.87-.26S244.69,151.59,244.69,151.73Z" style="fill:#263238"></path><path d="M229.77,158.09c0,.15-5.1.26-11.41.26s-11.41-.11-11.41-.26,5.11-.26,11.41-.26S229.77,158,229.77,158.09Z" style="fill:#e0e0e0"></path><rect x="255.13" y="198.92" width="43.22" height="20.45" rx="7.41" style="fill:#6F35A5"></rect><path d="M270.09,209.43a1.73,1.73,0,0,0,1-1.6,1.62,1.62,0,1,0-3.24,0,1.75,1.75,0,0,0,1,1.62,2.77,2.77,0,0,0-2.06,2.09h5.25A2.84,2.84,0,0,0,270.09,209.43Z" style="fill:#fff"></path><path d="M278.8,210.12H277l-.34.83h-.92l1.73-3.87h.88l1.74,3.87h-.95Zm-.28-.68L277.9,208l-.61,1.48Z" style="fill:#fff"></path><path d="M283.44,206.84V211h-.83v-.34a1.13,1.13,0,0,1-.92.39,1.54,1.54,0,0,1,0-3.07,1.13,1.13,0,0,1,.89.36v-1.45Zm-.85,2.62a.76.76,0,1,0-.76.83A.75.75,0,0,0,282.59,209.46Z" style="fill:#fff"></path><path d="M287.28,206.84V211h-.83v-.34a1.15,1.15,0,0,1-.93.39,1.54,1.54,0,0,1,0-3.07,1.11,1.11,0,0,1,.89.36v-1.45Zm-.85,2.62a.76.76,0,1,0-.76.83A.75.75,0,0,0,286.43,209.46Z" style="fill:#fff"></path><path d="M265.44,209.53a.35.35,0,0,1-.35-.35v-1.83a.35.35,0,0,1,.69,0v1.83A.35.35,0,0,1,265.44,209.53Z" style="fill:#fff"></path><path d="M266.35,208.61h-1.83a.34.34,0,0,1-.34-.34.35.35,0,0,1,.34-.35h1.83a.35.35,0,0,1,.34.35A.34.34,0,0,1,266.35,208.61Z" style="fill:#fff"></path><path d="M244.69,206.9c0,.14-8.45.26-18.87.26S207,207,207,206.9s8.45-.26,18.87-.26S244.69,206.75,244.69,206.9Z" style="fill:#263238"></path><path d="M229.77,213.26c0,.14-5.1.26-11.41.26S207,213.4,207,213.26s5.11-.26,11.41-.26S229.77,213.12,229.77,213.26Z" style="fill:#e0e0e0"></path><rect x="255.13" y="254.08" width="43.22" height="20.45" rx="7.41" style="fill:#6F35A5"></rect><path d="M270.09,264.59a1.72,1.72,0,0,0,1-1.6,1.62,1.62,0,1,0-3.24,0,1.74,1.74,0,0,0,1,1.61,2.77,2.77,0,0,0-2.06,2.09h5.25A2.84,2.84,0,0,0,270.09,264.59Z" style="fill:#fff"></path><path d="M278.8,265.29H277l-.34.83h-.92l1.73-3.88h.88l1.74,3.88h-.95Zm-.28-.68-.62-1.49-.61,1.49Z" style="fill:#fff"></path><path d="M283.44,262v4.11h-.83v-.35a1.1,1.1,0,0,1-.92.39,1.54,1.54,0,0,1,0-3.07,1.17,1.17,0,0,1,.89.36V262Zm-.85,2.62a.76.76,0,1,0-.76.82A.76.76,0,0,0,282.59,264.63Z" style="fill:#fff"></path><path d="M287.28,262v4.11h-.83v-.35a1.12,1.12,0,0,1-.93.39,1.54,1.54,0,0,1,0-3.07,1.14,1.14,0,0,1,.89.36V262Zm-.85,2.62a.76.76,0,1,0-.76.82A.76.76,0,0,0,286.43,264.63Z" style="fill:#fff"></path><path d="M265.44,264.69a.34.34,0,0,1-.35-.34v-1.83a.35.35,0,1,1,.69,0v1.83A.34.34,0,0,1,265.44,264.69Z" style="fill:#fff"></path><path d="M266.35,263.78h-1.83a.35.35,0,0,1-.34-.35.34.34,0,0,1,.34-.34h1.83a.34.34,0,0,1,.34.34A.35.35,0,0,1,266.35,263.78Z" style="fill:#fff"></path><path d="M244.69,262.06c0,.15-8.45.26-18.87.26s-18.87-.11-18.87-.26,8.45-.26,18.87-.26S244.69,261.92,244.69,262.06Z" style="fill:#263238"></path><path d="M229.77,268.42c0,.15-5.1.26-11.41.26s-11.41-.11-11.41-.26,5.11-.26,11.41-.26S229.77,268.28,229.77,268.42Z" style="fill:#e0e0e0"></path><rect x="255.13" y="309.25" width="43.22" height="20.45" rx="7.41" style="fill:#6F35A5"></rect><path d="M270.09,319.76a1.73,1.73,0,0,0,1-1.6,1.62,1.62,0,1,0-3.24,0,1.75,1.75,0,0,0,1,1.62,2.77,2.77,0,0,0-2.06,2.09h5.25A2.84,2.84,0,0,0,270.09,319.76Z" style="fill:#fff"></path><path d="M278.8,320.45H277l-.34.83h-.92l1.73-3.87h.88l1.74,3.87h-.95Zm-.28-.68-.62-1.48-.61,1.48Z" style="fill:#fff"></path><path d="M283.44,317.17v4.11h-.83v-.34a1.13,1.13,0,0,1-.92.39,1.54,1.54,0,0,1,0-3.07,1.13,1.13,0,0,1,.89.36v-1.45Zm-.85,2.62a.76.76,0,1,0-.76.83A.75.75,0,0,0,282.59,319.79Z" style="fill:#fff"></path><path d="M287.28,317.17v4.11h-.83v-.34a1.15,1.15,0,0,1-.93.39,1.54,1.54,0,0,1,0-3.07,1.11,1.11,0,0,1,.89.36v-1.45Zm-.85,2.62a.76.76,0,1,0-.76.83A.75.75,0,0,0,286.43,319.79Z" style="fill:#fff"></path><path d="M265.44,319.85a.34.34,0,0,1-.35-.34v-1.83a.35.35,0,0,1,.69,0v1.83A.34.34,0,0,1,265.44,319.85Z" style="fill:#fff"></path><path d="M266.35,318.94h-1.83a.34.34,0,0,1-.34-.34.35.35,0,0,1,.34-.35h1.83a.35.35,0,0,1,.34.35A.34.34,0,0,1,266.35,318.94Z" style="fill:#fff"></path><path d="M244.69,317.23c0,.14-8.45.26-18.87.26s-18.87-.12-18.87-.26,8.45-.26,18.87-.26S244.69,317.08,244.69,317.23Z" style="fill:#263238"></path><path d="M229.77,323.59c0,.14-5.1.26-11.41.26s-11.41-.12-11.41-.26,5.11-.26,11.41-.26S229.77,323.45,229.77,323.59Z" style="fill:#e0e0e0"></path><circle cx="220.82" cy="353.06" r="2.61" style="fill:#ebebeb"></circle><circle cx="230.48" cy="353.06" r="2.61" style="fill:#ebebeb"></circle><circle cx="240.14" cy="353.06" r="2.61" style="fill:#ebebeb"></circle><path d="M288.47,62.61a5.15,5.15,0,0,1,1.16-.5l.23-1.14,1.93,0,.27,1.13a4.52,4.52,0,0,1,1.17.46l1-.64,1.39,1.34-.6,1a5.15,5.15,0,0,1,.5,1.16l1.14.23,0,1.93-1.13.27a4.52,4.52,0,0,1-.46,1.17l.64,1-1.34,1.39-1-.6a5.28,5.28,0,0,1-1.15.5L292,72.38l-1.93,0-.27-1.13a4.52,4.52,0,0,1-1.17-.46l-1,.64-1.39-1.34.6-1a5.15,5.15,0,0,1-.5-1.16l-1.14-.23,0-1.93,1.13-.27a4.52,4.52,0,0,1,.46-1.17l-.64-1L287.48,62l1,.6Zm1,2.57a2.07,2.07,0,1,0,2.92-.05A2.07,2.07,0,0,0,289.5,65.18Z" style="fill:#263238"></path><ellipse cx="178.54" cy="152.86" rx="21.32" ry="21.27" style="fill:#f5f5f5"></ellipse><path d="M168.58,158.18l5.58-.47L187.79,160l1.61,10.26-.23,1.19a21.42,21.42,0,0,1-20.2.47l-.39-13.74" style="fill:#6F35A5"></path><path d="M184.88,159.84A7.29,7.29,0,0,1,192,163a39.33,39.33,0,0,1,2.53,4c-2.41,2.26-4.08,4.2-7.1,5.32Z" style="fill:#6F35A5"></path><path d="M168.58,158.18s-3.69.45-5.12,3.6-1.76,4.13-1.76,4.13c1.91,2.29,4.33,4.84,7.3,5.86,0,0,.69-7.75.78-10C169.88,159.32,170,158.11,168.58,158.18Z" style="fill:#6F35A5"></path><path d="M172,138a10.09,10.09,0,0,1,7.81-3.88,10.69,10.69,0,0,1,3.79.69,5.55,5.55,0,0,1,3.19,2.1,9.35,9.35,0,0,1,1.84,4.28,26,26,0,0,1,.23,4.82,8.75,8.75,0,0,1-1.51,4.53l-4.09.71a26,26,0,0,1-6.77-.36,8.69,8.69,0,0,1-5.52-3.63C169.29,144.61,170,140.46,172,138Z" style="fill:#263238"></path><path d="M186.07,152.87a.68.68,0,0,0,.25.22,2,2,0,0,0,.84.28,2.24,2.24,0,0,0,1.31-.26,2.11,2.11,0,0,0,1-1.3,2.06,2.06,0,0,0-.19-1.61,2.1,2.1,0,0,0-1-.88,2,2,0,0,0-.87-.18.72.72,0,0,0-.32.06,3.18,3.18,0,0,1,1.12.27,2.17,2.17,0,0,1,.87.84,2,2,0,0,1-.71,2.61,2.1,2.1,0,0,1-1.17.28A3,3,0,0,1,186.07,152.87Z" style="fill:#e0e0e0"></path><path d="M168,149.9a3,3,0,0,1,1.39-2.3,2.2,2.2,0,0,1,2.58.23l.65.76a2.65,2.65,0,0,1,1.52,2.66,2.89,2.89,0,0,1-2,2.37,3.22,3.22,0,0,1-3.06-.74A3.58,3.58,0,0,1,168,149.9Z" style="fill:#263238"></path><path d="M168.8,152.66a1.41,1.41,0,0,1-.22-.81,3.67,3.67,0,0,1,.94-1.84,5.37,5.37,0,0,1,1.64-1.31c.48-.26.81-.36.8-.39a2.32,2.32,0,0,0-.86.26,4.93,4.93,0,0,0-1.74,1.31,5.22,5.22,0,0,0-.66,1,2.35,2.35,0,0,0-.26,1,1.17,1.17,0,0,0,.18.65C168.71,152.62,168.79,152.67,168.8,152.66Z" style="fill:#455a64"></path><path d="M170.78,153.87a9,9,0,0,1,.19-2.7,9.2,9.2,0,0,1,1.16-2.45,2.56,2.56,0,0,0-.54.61,5.67,5.67,0,0,0-1,3.74A2.31,2.31,0,0,0,170.78,153.87Z" style="fill:#455a64"></path><path d="M183.18,159.11l0-3.8s3.34-.36,4.26-4.64a45.33,45.33,0,0,0,.52-8.53c0-2.59-2.23-6.12-5.44-6.14l-1.43-.16L175.61,138a1.52,1.52,0,0,0-1.45,1.46L174,157.72l9.12,12.79.06-11.4Z" style="fill:#a26760"></path><path d="M181,149.67a.92.92,0,0,1,1.44-.62,1.24,1.24,0,0,1,.48,1.17h0a1.18,1.18,0,0,1-.81.47H182a1,1,0,0,1-.68-.27A.89.89,0,0,1,181,149.67Z" style="fill:#7b4b45"></path><path d="M186.93,145.1a.56.56,0,0,1-.57.53.53.53,0,0,1-.54-.53.55.55,0,0,1,.56-.53A.54.54,0,0,1,186.93,145.1Z" style="fill:#263238"></path><path d="M186.88,143.74c-.07.07-.48-.26-1.07-.29s-1.05.24-1.11.17,0-.16.24-.29a1.46,1.46,0,0,1,.9-.22,1.42,1.42,0,0,1,.84.32C186.86,143.58,186.91,143.71,186.88,143.74Z" style="fill:#263238"></path><path d="M183.13,148.25a4.12,4.12,0,0,1,1-.12c.15,0,.3,0,.33-.13a.76.76,0,0,0-.08-.46l-.38-1.18a19.3,19.3,0,0,1-.85-3.08,19.44,19.44,0,0,1,1.09,3c.13.41.25.81.37,1.18a.87.87,0,0,1,0,.6.38.38,0,0,1-.27.21.8.8,0,0,1-.26,0A3.62,3.62,0,0,1,183.13,148.25Z" style="fill:#263238"></path><path d="M183.16,155.31a11,11,0,0,1-5.7-1.85s1.37,3.07,5.72,2.9Z" style="fill:#7b4b45"></path><path d="M181.35,148.57c.1,0,.07.64.6,1.13s1.22.46,1.22.55-.16.11-.45.11a1.66,1.66,0,0,1-1-.42,1.43,1.43,0,0,1-.45-.95C181.23,148.72,181.31,148.56,181.35,148.57Z" style="fill:#263238"></path><path d="M186.76,141.5c-.11.14-.56,0-1.1,0s-1,.13-1.09,0,0-.21.21-.34a1.67,1.67,0,0,1,1.76,0C186.74,141.3,186.81,141.43,186.76,141.5Z" style="fill:#263238"></path><path d="M180.09,145.06a.57.57,0,0,0,.53.57.54.54,0,0,0,.58-.49.55.55,0,0,0-.53-.57A.54.54,0,0,0,180.09,145.06Z" style="fill:#263238"></path><path d="M178.71,143.53c.07.08.49-.23,1.09-.22s1,.32,1.09.25,0-.16-.22-.31a1.47,1.47,0,0,0-.87-.28,1.45,1.45,0,0,0-.87.26C178.74,143.37,178.68,143.5,178.71,143.53Z" style="fill:#263238"></path><path d="M178.37,142.25c.11.14.57,0,1.13,0s1,.11,1.13,0,0-.2-.23-.34a1.65,1.65,0,0,0-.91-.23,1.73,1.73,0,0,0-.91.25C178.38,142.05,178.32,142.19,178.37,142.25Z" style="fill:#263238"></path><path d="M174.9,146.71c0-.32-.31-1.09-.62-1.16a1.87,1.87,0,0,0-2.51,1.95,2.21,2.21,0,0,0,2.82,2.43C174.6,149.87,174.85,147.82,174.9,146.71Z" style="fill:#a26760"></path><path d="M173.85,148.81s-.06,0-.15.07a.51.51,0,0,1-.38,0,1.25,1.25,0,0,1-.52-1.17A1.71,1.71,0,0,1,173,147a.57.57,0,0,1,.41-.36.25.25,0,0,1,.29.15.53.53,0,0,1,0,.15s.07,0,.05-.17a.39.39,0,0,0-.1-.19.43.43,0,0,0-.28-.09.73.73,0,0,0-.57.42,1.77,1.77,0,0,0-.22.81,1.34,1.34,0,0,0,.67,1.32.58.58,0,0,0,.47-.05C173.84,148.88,173.86,148.82,173.85,148.81Z" style="fill:#7b4b45"></path><path d="M174.16,145.56l.74.77c3.23-3.08,9.55-10.81,9.19-10.35a9.38,9.38,0,0,0-4.61-.5c-2.4.41-7,1.61-6.89,4.44A14.71,14.71,0,0,0,174.16,145.56Z" style="fill:#263238"></path><path d="M174.22,152.87s-.06.11-.24.22a2,2,0,0,1-.84.28,2.24,2.24,0,0,1-1.31-.26,2.18,2.18,0,0,1-.79-2.91,2.12,2.12,0,0,1,1-.88,2,2,0,0,1,.87-.18.72.72,0,0,1,.32.06,3.18,3.18,0,0,0-1.12.27,2.17,2.17,0,0,0-.87.84,2,2,0,0,0,.71,2.61,2.1,2.1,0,0,0,1.17.28A2.84,2.84,0,0,0,174.22,152.87Z" style="fill:#e0e0e0"></path><path d="M169.88,144.91s0-.06,0-.17a4.25,4.25,0,0,1,.2-.47,4.45,4.45,0,0,1,1.23-1.38,8.18,8.18,0,0,1,2.48-1.19,33.43,33.43,0,0,0,3.19-1,14.32,14.32,0,0,0,2.9-1.63,14.86,14.86,0,0,0,2.06-1.79c.53-.56.92-1.06,1.19-1.4l.29-.41.11-.14s0,.06-.08.16-.15.24-.28.42a12.67,12.67,0,0,1-1.15,1.44,14.16,14.16,0,0,1-2.05,1.83,14.46,14.46,0,0,1-2.94,1.66,32.58,32.58,0,0,1-3.2,1,8,8,0,0,0-2.45,1.14,4.5,4.5,0,0,0-1.25,1.32A6.73,6.73,0,0,0,169.88,144.91Z" style="fill:#455a64"></path><path d="M170.73,145.37a1.49,1.49,0,0,1,.12-.64,3,3,0,0,1,1.1-1.39,6.91,6.91,0,0,1,2.46-1,14.26,14.26,0,0,0,3.05-1,13.17,13.17,0,0,0,2.73-1.68,14.09,14.09,0,0,0,1.86-1.83,12.65,12.65,0,0,0,1-1.43c.1-.16.19-.3.25-.41a.68.68,0,0,1,.1-.14.84.84,0,0,1-.07.16l-.23.42a11.35,11.35,0,0,1-1,1.47,13.16,13.16,0,0,1-1.87,1.87,12.63,12.63,0,0,1-2.74,1.7,14.4,14.4,0,0,1-3.09,1,6.72,6.72,0,0,0-2.42.91,3,3,0,0,0-1.12,1.32A4.33,4.33,0,0,0,170.73,145.37Z" style="fill:#455a64"></path><path d="M169,172.13a22.5,22.5,0,0,1-.1-2.92,22.27,22.27,0,0,1,.1-2.91,42.54,42.54,0,0,1,0,5.83Z" style="fill:#263238"></path><path d="M189.18,171.68a6,6,0,0,1,0-1,11.63,11.63,0,0,0-.08-2.44,12.58,12.58,0,0,0-.69-2.34,5.27,5.27,0,0,1-.34-1,4.79,4.79,0,0,1,.47.91,8.41,8.41,0,0,1,.78,4.84A3.91,3.91,0,0,1,189.18,171.68Z" style="fill:#263238"></path><path d="M199.89,152.94a1.41,1.41,0,0,1,0-.35c0-.25,0-.59-.07-1,0-.22,0-.47-.05-.74s-.09-.57-.14-.89a16.1,16.1,0,0,0-.46-2.2,20.54,20.54,0,0,0-2.37-5.64,21.17,21.17,0,0,0-25.41-9A19,19,0,0,0,166,136a22.83,22.83,0,0,0-2.4,2,24.27,24.27,0,0,0-2.06,2.45,20.45,20.45,0,0,0-3,5.81,23.15,23.15,0,0,0-1.09,6.65,22.82,22.82,0,0,0,1.09,6.66,20.38,20.38,0,0,0,3,5.82,23.09,23.09,0,0,0,2.06,2.44,24.21,24.21,0,0,0,2.4,2,20.91,20.91,0,0,0,2.58,1.66,23.79,23.79,0,0,0,2.75,1.22,21.34,21.34,0,0,0,11.1.93,21,21,0,0,0,8.9-3.94,21.21,21.21,0,0,0,5.41-6,20.67,20.67,0,0,0,2.37-5.64,16.42,16.42,0,0,0,.46-2.2,11.69,11.69,0,0,0,.19-1.63c0-.43.06-.76.07-1a1.26,1.26,0,0,1,0-.34,1.72,1.72,0,0,1,0,.34q0,.39,0,1a9.79,9.79,0,0,1-.14,1.65,14.86,14.86,0,0,1-.41,2.23,20.3,20.3,0,0,1-2.32,5.73,21.59,21.59,0,0,1-5.43,6.15,21.37,21.37,0,0,1-9,4.06,21.6,21.6,0,0,1-11.34-.9,24.08,24.08,0,0,1-2.82-1.23,23.32,23.32,0,0,1-2.65-1.7,22.85,22.85,0,0,1-2.45-2.08,24.41,24.41,0,0,1-2.13-2.5,21.17,21.17,0,0,1-3.09-6,22.94,22.94,0,0,1-1.12-6.83,23.18,23.18,0,0,1,1.12-6.81,20.68,20.68,0,0,1,3.1-6,23.24,23.24,0,0,1,2.12-2.51,24,24,0,0,1,2.45-2.07,22,22,0,0,1,2.65-1.7,22.51,22.51,0,0,1,2.82-1.23,21.6,21.6,0,0,1,11.34-.91A21.53,21.53,0,0,1,197,142a20.35,20.35,0,0,1,2.32,5.74,15.86,15.86,0,0,1,.41,2.22c0,.33.09.63.12.9s0,.53,0,.75q0,.65,0,1A1.88,1.88,0,0,1,199.89,152.94Z" style="fill:#263238"></path><ellipse cx="178.54" cy="318.87" rx="21.32" ry="21.27" style="fill:#f5f5f5"></ellipse><path d="M168.58,324.2l5.58-.48,13.63,2.3,1.61,10.25-.23,1.2a21.39,21.39,0,0,1-20.2.46l-.39-13.73" style="fill:#455a64"></path><path d="M184.88,325.86A7.3,7.3,0,0,1,192,329a38.66,38.66,0,0,1,2.53,4c-2.41,2.25-4.08,4.2-7.1,5.32Z" style="fill:#455a64"></path><path d="M168.58,324.2s-3.69.45-5.12,3.59-1.76,4.14-1.76,4.14c1.91,2.29,4.33,4.84,7.3,5.86,0,0,.69-7.76.78-10C169.88,325.34,170,324.13,168.58,324.2Z" style="fill:#455a64"></path><path d="M172,304.05a10.09,10.09,0,0,1,7.81-3.88,10.93,10.93,0,0,1,3.79.68,5.56,5.56,0,0,1,3.19,2.11,9.3,9.3,0,0,1,1.84,4.28c.18,1.6.46,3.22.54,5.23.07,1.61.13,3.9.32,6.72l.52,5.65c-1.21,0-20.5-1.83-22-1.81,0,0,.65-6.32.92-9.28C169.43,308.28,170,306.48,172,304.05Z" style="fill:#263238"></path><path d="M183.18,325.12l0-3.79s3.34-.37,4.26-4.64a45.45,45.45,0,0,0,.52-8.53c0-2.59-2.23-6.13-5.44-6.14l-1.43-.17L175.61,304a1.53,1.53,0,0,0-1.45,1.46L174,323.74l1.75,1.87a4.8,4.8,0,0,0,7.43-.49Z" style="fill:#a26760"></path><path d="M181,315.69a.87.87,0,0,1,.31-.56.93.93,0,0,1,1.13-.07,1.25,1.25,0,0,1,.48,1.17h0a1.14,1.14,0,0,1-.81.47H182a1,1,0,0,1-.68-.27A.9.9,0,0,1,181,315.69Z" style="fill:#7b4b45"></path><path d="M186.67,311.38a.56.56,0,0,1-.56.53.54.54,0,0,1-.55-.53.56.56,0,0,1,.57-.53A.53.53,0,0,1,186.67,311.38Z" style="fill:#263238"></path><path d="M186.88,309.76c-.07.07-.48-.26-1.07-.3s-1.05.25-1.11.17,0-.16.24-.29a1.61,1.61,0,0,1,.9-.22,1.42,1.42,0,0,1,.84.33C186.86,309.6,186.91,309.73,186.88,309.76Z" style="fill:#263238"></path><path d="M183.13,314.27a3.56,3.56,0,0,1,1-.12c.15,0,.3,0,.33-.14a.74.74,0,0,0-.08-.45l-.38-1.18a19.3,19.3,0,0,1-.85-3.08,18.59,18.59,0,0,1,1.09,3l.37,1.19a.87.87,0,0,1,0,.6.4.4,0,0,1-.27.21,1.23,1.23,0,0,1-.26,0A4.21,4.21,0,0,1,183.13,314.27Z" style="fill:#263238"></path><path d="M183.16,321.33a11,11,0,0,1-5.7-1.86s1.37,3.08,5.72,2.91Z" style="fill:#7b4b45"></path><path d="M181.35,314.58c.1,0,.07.65.6,1.14s1.22.45,1.22.54-.16.12-.45.11a1.6,1.6,0,0,1-1-.42,1.41,1.41,0,0,1-.45-.95C181.23,314.73,181.31,314.58,181.35,314.58Z" style="fill:#263238"></path><path d="M186.76,307.52c-.11.14-.56,0-1.1,0s-1,.13-1.09,0,0-.2.21-.34a1.61,1.61,0,0,1,.88-.25,1.54,1.54,0,0,1,.88.23C186.74,307.31,186.81,307.45,186.76,307.52Z" style="fill:#263238"></path><path d="M179.76,311.34a.56.56,0,0,0,.53.57.54.54,0,0,0,.58-.49.55.55,0,0,0-.52-.57A.54.54,0,0,0,179.76,311.34Z" style="fill:#263238"></path><path d="M178.71,309.55c.07.07.49-.23,1.09-.22s1,.32,1.09.25,0-.17-.22-.31a1.54,1.54,0,0,0-.87-.29,1.45,1.45,0,0,0-.87.27C178.74,309.39,178.68,309.51,178.71,309.55Z" style="fill:#263238"></path><path d="M178.67,307.87c.12.14.58,0,1.13,0s1,.11,1.13,0,0-.2-.22-.34a1.68,1.68,0,0,0-.92-.23,1.73,1.73,0,0,0-.91.25C178.69,307.67,178.62,307.81,178.67,307.87Z" style="fill:#263238"></path><path d="M174.9,312.73c0-.32-.31-1.1-.62-1.17a1.88,1.88,0,0,0-2.51,2,2.22,2.22,0,0,0,2.82,2.43C174.6,315.88,174.85,313.84,174.9,312.73Z" style="fill:#a26760"></path><path d="M173.85,314.83s-.06,0-.15.06a.5.5,0,0,1-.38,0,1.28,1.28,0,0,1-.52-1.18A1.71,1.71,0,0,1,173,313a.59.59,0,0,1,.41-.37.25.25,0,0,1,.29.16.43.43,0,0,1,0,.15s.07-.05.05-.17a.35.35,0,0,0-.1-.19.38.38,0,0,0-.28-.09.71.71,0,0,0-.57.42,1.74,1.74,0,0,0-.22.81,1.32,1.32,0,0,0,.67,1.31.51.51,0,0,0,.47-.05C173.84,314.9,173.86,314.83,173.85,314.83Z" style="fill:#7b4b45"></path><path d="M174.16,311.57l.74.78c3.23-3.09,9.55-10.81,9.19-10.35a9.38,9.38,0,0,0-4.61-.5c-2.4.4-7,1.6-6.89,4.43A14.64,14.64,0,0,0,174.16,311.57Z" style="fill:#263238"></path><path d="M169,338.14a22.27,22.27,0,0,1-.1-2.91,22.5,22.5,0,0,1,.1-2.92,42.54,42.54,0,0,1,0,5.83Z" style="fill:#263238"></path><path d="M189.18,337.69a6,6,0,0,1,0-1,11.63,11.63,0,0,0-.08-2.44,12.82,12.82,0,0,0-.69-2.34,5,5,0,0,1-.34-1,4.79,4.79,0,0,1,.47.91,10.11,10.11,0,0,1,.75,2.36,9.89,9.89,0,0,1,0,2.48A3.91,3.91,0,0,1,189.18,337.69Z" style="fill:#263238"></path><path d="M199.89,319a1.26,1.26,0,0,1,0-.34c0-.26,0-.59-.07-1,0-.23,0-.48-.05-.75s-.09-.57-.14-.89a16.42,16.42,0,0,0-.46-2.2,20.67,20.67,0,0,0-2.37-5.64,21.17,21.17,0,0,0-25.41-9,23.79,23.79,0,0,0-2.75,1.22A20.91,20.91,0,0,0,166,302a24.21,24.21,0,0,0-2.4,2,23.09,23.09,0,0,0-2.06,2.44,20.51,20.51,0,0,0-3,5.82,20.86,20.86,0,0,0,0,13.31,20.2,20.2,0,0,0,3,5.81,19,19,0,0,0,4.46,4.49,19.33,19.33,0,0,0,5.33,2.87,21.22,21.22,0,0,0,25.41-9,20.54,20.54,0,0,0,2.37-5.64,16.1,16.1,0,0,0,.46-2.2,11.37,11.37,0,0,0,.19-1.63c0-.42.06-.76.07-1a1.41,1.41,0,0,1,0-.35,1.88,1.88,0,0,1,0,.35c0,.26,0,.59,0,1a9.79,9.79,0,0,1-.14,1.65,14.53,14.53,0,0,1-.41,2.22,20.35,20.35,0,0,1-2.32,5.74,21.45,21.45,0,0,1-25.82,9.3,22.51,22.51,0,0,1-2.82-1.23,22,22,0,0,1-2.65-1.7,24,24,0,0,1-2.45-2.07,24.53,24.53,0,0,1-2.13-2.51,21,21,0,0,1-3.09-6,22.87,22.87,0,0,1-1.12-6.82,23.25,23.25,0,0,1,1.12-6.82,20.81,20.81,0,0,1,3.1-5.95,23.13,23.13,0,0,1,2.12-2.5,22.85,22.85,0,0,1,2.45-2.08,21.94,21.94,0,0,1,2.65-1.69,22.58,22.58,0,0,1,2.82-1.24,21.6,21.6,0,0,1,11.34-.9,21.37,21.37,0,0,1,9,4.06A21.59,21.59,0,0,1,197,308a20.23,20.23,0,0,1,2.32,5.74,15.86,15.86,0,0,1,.41,2.22c0,.32.09.62.12.9s0,.52,0,.75q0,.63,0,1A1.72,1.72,0,0,1,199.89,319Z" style="fill:#263238"></path><circle cx="178.54" cy="208.27" r="22.36" style="fill:#f5f5f5"></circle><path d="M177.65,190.07a1.79,1.79,0,0,1,1.86-.95,2.48,2.48,0,0,1,3.05,0,2.26,2.26,0,0,1,2.17-.07,2.23,2.23,0,0,1,1.17,1.82,1.91,1.91,0,0,1,1.94.94,1.88,1.88,0,0,1-.29,2.13,1.77,1.77,0,0,1-.69,3.45L178,192.13A1.8,1.8,0,0,1,177.65,190.07Z" style="fill:#e0e0e0"></path><path d="M187.12,197.64a7.51,7.51,0,0,0-7.57-6.78h-.39c-4.18.3-6.26,4-5.83,8.19l.8,13.93.05.67,9.68,1.8-.06-3.55s4-.69,4-4.71C187.8,205.26,187.46,201.26,187.12,197.64Z" style="fill:#ffbe9d"></path><path d="M183.83,211.9a9.74,9.74,0,0,1-5.29-1.47s1.28,2.88,5.29,2.46Z" style="fill:#eb996e"></path><path d="M186.11,201.37a.57.57,0,0,1-.55.58.53.53,0,0,1-.59-.51.56.56,0,0,1,.54-.58A.54.54,0,0,1,186.11,201.37Z" style="fill:#263238"></path><path d="M186.28,199.62c-.07.08-.51-.24-1.13-.23s-1.06.33-1.13.26,0-.17.23-.32a1.6,1.6,0,0,1,1.81,0C186.25,199.45,186.32,199.59,186.28,199.62Z" style="fill:#263238"></path><path d="M180.36,201.52a.57.57,0,0,1-.54.58.54.54,0,0,1-.6-.51.57.57,0,0,1,.54-.58A.54.54,0,0,1,180.36,201.52Z" style="fill:#263238"></path><path d="M180.21,199.83c-.07.07-.51-.24-1.13-.23s-1.06.32-1.13.25,0-.17.23-.32a1.58,1.58,0,0,1,.91-.29,1.5,1.5,0,0,1,.9.28C180.18,199.66,180.24,199.79,180.21,199.83Z" style="fill:#263238"></path><path d="M182.52,204.38a3.81,3.81,0,0,1,1-.2c.16,0,.31-.05.33-.16a.79.79,0,0,0-.11-.47c-.15-.37-.32-.77-.48-1.19a19.83,19.83,0,0,1-1.1-3.13,20.73,20.73,0,0,1,1.34,3c.17.42.32.82.47,1.21a.9.9,0,0,1,.09.61.41.41,0,0,1-.26.24,1.51,1.51,0,0,1-.26,0A4.74,4.74,0,0,1,182.52,204.38Z" style="fill:#263238"></path><path d="M180.71,204.83c.1,0,.11.66.69,1.13s1.29.39,1.3.48-.16.13-.46.14a1.59,1.59,0,0,1-1.08-.36,1.39,1.39,0,0,1-.54-.95C180.59,205,180.66,204.83,180.71,204.83Z" style="fill:#263238"></path><path d="M180.33,197.4c-.05.17-.67.1-1.4.2s-1.3.3-1.4.15.05-.23.29-.39a2.22,2.22,0,0,1,1-.38,2.34,2.34,0,0,1,1.1.11C180.22,197.19,180.36,197.32,180.33,197.4Z" style="fill:#e0e0e0"></path><path d="M186,197.84c-.11.14-.54,0-1.05,0s-.94.11-1,0,0-.21.21-.34a1.42,1.42,0,0,1,.84-.25,1.49,1.49,0,0,1,.84.27C186,197.63,186.08,197.77,186,197.84Z" style="fill:#e0e0e0"></path><path d="M186.7,195.8s-1.09-2.5-2.32-3.07c-1.48-.69-2.09.93-3.49.56s-2.82-1-4.24.07-.8,2-.87,3.82c-.29,7.24-1.58,9.3-2,5.9,0-.37-1.08-.65-1.26-2.23a17.87,17.87,0,0,1,.09-6,5.72,5.72,0,0,1,2.29-3c2-1.5,4.67-1.58,6.51-1.42S186.83,192.65,186.7,195.8Z" style="fill:#e0e0e0"></path><path d="M174,203a1.1,1.1,0,0,0-1.19-1c-.75.09-1.58.52-1.51,2.07a2.07,2.07,0,0,0,2.86,2C174.19,205.92,174.09,204.12,174,203Z" style="fill:#ffbe9d"></path><path d="M173.55,205s-.05,0-.13.08a.47.47,0,0,1-.36,0,1.2,1.2,0,0,1-.6-1,1.7,1.7,0,0,1,.11-.69.53.53,0,0,1,.34-.38.25.25,0,0,1,.29.12c0,.07,0,.13,0,.13s.06-.05,0-.16a.32.32,0,0,0-.12-.17.39.39,0,0,0-.27-.06.69.69,0,0,0-.48.45,1.67,1.67,0,0,0-.13.78,1.25,1.25,0,0,0,.76,1.15.51.51,0,0,0,.43-.09A.26.26,0,0,0,173.55,205Z" style="fill:#eb996e"></path><path d="M174,197.64a2.63,2.63,0,0,0,1.17.52.89.89,0,0,0,1-.64c0-.2,0-.42.11-.57s.42-.12.65-.1a1.78,1.78,0,0,0,1.81-1.29.73.73,0,0,0,1,.08,3.82,3.82,0,0,0,.74-.81,1.15,1.15,0,0,1,.94-.49,2.47,2.47,0,0,0,.6.13c.36,0,.53-.47.58-.83s.08-.77.39-1a1.37,1.37,0,0,1,1,0c.33,0,.76,0,.84-.37a.66.66,0,0,0-.13-.5,1.79,1.79,0,0,0-2.11-.64,2.41,2.41,0,0,0-4.44-.4,2.44,2.44,0,0,0-3.9.95,1.82,1.82,0,0,0-1.85.65,1.85,1.85,0,0,0-.12,2,1.7,1.7,0,0,0-.91,1.35,1,1,0,0,0,1.11,1,1,1,0,0,0,1.72,1" style="fill:#e0e0e0"></path><path d="M172.23,196.6a.66.66,0,0,0,.18.53.88.88,0,0,0,.56.32,1,1,0,0,0,.78-.24l-.12,0a2.54,2.54,0,0,0,.56.68,1.52,1.52,0,0,0,.5.3,1.19,1.19,0,0,0,1.34-.42,1.54,1.54,0,0,0,.22-.57.8.8,0,0,0,0-.23s0,.08-.08.21a2.19,2.19,0,0,1-.25.53,1.12,1.12,0,0,1-1.65.06,2.62,2.62,0,0,1-.53-.64l0-.08-.07.07a.83.83,0,0,1-.66.22.78.78,0,0,1-.5-.26A1.31,1.31,0,0,1,172.23,196.6Z" style="fill:#fff"></path><path d="M177.33,190.25a1.57,1.57,0,0,1,.2.07.93.93,0,0,1,.43.35l0,.05,0-.05a3.33,3.33,0,0,1,1.32-1.09,2.64,2.64,0,0,1,1.07-.26,2.32,2.32,0,0,1,1.88,1,1.84,1.84,0,0,1,.31.82v.09l.08,0a1.54,1.54,0,0,1,1.15.13,1.42,1.42,0,0,1,.63.66,2.16,2.16,0,0,1,.19.81,1.45,1.45,0,0,0,0-.23,1.43,1.43,0,0,0-.14-.62,1.53,1.53,0,0,0-.65-.73,1.69,1.69,0,0,0-1.25-.16l.1.07a2,2,0,0,0-.34-.9,2.29,2.29,0,0,0-.75-.7,2.37,2.37,0,0,0-1.25-.33,2.73,2.73,0,0,0-1.13.28,3.41,3.41,0,0,0-1.33,1.17H178a1,1,0,0,0-.49-.35C177.41,190.23,177.33,190.24,177.33,190.25Z" style="fill:#fff"></path><path d="M179.77,205.24s0-.29.28-.53.51-.29.51-.33-.08,0-.2,0a.8.8,0,0,0-.42.24.83.83,0,0,0-.21.45C179.72,205.17,179.75,205.25,179.77,205.24Z" style="fill:#eb996e"></path><path d="M179.51,204.49s.14-.08.28-.14.28-.09.29-.14-.16-.1-.35,0S179.47,204.47,179.51,204.49Z" style="fill:#eb996e"></path><path d="M176.32,211s0,0-.07-.07a.24.24,0,0,1,0-.25c0-.1.16-.19.25-.37a.36.36,0,0,0,0-.32,1.15,1.15,0,0,0-.18-.23c-.21-.28.41-.47.32-.82a.4.4,0,0,0-.15-.29.19.19,0,0,0-.11-.05s.15.11.15.34a.44.44,0,0,1-.2.33.71.71,0,0,0-.18.23.34.34,0,0,0,0,.35,2,2,0,0,1,.17.21.18.18,0,0,1,0,.19c0,.14-.17.25-.22.39a.31.31,0,0,0,.07.33C176.27,211,176.33,211,176.32,211Z" style="fill:#eb996e"></path><path d="M175.47,210.85s0,0,0-.1a.73.73,0,0,1,.15-.23,1.42,1.42,0,0,0,.11-.18.4.4,0,0,0,0-.27c-.05-.2-.21-.32-.29-.46s0-.26.1-.38a.7.7,0,0,0,.15-.2.49.49,0,0,0,0-.23c0-.28-.22-.37-.22-.35s.12.13.11.35a.44.44,0,0,1-.18.33.6.6,0,0,0-.17.23.39.39,0,0,0,0,.33c.11.18.26.29.29.42a.48.48,0,0,1-.11.34.94.94,0,0,0-.12.29C175.44,210.81,175.46,210.85,175.47,210.85Z" style="fill:#eb996e"></path><path d="M193.85,219.69c-1.45-2.77-5.26-4.35-5.26-4.35l1.19,12.45a24.94,24.94,0,0,0,5.55-4.68S195.3,222.46,193.85,219.69Z" style="fill:#455a64"></path><path d="M190.34,217.18a3.57,3.57,0,0,1-.18.53c-.12.32-.28.77-.44,1.27s-.27,1-.36,1.3a5.48,5.48,0,0,1-.14.54s0-.06,0-.15,0-.23.08-.4a12.9,12.9,0,0,1,.34-1.31,11.62,11.62,0,0,1,.46-1.27c.06-.16.12-.29.16-.38Z" style="fill:#263238"></path><path d="M188.59,215.34l-4.89-1.25c-3.26,1.3-6.48.55-9.67-1.46l-8.41,3.57a7.09,7.09,0,0,0-3.39,5l-.54,1.8a20.29,20.29,0,0,0,7.06,5.52,23.41,23.41,0,0,0,21-.7Z" style="fill:#455a64"></path><path d="M169.36,226s0-.77,0-1.71,0-1.72,0-1.72,0,.77,0,1.72S169.38,226,169.36,226Z" style="fill:#263238"></path><path d="M168.38,220.88a1.38,1.38,0,0,1-.06-.19c0-.13-.09-.3-.16-.52a7.91,7.91,0,0,0-.74-1.63,8.28,8.28,0,0,0-1.06-1.44l-.38-.39-.14-.15.16.12c.1.09.24.21.4.38a7.87,7.87,0,0,1,1.09,1.44,7.61,7.61,0,0,1,.73,1.65c.06.22.11.4.13.53S168.39,220.88,168.38,220.88Z" style="fill:#263238"></path><path d="M200.63,208.54a1.45,1.45,0,0,1,0-.36c0-.26,0-.61-.08-1.05,0-.23,0-.49-.05-.77s-.09-.59-.14-.92a16.18,16.18,0,0,0-.47-2.27,21.35,21.35,0,0,0-2.46-5.84A21.88,21.88,0,0,0,171.09,188a21.63,21.63,0,0,0-2.85,1.25,22.42,22.42,0,0,0-2.67,1.72,23.46,23.46,0,0,0-2.48,2.11,26.22,26.22,0,0,0-2.14,2.53,21.25,21.25,0,0,0-3.12,6,21.72,21.72,0,0,0,0,13.77,21.12,21.12,0,0,0,3.12,6,25,25,0,0,0,2.14,2.54,24.6,24.6,0,0,0,2.48,2.1,23.83,23.83,0,0,0,2.67,1.73,23,23,0,0,0,2.85,1.25,22,22,0,0,0,11.49,1,21.68,21.68,0,0,0,9.21-4.07,21.93,21.93,0,0,0,5.59-6.21,21.18,21.18,0,0,0,2.46-5.83,16,16,0,0,0,.47-2.28c.05-.33.11-.64.14-.92s0-.54.05-.77c0-.44.06-.78.08-1.05a1.41,1.41,0,0,1,0-.35,2,2,0,0,1,0,.36l0,1q0,.35,0,.78c0,.28-.08.59-.12.92A14.55,14.55,0,0,1,200,214a20.75,20.75,0,0,1-2.4,5.93,22.23,22.23,0,0,1-15,10.56,22.42,22.42,0,0,1-11.72-.94,24.11,24.11,0,0,1-2.92-1.27,23.56,23.56,0,0,1-2.74-1.76,25.58,25.58,0,0,1-2.54-2.15,25,25,0,0,1-2.19-2.59,21.42,21.42,0,0,1-3.2-6.15,22.22,22.22,0,0,1,0-14.11,21.81,21.81,0,0,1,3.2-6.15,26,26,0,0,1,2.19-2.59,25.58,25.58,0,0,1,2.54-2.15,23.47,23.47,0,0,1,2.74-1.75,22.7,22.7,0,0,1,2.92-1.28,22.31,22.31,0,0,1,11.72-.93,22.24,22.24,0,0,1,15,10.55,20.69,20.69,0,0,1,2.4,5.94,14.65,14.65,0,0,1,.43,2.3c0,.34.1.64.12.93s0,.54,0,.78l0,1.05A2,2,0,0,1,200.63,208.54Z" style="fill:#263238"></path><circle cx="178.74" cy="263.72" r="21.99" transform="translate(-134.12 203.63) rotate(-45)" style="fill:#f5f5f5"></circle><path d="M186.31,250.45a5.65,5.65,0,0,0-2.81-3.34,7.17,7.17,0,0,0-4.81-.45,15,15,0,0,0-4.48,2,7.46,7.46,0,0,0-2.12,1.75,10.59,10.59,0,0,0-2,5.22,18.63,18.63,0,0,0,1.18,6,3.1,3.1,0,0,0,1.34,1.14,11.57,11.57,0,0,0,2.55,3.18l.87-2.76Z" style="fill:#263238"></path><path d="M185.48,248.8l-2.69-.4c1.56,3.44,2.18,11.4,3.12,15.06,1-1.46,3.12-5.89,2.94-7.62S188.65,248.41,185.48,248.8Z" style="fill:#263238"></path><path d="M173,255a4.55,4.55,0,0,1,3.31-4.3l6.12-1.75c2.66-.37,4.53,2.86,4.78,5.53a41.72,41.72,0,0,1,.2,8.32c-.57,4.48-4,5.15-4,5.15s.06,2.12.1,3.42l-1,5.83-8.06-6.88L172.94,255C172.94,254.94,173,255.06,173,255Z" style="fill:#ffbe9d"></path><path d="M186.48,258.3a.58.58,0,0,1-.53.6.56.56,0,0,1-.61-.5.58.58,0,0,1,.53-.6A.56.56,0,0,1,186.48,258.3Z" style="fill:#263238"></path><path d="M186.55,256.2c-.07.08-.51-.23-1.13-.21s-1,.34-1.12.27,0-.17.22-.32a1.57,1.57,0,0,1,.9-.3,1.48,1.48,0,0,1,.9.26C186.51,256,186.58,256.17,186.55,256.2Z" style="fill:#263238"></path><path d="M180.72,258.3a.58.58,0,0,1-.53.6.56.56,0,0,1-.61-.5.58.58,0,0,1,.54-.6A.55.55,0,0,1,180.72,258.3Z" style="fill:#263238"></path><path d="M180.71,256.37c-.07.07-.51-.23-1.13-.21s-1.05.34-1.12.27,0-.17.22-.32a1.57,1.57,0,0,1,.9-.31,1.51,1.51,0,0,1,.9.26C180.67,256.2,180.74,256.33,180.71,256.37Z" style="fill:#263238"></path><path d="M182.77,261.14a4.69,4.69,0,0,1,1-.21c.16,0,.31-.05.33-.16a.83.83,0,0,0-.12-.46c-.16-.38-.33-.77-.5-1.19a19.86,19.86,0,0,1-1.14-3.09,20,20,0,0,1,1.39,3c.16.41.33.81.48,1.18a1,1,0,0,1,.1.62.4.4,0,0,1-.25.24,1.47,1.47,0,0,1-.27,0A3.76,3.76,0,0,1,182.77,261.14Z" style="fill:#263238"></path><path d="M177.45,266.49s1.54,3,6,2.47l0-1A11.27,11.27,0,0,1,177.45,266.49Z" style="fill:#eb996e"></path><path d="M180.45,254.15c0,.17-.67.11-1.39.22s-1.29.32-1.39.18.05-.23.28-.4a2.29,2.29,0,0,1,1-.4,2.34,2.34,0,0,1,1.1.1C180.34,253.94,180.48,254.07,180.45,254.15Z" style="fill:#263238"></path><path d="M186.3,254.33c-.11.14-.54,0-1.05,0s-.93.12-1,0,0-.22.2-.35a1.45,1.45,0,0,1,.84-.26,1.42,1.42,0,0,1,.84.26C186.28,254.11,186.34,254.26,186.3,254.33Z" style="fill:#263238"></path><path d="M185.84,250.4a2,2,0,0,0-1.76-1.06,3.86,3.86,0,0,0-2,.66c-2.61,1.61-3.87,5.35-6.44,7-.64.41-1.49.08-2,.61a1.87,1.87,0,0,0-.54,2.05,6.14,6.14,0,0,1-1-1.51,2.11,2.11,0,0,1,0-1.74c.21-.4.6-.71.7-1.15a6,6,0,0,0-.07-1.19,2.52,2.52,0,0,1,.37-1.15,11.64,11.64,0,0,1,4.13-4.61,7.54,7.54,0,0,1,3.89-1.12,5.78,5.78,0,0,1,3.76,1.37c.6.53,1.23,1.08,1,1.83" style="fill:#263238"></path><path d="M173.66,258.17a1.56,1.56,0,0,0-2.36,1.58,1.81,1.81,0,0,0,2.45,1.79C173.75,261.47,173.66,258.17,173.66,258.17Z" style="fill:#ffbe9d"></path><path d="M173,260.64s0,0-.11.06a.4.4,0,0,1-.31,0,1,1,0,0,1-.5-.92,1.29,1.29,0,0,1,.11-.6c.07-.18.18-.31.3-.33a.21.21,0,0,1,.25.11c0,.07,0,.11,0,.12s0,0,0-.14a.27.27,0,0,0-.09-.15.32.32,0,0,0-.24-.06.62.62,0,0,0-.43.38,1.5,1.5,0,0,0-.13.68,1.08,1.08,0,0,0,.63,1,.44.44,0,0,0,.38-.07C173,260.7,173,260.64,173,260.64Z" style="fill:#eb996e"></path><path d="M172.67,257l.14-.09c.09-.06.23-.14.4-.27a8.86,8.86,0,0,0,1.26-1.21,23,23,0,0,0,1.52-2.11,19.7,19.7,0,0,1,1.91-2.52,8.1,8.1,0,0,1,1.25-1.05,6.62,6.62,0,0,1,1.37-.66,6.89,6.89,0,0,1,2.53-.39,6.7,6.7,0,0,1,1.71.29c.2,0,.35.12.45.15l.16,0-.15-.07c-.1,0-.25-.11-.44-.17a5.92,5.92,0,0,0-1.73-.32,6.83,6.83,0,0,0-2.57.36,6.26,6.26,0,0,0-1.38.67,7.14,7.14,0,0,0-1.27,1.07,18.24,18.24,0,0,0-1.92,2.54c-.54.81-1,1.54-1.5,2.11a8.76,8.76,0,0,1-1.23,1.23c-.16.13-.3.22-.38.28S172.67,257,172.67,257Z" style="fill:#fff"></path><path d="M173.29,257.63a3.66,3.66,0,0,0,.29,1.92,1.28,1.28,0,0,0,1.66.61,1.83,1.83,0,0,0,.64-1.41c.18-1.54.24-3.09.44-4.62Z" style="fill:#263238"></path><path d="M185.22,249.28a5.77,5.77,0,0,0-.6,0,4.08,4.08,0,0,0-1.58.34,5.05,5.05,0,0,0-1,.54,10.15,10.15,0,0,0-1,.81,12.15,12.15,0,0,0-1.95,2.22c-.3.44-.55.89-.83,1.31a6.34,6.34,0,0,1-.94,1.11,10.53,10.53,0,0,1-2,1.41c-.6.34-1.11.58-1.46.75l-.4.19-.15.05.14-.08.39-.21c.34-.18.84-.43,1.44-.78a10.9,10.9,0,0,0,1.95-1.43,6.57,6.57,0,0,0,.91-1.09c.27-.41.53-.86.82-1.3a12.17,12.17,0,0,1,2-2.24,10.09,10.09,0,0,1,1-.81,4.94,4.94,0,0,1,1-.54,4,4,0,0,1,1.62-.3,3.17,3.17,0,0,1,.45.05Z" style="fill:#455a64"></path><path d="M173.18,256.15s-.07.06-.21.15l-.59.37-.2.12a.58.58,0,0,1-.27.1.3.3,0,0,1-.16,0,.22.22,0,0,1-.09-.16.52.52,0,0,1,.1-.31c.21-.35.43-.74.68-1.15l.09.09a2.78,2.78,0,0,1-.76.41,2.5,2.5,0,0,1-.85.12.83.83,0,0,1-.22,0,.27.27,0,0,1-.19-.16.25.25,0,0,1,0-.24,1,1,0,0,1,.13-.15,4.92,4.92,0,0,0,.79-1.06,9.16,9.16,0,0,0,.49-1.12,1.17,1.17,0,0,1-.07.33,4.58,4.58,0,0,1-.34.84,4.65,4.65,0,0,1-.78,1.09c-.09.09-.17.19-.13.26s.16.11.29.11a2.28,2.28,0,0,0,.81-.12,2.47,2.47,0,0,0,.72-.38l.28-.22-.18.3-.69,1.14a.45.45,0,0,0-.09.24c0,.07.06.11.14.1a1.33,1.33,0,0,0,.42-.19l.62-.34Z" style="fill:#fff"></path><path d="M180.46,262.34a.81.81,0,0,1,.81-.63.84.84,0,0,1,.66.44,1,1,0,0,1,.06.8V263a.9.9,0,0,1-1,.25A.86.86,0,0,1,180.46,262.34Z" style="fill:#eb996e"></path><path d="M182.43,263c0-.09-.63,0-1.11-.54s-.46-1.17-.55-1.16-.11.15-.1.43a1.65,1.65,0,0,0,.43,1,1.36,1.36,0,0,0,.92.41C182.29,263.13,182.43,263.05,182.43,263Z" style="fill:#263238"></path><path d="M170.08,270l4.27-.36s2.36,3.11,5.56,2.87,3.55-2.39,3.55-2.39,5.72,1.1,8.82,4.38l.07.09,2.32,4.11c-1.94,1.75-3.68,3.66-5.76,4.52a23.62,23.62,0,0,1-20.54-.06Z" style="fill:#6F35A5"></path><path d="M170.16,269.93a12.72,12.72,0,0,0-3.57,1.16c-3,1.77-4.56,7.14-4.56,7.14a23.43,23.43,0,0,0,7.33,5.3,24.62,24.62,0,0,0,3.29-6.11,21.78,21.78,0,0,0-.28-4.21S170.16,270,170.16,269.93Z" style="fill:#6F35A5"></path><path d="M190.49,282.39c-.07,0-.07-.69-.26-1.49s-.49-1.43-.43-1.46a3.33,3.33,0,0,1,.63,1.41A3.08,3.08,0,0,1,190.49,282.39Z" style="fill:#263238"></path><path d="M169.36,283.48a8.61,8.61,0,0,1,.21-1.16,27.88,27.88,0,0,0,.4-2.8c.09-1.11.11-2.11.12-2.84a8.81,8.81,0,0,1,0-1.18,5,5,0,0,1,.12,1.18,20.34,20.34,0,0,1-.06,2.85,17.42,17.42,0,0,1-.46,2.82A4.65,4.65,0,0,1,169.36,283.48Z" style="fill:#263238"></path><path d="M200.53,263.61a1.41,1.41,0,0,1-.05-.35c0-.26,0-.61-.08-1.05,0-.23,0-.49-.05-.77s-.09-.59-.14-.92a17.07,17.07,0,0,0-.47-2.27,21.23,21.23,0,0,0-2.46-5.84,21.93,21.93,0,0,0-5.59-6.21,21.67,21.67,0,0,0-9.22-4.07,21.94,21.94,0,0,0-11.48,1,23.12,23.12,0,0,0-2.85,1.26,22.42,22.42,0,0,0-2.67,1.72,23.46,23.46,0,0,0-2.48,2.11,24.86,24.86,0,0,0-2.14,2.53,21.2,21.2,0,0,0-3.12,6,21.57,21.57,0,0,0,0,13.78,21,21,0,0,0,3.12,6,23.64,23.64,0,0,0,2.14,2.53,24.4,24.4,0,0,0,2.47,2.11,23.37,23.37,0,0,0,2.68,1.72,23.12,23.12,0,0,0,2.85,1.26,21.94,21.94,0,0,0,11.48,1,21.67,21.67,0,0,0,9.22-4.07,21.93,21.93,0,0,0,5.59-6.21,21.35,21.35,0,0,0,2.46-5.84,17.4,17.4,0,0,0,.47-2.27c0-.33.11-.64.14-.92s0-.54.05-.77c0-.44.06-.79.08-1a1.58,1.58,0,0,1,.05-.36,3.33,3.33,0,0,1,0,.36c0,.27,0,.61,0,1.06,0,.23,0,.49,0,.77s-.08.6-.12.93a14.65,14.65,0,0,1-.43,2.3,21,21,0,0,1-2.4,5.94,22.29,22.29,0,0,1-15,10.56,22.42,22.42,0,0,1-11.72-.94,20.76,20.76,0,0,1-5.66-3,24.49,24.49,0,0,1-2.54-2.15,26,26,0,0,1-2.19-2.59,21.55,21.55,0,0,1-3.2-6.15,22,22,0,0,1,0-14.11,21.42,21.42,0,0,1,3.2-6.15,25,25,0,0,1,2.19-2.59,24.49,24.49,0,0,1,2.54-2.15,23.47,23.47,0,0,1,2.74-1.75,22.7,22.7,0,0,1,2.92-1.28,22.42,22.42,0,0,1,11.72-.94,22.29,22.29,0,0,1,15,10.56,21,21,0,0,1,2.4,5.94,14.65,14.65,0,0,1,.43,2.3c0,.33.1.64.12.93s0,.54,0,.77c0,.44,0,.79,0,1.06A3.09,3.09,0,0,1,200.53,263.61Z" style="fill:#263238"></path></g><g id="freepik--speech-bubble--inject-59"><path d="M414.55,132.38l8.87-1.09a28,28,0,1,0-6.06-8h0Z" style="fill:#fff"></path><path d="M414.55,132.38s0-.19.15-.57l.51-1.74c.47-1.57,1.15-3.87,2-6.85a.11.11,0,0,1,.14-.07.09.09,0,0,1,.05,0h0l-.18.13a28,28,0,0,1-3.06-13.55,27.37,27.37,0,0,1,1.73-8.86,28.28,28.28,0,0,1,25.76-18.49,28.27,28.27,0,0,1,23,11,27.89,27.89,0,0,1,5.49,12.41,28.85,28.85,0,0,1-.74,12.94,28,28,0,0,1-6,10.65,28.46,28.46,0,0,1-9.05,6.77A28.15,28.15,0,0,1,435.51,138a27.81,27.81,0,0,1-12.17-6.62l.09,0-6.65.75-1.68.18-.55,0,.59-.09,1.71-.23,6.55-.88a.12.12,0,0,1,.09,0,27.89,27.89,0,0,0,39.65-2.15A27.51,27.51,0,0,0,469,118.58a28.12,28.12,0,0,0,.71-12.71,27.38,27.38,0,0,0-5.39-12.17,27.76,27.76,0,0,0-48,7.35,27.4,27.4,0,0,0-1.76,8.73,28,28,0,0,0,2.92,13.44.11.11,0,0,1,0,.15.11.11,0,0,1-.14,0h0l.2,0L415.32,130c-.25.76-.44,1.34-.57,1.75Z" style="fill:#263238"></path><path d="M446.7,112.74a5.77,5.77,0,0,0,3.45-5.34,5.44,5.44,0,1,0-10.85-.05,5.76,5.76,0,0,0,3.46,5.39c-3.41.5-6.53,4.26-6.89,7h17.54C453.41,117.31,450.13,113.65,446.7,112.74Z" style="fill:#263238"></path><path d="M431.12,113.08a1.15,1.15,0,0,1-1.15-1.16v-6.11a1.16,1.16,0,1,1,2.31,0v6.11A1.16,1.16,0,0,1,431.12,113.08Z" style="fill:#263238"></path><path d="M434.18,110h-6.12a1.16,1.16,0,0,1,0-2.31h6.12a1.16,1.16,0,0,1,0,2.31Z" style="fill:#263238"></path></g><g id="freepik--Plant--inject-59"><path d="M80.73,359.86V347.6c-15.31,0-12.75-9.47-12.75-41,0-21.63.67-33.1-8-33.1-8,0-9.9,5.6-9.9,30.21C50.11,349.32,56.19,359.86,80.73,359.86Z" style="fill:#455a64"></path><path d="M96.69,397.84V385.57c15.31,0,12.75-9.46,12.75-41,0-21.62-.67-33.1,8-33.1,8,0,9.89,5.6,9.89,30.21C127.31,387.3,121.23,397.84,96.69,397.84Z" style="fill:#455a64"></path><g style="opacity:0.30000000000000004"><polygon points="102.05 385 104.44 397.38 100.28 397.75 99.66 385.42 102.05 385"></polygon></g><path d="M89.13,234.68C77,234.68,77.91,250.54,77.91,270V424.4h22.44V270C100.35,250.54,101.25,234.68,89.13,234.68Z" style="fill:#455a64"></path><path d="M82.61,424.89s0-.17,0-.5,0-.83,0-1.44c0-1.31,0-3.18,0-5.58,0-4.86.07-11.85.12-20.48.17-17.32.39-41.21.64-67.59s.6-50.27.8-67.6c.06-4.32.11-8.24.37-11.67a56.35,56.35,0,0,1,1.25-8.74A35.76,35.76,0,0,1,87.41,236c.23-.6.45-1,.58-1.33s.22-.44.22-.44,0,.16-.17.46-.31.75-.52,1.35A39.12,39.12,0,0,0,86,241.34a60,60,0,0,0-1.15,8.71c-.22,3.42-.24,7.33-.27,11.66-.17,17.32-.39,41.21-.64,67.6s-.6,50.26-.8,67.58c-.13,8.63-.24,15.62-.31,20.49,0,2.39-.09,4.27-.11,5.57,0,.61,0,1.09,0,1.45S82.61,424.89,82.61,424.89Z" style="fill:#263238"></path><path d="M92.74,424.66s0-.16,0-.49,0-.83,0-1.44v-5.55c0-4.84,0-11.8.09-20.4.13-17.25.31-41,.52-67.3s.51-50.06.68-67.31c.06-4.3.09-8.19-.06-11.61a74,74,0,0,0-.8-8.72c-.38-2.37-.82-4.19-1.14-5.41-.16-.59-.29-1.05-.38-1.39s-.12-.48-.12-.48a37.55,37.55,0,0,1,1.85,7.25,71.54,71.54,0,0,1,.91,8.74c.18,3.42.17,7.32.15,11.63-.14,17.25-.32,41-.52,67.31s-.51,50.05-.69,67.3c-.11,8.59-.21,15.55-.27,20.39,0,2.39-.08,4.25-.11,5.55,0,.61,0,1.09,0,1.44S92.74,424.66,92.74,424.66Z" style="fill:#263238"></path><path d="M100.59,397.63a33.83,33.83,0,0,1-.51-6.25,36.58,36.58,0,0,1,.07-6.27,33.6,33.6,0,0,1,.5,6.25A35.92,35.92,0,0,1,100.59,397.63Z" style="fill:#263238"></path><path d="M118,311.65a5,5,0,0,1,.06.88c0,.64,0,1.48.06,2.54,0,2.26.06,5.43.11,9.33,0,7.93.11,18.79.17,30.78,0,6,0,11.79-1.07,16.94a27.75,27.75,0,0,1-5.71,12.57,19.08,19.08,0,0,1-7.41,5.63,12.51,12.51,0,0,1-3.31.91c0-.08,1.21-.24,3.22-1.11a19.36,19.36,0,0,0,7.19-5.69,27.58,27.58,0,0,0,5.5-12.41c1-5.09,1.06-10.83,1-16.84V324.4c0-3.9.05-7.07.06-9.33,0-1.06,0-1.9,0-2.54A5,5,0,0,1,118,311.65Z" style="fill:#263238"></path><path d="M77.89,347.13a85.72,85.72,0,0,1,0,14.09,88.77,88.77,0,0,1,0-14.09Z" style="fill:#263238"></path><path d="M59.42,273.55a6.2,6.2,0,0,1,0,.9c0,.64,0,1.5,0,2.58-.07,2.3-.16,5.52-.27,9.48-.24,8-.7,19.07-.54,31.28.14,6.1.09,12,1.36,17.09a28.81,28.81,0,0,0,5.91,12.49,17.68,17.68,0,0,0,7.65,5.27,22.49,22.49,0,0,0,3.38.73,10.45,10.45,0,0,1-3.44-.52,17.38,17.38,0,0,1-7.89-5.21A28.82,28.82,0,0,1,59.44,335c-1.32-5.2-1.28-11.1-1.42-17.2-.16-12.24.36-23.3.7-31.3.19-4,.35-7.18.46-9.48q.09-1.62.15-2.58A5.31,5.31,0,0,1,59.42,273.55Z" style="fill:#263238"></path><g style="opacity:0.30000000000000004"><path d="M74.85,359.62,75.31,347l2.61.45,0,12.35S75.31,359.66,74.85,359.62Z"></path></g><path d="M52.55,315.23a7,7,0,0,1-2.67.68,6.88,6.88,0,0,1-2.75.13,6.78,6.78,0,0,1,2.66-.69A6.83,6.83,0,0,1,52.55,315.23Z" style="fill:#263238"></path><path d="M52.28,303a7.14,7.14,0,0,1-2.77-.27,6.89,6.89,0,0,1-2.66-.82,7,7,0,0,1,2.77.26A6.81,6.81,0,0,1,52.28,303Z" style="fill:#263238"></path><path d="M47.4,283.5a5.6,5.6,0,0,1,2.73,1.18c1.39.92,2.26,2,2.15,2.08a14.25,14.25,0,0,1-2.46-1.6C48.49,284.27,47.33,283.66,47.4,283.5Z" style="fill:#263238"></path><path d="M55.26,271a7.66,7.66,0,0,1,1.35,2.61,7.86,7.86,0,0,1,.82,2.82,7.79,7.79,0,0,1-1.35-2.61A7.63,7.63,0,0,1,55.26,271Z" style="fill:#263238"></path><path d="M66.41,271.87a12.27,12.27,0,0,1-1.51,3.38,12.18,12.18,0,0,1-2,3.12A12.62,12.62,0,0,1,64.4,275,12,12,0,0,1,66.41,271.87Z" style="fill:#263238"></path><path d="M70.17,286.49a5.89,5.89,0,0,1-2.36.95,6,6,0,0,1-2.52.4,5.89,5.89,0,0,1,2.36-.95A6,6,0,0,1,70.17,286.49Z" style="fill:#263238"></path><path d="M63.93,302.21c-.11.11-.81-.47-1.56-1.3s-1.26-1.57-1.15-1.68.82.48,1.57,1.3S64.05,302.11,63.93,302.21Z" style="fill:#263238"></path><path d="M69.06,318c-.11.11-1.11-.64-2.23-1.7s-1.94-2-1.83-2.11,1.1.65,2.22,1.7S69.16,317.85,69.06,318Z" style="fill:#263238"></path><path d="M53.9,324.71c.11.12-.77,1.12-2,2.25a8,8,0,0,1-2.36,1.82c-.11-.11.77-1.12,2-2.24A8.4,8.4,0,0,1,53.9,324.71Z" style="fill:#263238"></path><path d="M55.8,338.54c-.15-.05,0-1,.41-2.12s.8-2,.95-1.94,0,1-.41,2.12S56,338.59,55.8,338.54Z" style="fill:#263238"></path><path d="M57.19,354.55a11.91,11.91,0,0,1,1.22-3.37A11.54,11.54,0,0,1,60.15,348a11.21,11.21,0,0,1-1.22,3.37A11,11,0,0,1,57.19,354.55Z" style="fill:#263238"></path><path d="M66.43,361.87a9.32,9.32,0,0,1,.27-3.17,8.86,8.86,0,0,1,.84-3.06,9.27,9.27,0,0,1-.27,3.16A9,9,0,0,1,66.43,361.87Z" style="fill:#263238"></path><path d="M71.27,337.66a6.08,6.08,0,0,1-2.63-.29,6.16,6.16,0,0,1-2.51-.85,6.38,6.38,0,0,1,2.63.3A6.42,6.42,0,0,1,71.27,337.66Z" style="fill:#263238"></path><path d="M70.17,328.24a4.53,4.53,0,0,1-2.22-.13c-1.2-.22-2.15-.53-2.12-.68s1-.1,2.22.12S70.2,328.08,70.17,328.24Z" style="fill:#263238"></path><g style="opacity:0.30000000000000004"><path d="M59.39,274.22c.39,0,.62,4.87.3,12.69-.14,3.91-.41,8.56-.72,13.71s-.66,10.8-.78,16.71a65.74,65.74,0,0,0,1.39,16.35,46.62,46.62,0,0,0,2,6.82,24.79,24.79,0,0,0,2.92,5.35,17.75,17.75,0,0,0,6.66,5.67c1.9.91,3.09,1.21,3,1.44s-1.28.24-3.46-.41a16.69,16.69,0,0,1-7.84-5.46,25,25,0,0,1-3.5-5.66,43.34,43.34,0,0,1-2.4-7.14,61.5,61.5,0,0,1-1.69-17c.13-6,.57-11.69,1-16.84s.93-9.78,1.33-13.66C58.51,279,59,274.21,59.39,274.22Z"></path></g><path d="M111.78,367.81a5.53,5.53,0,0,1-2.47.29,5.49,5.49,0,0,1-2.47-.29,5.58,5.58,0,0,1,2.47-.28A5.61,5.61,0,0,1,111.78,367.81Z" style="fill:#263238"></path><path d="M111.63,355.89a5,5,0,0,1-2.38-.23,5.33,5.33,0,0,1-2.27-.78,5.15,5.15,0,0,1,2.39.23A5.26,5.26,0,0,1,111.63,355.89Z" style="fill:#263238"></path><path d="M112.21,342.56a7.21,7.21,0,0,1-2.85.05,7.53,7.53,0,0,1-2.81-.51,7.32,7.32,0,0,1,2.85-.06A7.48,7.48,0,0,1,112.21,342.56Z" style="fill:#263238"></path><path d="M110.32,330.76c-.06.15-1.06-.16-2.22-.68s-2-1.06-2-1.21a5,5,0,0,1,2.22.69C109.5,330.08,110.39,330.62,110.32,330.76Z" style="fill:#263238"></path><path d="M111.49,320.74a5.13,5.13,0,0,1-2.33-1.41c-1.14-1-1.86-2-1.74-2.08s1,.7,2.11,1.65S111.57,320.6,111.49,320.74Z" style="fill:#263238"></path><path d="M115,313.33c-.14.07-.71-.81-1.27-2a5,5,0,0,1-.77-2.23c.14-.07.72.82,1.28,2A5.15,5.15,0,0,1,115,313.33Z" style="fill:#263238"></path><path d="M124.87,310.72c.12.11-.43,1-1.07,2s-1.17,1.94-1.31,1.88.15-1.07.82-2.17S124.75,310.62,124.87,310.72Z" style="fill:#263238"></path><path d="M129.5,323.79a5.38,5.38,0,0,1-2.65.64,5.19,5.19,0,0,1-2.72-.21,8.82,8.82,0,0,1,2.67-.35A8.66,8.66,0,0,1,129.5,323.79Z" style="fill:#263238"></path><path d="M129.36,333.23a13.29,13.29,0,0,1-4.81,2.6,13.29,13.29,0,0,1,4.81-2.6Z" style="fill:#263238"></path><path d="M129.63,348.67c-.07.14-1-.16-2.09-.68s-1.9-1.06-1.84-1.2,1,.16,2.09.68S129.7,348.53,129.63,348.67Z" style="fill:#263238"></path><path d="M128.77,357.19c.06.14-.69.64-1.7,1.12s-1.87.76-1.94.62.69-.65,1.7-1.13S128.7,357,128.77,357.19Z" style="fill:#263238"></path><path d="M126.47,375.2c-.12.11-.86-.52-1.66-1.4s-1.36-1.69-1.25-1.79.87.52,1.67,1.4S126.59,375.1,126.47,375.2Z" style="fill:#263238"></path><path d="M120.64,390.91a12.5,12.5,0,0,1-.79-2.81,12.63,12.63,0,0,1-.66-2.85,8.75,8.75,0,0,1,1.45,5.66Z" style="fill:#263238"></path><path d="M110.07,399.05a13.78,13.78,0,0,1,.4-5.52,13.32,13.32,0,0,1-.4,5.52Z" style="fill:#263238"></path><path d="M109.45,380.75a5.88,5.88,0,0,1-2.27-1.14c-1.16-.76-2-1.49-2-1.62a5.88,5.88,0,0,1,2.27,1.14C108.66,379.9,109.53,380.62,109.45,380.75Z" style="fill:#263238"></path><path d="M123,352.42c-.11.12-.87-.37-1.72-1.09s-1.44-1.4-1.34-1.52.87.37,1.71,1.09S123.06,352.3,123,352.42Z" style="fill:#263238"></path><path d="M115.44,333.12c.11.11-.59,1-1.56,1.93s-1.84,1.64-1.95,1.53.58-1,1.55-1.93S115.33,333,115.44,333.12Z" style="fill:#263238"></path><path d="M123.68,318c.07.14-.59.67-1.5,1.18s-1.69.83-1.77.69.59-.66,1.49-1.18S123.6,317.81,123.68,318Z" style="fill:#263238"></path><path d="M115.07,388.25c-.15.06-.58-.63-1-1.53s-.58-1.69-.44-1.76.58.63,1,1.53S115.21,388.18,115.07,388.25Z" style="fill:#263238"></path><path d="M80.55,286.08a8.27,8.27,0,0,1-3.07.13,8.33,8.33,0,0,1-3-.45,8.67,8.67,0,0,1,3.07-.12A8.73,8.73,0,0,1,80.55,286.08Z" style="fill:#263238"></path><path d="M79.58,268.47a7.81,7.81,0,0,1-2.84-.86,7.72,7.72,0,0,1-2.62-1.39,8.06,8.06,0,0,1,2.84.86A7.92,7.92,0,0,1,79.58,268.47Z" style="fill:#263238"></path><path d="M81.19,246.62a5.13,5.13,0,0,1-3.06-.82c-1.59-.83-2.52-2-2.4-2.07s1.17.78,2.66,1.57S81.22,246.46,81.19,246.62Z" style="fill:#263238"></path><path d="M85.23,236.42A8,8,0,0,1,83.57,234a7.77,7.77,0,0,1-1.16-2.73,15.49,15.49,0,0,1,2.82,5.19Z" style="fill:#263238"></path><path d="M99.15,233.43A8.57,8.57,0,0,1,97.4,236c-1.08,1.32-2.06,2.3-2.19,2.2A8.78,8.78,0,0,1,97,235.62C98.05,234.31,99,233.32,99.15,233.43Z" style="fill:#263238"></path><path d="M102.69,248.51c.09.13-.85,1-2.09,1.84a7,7,0,0,1-2.42,1.36c-.09-.13.84-1,2.09-1.83A7.19,7.19,0,0,1,102.69,248.51Z" style="fill:#263238"></path><path d="M104.32,269.43c0,.16-1,.57-2.34.92a5.66,5.66,0,0,1-2.48.37,5.85,5.85,0,0,1,2.34-.92A5.85,5.85,0,0,1,104.32,269.43Z" style="fill:#263238"></path><path d="M103.35,287.16a7.38,7.38,0,0,1-2.9.13,7.76,7.76,0,0,1-2.88-.43,7.56,7.56,0,0,1,2.91-.14A7.61,7.61,0,0,1,103.35,287.16Z" style="fill:#263238"></path><path d="M103.68,305.1a9.87,9.87,0,0,1-2.75,1.85,9.74,9.74,0,0,1-3,1.36,9.83,9.83,0,0,1,2.76-1.85A9.74,9.74,0,0,1,103.68,305.1Z" style="fill:#263238"></path><path d="M78.93,313.82a8.57,8.57,0,0,1-3.11-.37,8.62,8.62,0,0,1-3-.92,8.58,8.58,0,0,1,3.11.37A8.82,8.82,0,0,1,78.93,313.82Z" style="fill:#263238"></path><path d="M79.52,329.45a10,10,0,0,1-2.37,2.33,10.07,10.07,0,0,1-2.73,1.89,9.77,9.77,0,0,1,2.37-2.33A9.8,9.8,0,0,1,79.52,329.45Z" style="fill:#263238"></path><path d="M79.89,376.13a12.76,12.76,0,0,1-3.08-2.19,12.62,12.62,0,0,1-2.71-2.63,12.76,12.76,0,0,1,3.08,2.19A12.64,12.64,0,0,1,79.89,376.13Z" style="fill:#263238"></path><path d="M79.26,389.28c.1.12-.75,1-1.9,2a6.82,6.82,0,0,1-2.28,1.55c-.1-.12.75-1,1.91-2A6.73,6.73,0,0,1,79.26,389.28Z" style="fill:#263238"></path><path d="M102.36,360a9.25,9.25,0,0,1-2.4,2.15,9.2,9.2,0,0,1-2.75,1.69,9.41,9.41,0,0,1,2.41-2.15A9.22,9.22,0,0,1,102.36,360Z" style="fill:#263238"></path><path d="M102.71,337.55a5.27,5.27,0,0,1-2.64,1.76,5.35,5.35,0,0,1-3.14.49,27.63,27.63,0,0,1,2.93-1A30.29,30.29,0,0,1,102.71,337.55Z" style="fill:#263238"></path><path d="M103,321.15a6.31,6.31,0,0,1-2.51-.7c-1.33-.53-2.37-1.08-2.31-1.23a6.33,6.33,0,0,1,2.52.7C102.07,320.45,103.1,321,103,321.15Z" style="fill:#263238"></path><path d="M104.29,404.32a10.29,10.29,0,0,1-2.93,1.69,10.33,10.33,0,0,1-3.18,1.19,9.92,9.92,0,0,1,2.93-1.7A9.85,9.85,0,0,1,104.29,404.32Z" style="fill:#263238"></path><path d="M79.27,300.26a13.37,13.37,0,0,1-3.07-2.36,13.31,13.31,0,0,1-2.7-2.78,13.18,13.18,0,0,1,3.08,2.36A13.41,13.41,0,0,1,79.27,300.26Z" style="fill:#263238"></path><path d="M105,291.93a9.28,9.28,0,0,1-2.57,2,9.48,9.48,0,0,1-2.89,1.53,9.78,9.78,0,0,1,2.58-2A9.44,9.44,0,0,1,105,291.93Z" style="fill:#263238"></path><path d="M78.62,256.9a4.7,4.7,0,0,1-2.29,0c-1.24-.17-2.23-.44-2.21-.6a4.83,4.83,0,0,1,2.29,0A5,5,0,0,1,78.62,256.9Z" style="fill:#263238"></path><path d="M103,258.19c0,.15-.92.63-2.16,1.07a5.49,5.49,0,0,1-2.34.54c-.06-.15.91-.63,2.15-1.08A5.23,5.23,0,0,1,103,258.19Z" style="fill:#263238"></path><path d="M90.21,296.44A8.82,8.82,0,0,1,88.5,299c-1.07,1.33-2,2.32-2.16,2.23a8.82,8.82,0,0,1,1.71-2.59C89.12,297.34,90.08,296.34,90.21,296.44Z" style="fill:#263238"></path><path d="M90.18,279.72c-.08.12-1.13-.51-2-1.73a3.82,3.82,0,0,1-.92-2.45c.16-.05.6,1,1.39,2.13S90.29,279.59,90.18,279.72Z" style="fill:#263238"></path><path d="M89.86,255.94c.11.13-.79,1-1.65,2.21a18.39,18.39,0,0,1-1.56,2.29,4.54,4.54,0,0,1,1.09-2.62C88.66,256.52,89.78,255.82,89.86,255.94Z" style="fill:#263238"></path><path d="M87.93,320.52a5.49,5.49,0,0,1,.54-2.34c.44-1.25.92-2.21,1.07-2.16a5.23,5.23,0,0,1-.53,2.35C88.56,319.61,88.08,320.57,87.93,320.52Z" style="fill:#263238"></path><path d="M84.33,354.94a14.73,14.73,0,0,1-2-3.56,15.56,15.56,0,0,1-1.53-3.81,14.86,14.86,0,0,1,2,3.56A15.23,15.23,0,0,1,84.33,354.94Z" style="fill:#263238"></path><path d="M90.76,360.33a18.45,18.45,0,0,1-1.85,4.14,17.79,17.79,0,0,1-2.36,3.87,18.45,18.45,0,0,1,1.85-4.14A17.79,17.79,0,0,1,90.76,360.33Z" style="fill:#263238"></path><path d="M90.45,397a27.63,27.63,0,0,1-3.57-7,13.46,13.46,0,0,1,2,3.39A13.82,13.82,0,0,1,90.45,397Z" style="fill:#263238"></path><path d="M88.26,408.24a7.87,7.87,0,0,1-1.37,2.56A7.71,7.71,0,0,1,85,413.06a7.54,7.54,0,0,1,1.37-2.57C87.3,409.16,88.12,408.15,88.26,408.24Z" style="fill:#263238"></path><g style="opacity:0.30000000000000004"><path d="M93.37,238.07c.79,0,1.43,41.59,1.43,92.89s-.64,92.91-1.43,92.91S91.94,382.28,91.94,331,92.58,238.07,93.37,238.07Z"></path></g><g style="opacity:0.30000000000000004"><path d="M119.15,313.06c.39,0,.85,4.74,1.08,12.44s.19,18.28.4,30a72.25,72.25,0,0,1-1.44,16.73,33.49,33.49,0,0,1-2.42,7.06,51.38,51.38,0,0,1-3.11,5.62,13.51,13.51,0,0,1-3.8,4,12.6,12.6,0,0,1-3.75,1.65c-2.14.56-3.36.57-3.4.4s1.1-.59,3-1.44a14,14,0,0,0,3.19-1.9,12.75,12.75,0,0,0,3-3.74,60,60,0,0,0,2.67-5.53,34.85,34.85,0,0,0,2-6.63,80.56,80.56,0,0,0,1.15-16.15c-.21-11.73.16-22.37.43-30S118.75,313.07,119.15,313.06Z"></path></g><rect x="53.26" y="420.66" width="76.34" height="13.53" style="fill:#6F35A5"></rect><polygon points="58.97 431.51 68.25 471.95 113.75 471.95 123.91 431.51 58.97 431.51" style="fill:#6F35A5"></polygon><path d="M129.57,434.21c0,.15-17.23.27-38.46.27s-38.46-.12-38.46-.27,17.21-.27,38.46-.27S129.57,434.06,129.57,434.21Z" style="fill:#263238"></path></g><g id="freepik--Character--inject-59"><path d="M400.35,143.29c.06-5.36.91-10.7.7-16.06s-1.61-10.93-5.35-14.78-10.22-5.3-14.6-2.2l-.89,4.56,5.16,62c.23,2.71.47,5.5,1.71,7.93s3.71,4.43,6.43,4.27c3.56-.22,5.89-3.83,7-7.22C404.52,169.51,400.2,156.21,400.35,143.29Z" style="fill:#263238"></path><path d="M387.46,115.5a14.88,14.88,0,0,0-2.72-3.69,5.09,5.09,0,0,0-4.22-1.41,2.1,2.1,0,0,0-1.67,1.22c-.24.68.27,1.59,1,1.53l.15.13q2.42,2.13,4.9,4.17a4.22,4.22,0,0,0,1.37.84,1.42,1.42,0,0,0,1.49-.32C388.35,117.31,387.91,116.27,387.46,115.5Z" style="fill:#6F35A5"></path><path d="M390.49,120.76a27,27,0,0,0-20.95-10.43c-4.76-.07-6.73.91-10.15,1.84a15,15,0,0,0-8.57,5.66c-2.42,3.45-4.46,7.31-4.92,11.5a70.22,70.22,0,0,0-.62,12.95,23.68,23.68,0,0,0,4,12.18l11,1.91c6.06.2,12.22.4,18.13-1s11.65-4.57,14.82-9.75C397.66,138.44,395.83,127.29,390.49,120.76Z" style="fill:#263238"></path><path d="M360.3,174.19c.08-3.85.17-7,.17-7s-9-1-11.44-12.47c-1.23-5.71-1.46-15.17-1.39-22.92.05-7,6-16.47,14.6-16.5l3.83-.44,14.64,5.82a4.07,4.07,0,0,1,3.87,3.93l.44,49L370.87,208l-10.16-13.77Z" style="fill:#a26760"></path><path d="M366.26,152a2.47,2.47,0,0,0-.85-1.51,2.51,2.51,0,0,0-3-.17,3.34,3.34,0,0,0-1.27,3.14h0a3,3,0,0,0,2.18,1.26,2.68,2.68,0,0,0,.4,0,2.75,2.75,0,0,0,1.85-.73A2.48,2.48,0,0,0,366.26,152Z" style="fill:#7b4b45"></path><path d="M350.46,140.19a1.48,1.48,0,0,0,1.51,1.42,1.42,1.42,0,0,0,1.46-1.42,1.48,1.48,0,0,0-1.51-1.42A1.42,1.42,0,0,0,350.46,140.19Z" style="fill:#263238"></path><path d="M350.49,136.11c.19.18,1.27-.71,2.87-.79s2.81.65,3,.44-.13-.43-.66-.77a4,4,0,0,0-2.4-.6,3.93,3.93,0,0,0-2.27.87C350.54,135.67,350.39,136,350.49,136.11Z" style="fill:#263238"></path><path d="M360.53,148.22a10.58,10.58,0,0,0-2.62-.33c-.41,0-.8-.08-.88-.35a2,2,0,0,1,.2-1.22l1-3.18c1.43-4.52,2.45-8.22,2.26-8.28s-1.49,3.56-2.92,8.08c-.35,1.11-.68,2.17-1,3.19a2.36,2.36,0,0,0-.12,1.61,1,1,0,0,0,.7.56,2.58,2.58,0,0,0,.7.06A10.35,10.35,0,0,0,360.53,148.22Z" style="fill:#263238"></path><path d="M360.47,167.2a29.54,29.54,0,0,0,15.28-5s-3.69,8.25-15.34,7.81Z" style="fill:#7b4b45"></path><path d="M365.3,149.07c-.26,0-.17,1.73-1.59,3.05s-3.27,1.22-3.27,1.46.43.32,1.21.29a4.3,4.3,0,0,0,2.74-1.12,3.81,3.81,0,0,0,1.22-2.55C365.63,149.47,365.42,149.05,365.3,149.07Z" style="fill:#263238"></path><path d="M350.8,130.08c.29.38,1.5,0,2.94.09s2.64.35,2.94,0c.13-.18-.05-.56-.57-.92a4.57,4.57,0,0,0-4.73-.06C350.86,129.53,350.68,129.9,350.8,130.08Z" style="fill:#263238"></path><path d="M369,140.08a1.49,1.49,0,0,1-1.41,1.53,1.42,1.42,0,0,1-1.55-1.32,1.49,1.49,0,0,1,1.4-1.52A1.42,1.42,0,0,1,369,140.08Z" style="fill:#263238"></path><path d="M372.39,135.54c-.18.19-1.32-.62-2.92-.59s-2.76.86-2.94.66.1-.44.6-.82a4.14,4.14,0,0,1,2.35-.77,3.91,3.91,0,0,1,2.33.71C372.31,135.1,372.48,135.45,372.39,135.54Z" style="fill:#263238"></path><path d="M371.8,129.94c-.31.37-1.55,0-3,0s-2.74.3-3-.08c-.13-.18.07-.55.61-.9a4.83,4.83,0,0,1,4.89.05C371.76,129.39,371.94,129.76,371.8,129.94Z" style="fill:#263238"></path><path d="M382.6,144.09c-.05-.87.84-3,1.68-3.14,2.26-.47,6.37-.52,6.72,5.26.49,7.89-7.54,6.75-7.57,6.53S382.75,147.06,382.6,144.09Z" style="fill:#a26760"></path><path d="M385.43,149.72s.15.09.39.18a1.37,1.37,0,0,0,1,0c.81-.36,1.43-1.73,1.38-3.15a4.5,4.5,0,0,0-.5-2,1.61,1.61,0,0,0-1.1-1,.7.7,0,0,0-.79.43c-.09.22,0,.38-.08.39s-.17-.12-.13-.45a.82.82,0,0,1,.28-.51,1,1,0,0,1,.75-.25,1.94,1.94,0,0,1,1.51,1.14,4.59,4.59,0,0,1,.61,2.17c.05,1.59-.67,3.13-1.79,3.53a1.47,1.47,0,0,1-1.27-.13C385.46,149.91,385.41,149.73,385.43,149.72Z" style="fill:#7b4b45"></path><path d="M384.6,141l-2,2.08c-8.67-8.29-25.59-29-24.65-27.82a25.23,25.23,0,0,1,12.38-1.34c6.44,1.1,18.65,4.32,18.47,11.92S384.6,141,384.6,141Z" style="fill:#263238"></path><path d="M396.07,139.23a1.33,1.33,0,0,0-.12-.45,7.26,7.26,0,0,0-.54-1.25,11.37,11.37,0,0,0-3.29-3.71,21.56,21.56,0,0,0-6.65-3.19c-2.64-.87-5.62-1.53-8.54-2.79a38.64,38.64,0,0,1-7.8-4.37,40,40,0,0,1-5.5-4.81,42.09,42.09,0,0,1-3.19-3.78l-.79-1.09a2.23,2.23,0,0,0-.29-.36s.06.15.22.41.4.65.74,1.13a34.77,34.77,0,0,0,3.1,3.89,39.45,39.45,0,0,0,5.49,4.92,38.57,38.57,0,0,0,7.87,4.44,86,86,0,0,0,8.58,2.76,21.77,21.77,0,0,1,6.58,3.07,12,12,0,0,1,3.34,3.56C395.86,138.62,396,139.25,396.07,139.23Z" style="fill:#455a64"></path><path d="M393.78,140.48a4.14,4.14,0,0,0-.31-1.73,8.1,8.1,0,0,0-3-3.72,17.88,17.88,0,0,0-6.59-2.58,38.38,38.38,0,0,1-8.18-2.6,34.62,34.62,0,0,1-7.3-4.5,35.46,35.46,0,0,1-5-4.92,37.41,37.41,0,0,1-2.79-3.83l-.67-1.11a1.93,1.93,0,0,0-.26-.37,1.92,1.92,0,0,0,.19.41c.16.3.36.68.6,1.15a32.8,32.8,0,0,0,2.71,3.93,33.92,33.92,0,0,0,12.35,9.61,37.91,37.91,0,0,0,8.27,2.6,17.82,17.82,0,0,1,6.51,2.45,8.08,8.08,0,0,1,3,3.54A10.94,10.94,0,0,1,393.78,140.48Z" style="fill:#455a64"></path><path d="M384.34,154.34c0-.05.67-.14,1.84-.44a11.46,11.46,0,0,0,4.42-2.47,15.92,15.92,0,0,0,4.1-6.28,27.69,27.69,0,0,0,1.71-9.11,22.8,22.8,0,0,0-.38-4.79,23.23,23.23,0,0,0-1.31-4.28,22.74,22.74,0,0,0-4.09-6.36,36.16,36.16,0,0,0-5.3-4.62s.16.06.44.22.7.4,1.19.76a23.92,23.92,0,0,1,3.94,3.39,22.25,22.25,0,0,1,4.26,6.43,22.91,22.91,0,0,1,1.37,4.36,23.22,23.22,0,0,1,.4,4.9,27.35,27.35,0,0,1-1.78,9.27,15.87,15.87,0,0,1-4.31,6.38,10.88,10.88,0,0,1-4.61,2.39,10.14,10.14,0,0,1-1.4.23A1.66,1.66,0,0,1,384.34,154.34Z" style="fill:#455a64"></path><polygon points="395.09 435.31 391.08 468.26 375.9 466.06 374.88 433.59 395.09 435.31" style="fill:#a26760"></polygon><path d="M375.85,459.53s10.19,8.22,15.86,2.18l1.13,3.21,4.46,22.64a3,3,0,0,1-2,3.43,3,3,0,0,1-3.09-.81c-4.11-4.42-19.15-20.75-18.84-22.79l.46-5.45a2.79,2.79,0,0,1,2-2.41Z" style="fill:#6F35A5"></path><g style="opacity:0.6000000000000001"><path d="M394.78,491.1l-21.26-25.61-.08,1.19c-.22,1.28.32,1.83.89,2.71,1.68,2.58,6.44,8.44,17.82,20.78a3,3,0,0,0,2.63.93Z" style="fill:#fff"></path></g><g style="opacity:0.6000000000000001"><path d="M377.16,462.2a1.73,1.73,0,0,1,.33,2.31,1.76,1.76,0,0,1-2.35.33,1.67,1.67,0,1,1,2.14-2.53" style="fill:#fff"></path></g><path d="M389.05,478.37a8.79,8.79,0,0,1,2.68-2,9.19,9.19,0,0,1,3.36-.38c0-.07-.32-.32-1-.46a4.68,4.68,0,0,0-2.61.27,4.54,4.54,0,0,0-2.06,1.58C389.05,477.93,389,478.34,389.05,478.37Z" style="fill:#263238"></path><path d="M390.84,482.27a25.75,25.75,0,0,1,2.63-1,24.87,24.87,0,0,1,2.85-.15c.09-.14-1.26-.83-3-.45S390.69,482.19,390.84,482.27Z" style="fill:#263238"></path><path d="M385.56,473.28c.13.14,1.64-1.17,4-1.86s4.33-.48,4.35-.67a6.84,6.84,0,0,0-4.54.08C386.84,471.58,385.43,473.19,385.56,473.28Z" style="fill:#263238"></path><path d="M385.55,466.49c.07.17,1.7-.36,3.78-.29s3.69.67,3.76.5-1.51-1.07-3.74-1.12S385.47,466.35,385.55,466.49Z" style="fill:#263238"></path><path d="M390.52,466.23a2.66,2.66,0,0,0-.09-1.07,7.4,7.4,0,0,0-1.18-2.68,3.4,3.4,0,0,0-1.62-1.4,1.18,1.18,0,0,0-1.3.4,1.82,1.82,0,0,0-.31,1.31,4.18,4.18,0,0,0,4.08,3.36,4.81,4.81,0,0,0,4.45-3,1.61,1.61,0,0,0-.07-1.37,1.21,1.21,0,0,0-1.29-.47,4.15,4.15,0,0,0-1.78,1.16,8.11,8.11,0,0,0-1.71,2.39,2.24,2.24,0,0,0-.32,1,12.93,12.93,0,0,1,2.34-3.08,3.83,3.83,0,0,1,1.58-1,.63.63,0,0,1,.7.25,1.1,1.1,0,0,1,0,.91,4.32,4.32,0,0,1-3.89,2.52,3.64,3.64,0,0,1-3.51-2.8,1.34,1.34,0,0,1,.18-.93.65.65,0,0,1,.71-.23,3,3,0,0,1,1.39,1.17A11,11,0,0,1,390.52,466.23Z" style="fill:#263238"></path><path d="M328.47,461.27c.35-.51,3.53-11.53,3.53-11.53l-19.64-5.09-2.79,15.89Z" style="fill:#a26760"></path><path d="M309.74,457.41l0,1.27s-21.62,8.39-21.89,12.47l42.72.29-.48-14.22C323.7,460.12,317.05,460.4,309.74,457.41Z" style="fill:#6F35A5"></path><g style="opacity:0.6000000000000001"><path d="M325.71,461.74a1.73,1.73,0,0,1,1.19,2,1.66,1.66,0,0,1-2,1.2,1.83,1.83,0,0,1-1.25-2.12,1.74,1.74,0,0,1,2.19-1" style="fill:#fff"></path></g><g style="opacity:0.6000000000000001"><path d="M330.55,471.44l-.11-3.42-40.91,1s-1.91.81-1.7,2.16Z" style="fill:#fff"></path></g><path d="M309.57,458.8c0,.21,1.05.31,2.07,1s1.57,1.56,1.76,1.48-.11-1.29-1.36-2.09S309.53,458.61,309.57,458.8Z" style="fill:#263238"></path><path d="M305.08,460.62c-.05.21.85.57,1.55,1.45s.9,1.83,1.11,1.82.35-1.19-.54-2.27S305.08,460.43,305.08,460.62Z" style="fill:#263238"></path><path d="M302.5,466c.19,0,.48-1,0-2.14s-1.5-1.61-1.59-1.44.51.79.92,1.74S302.29,466,302.5,466Z" style="fill:#263238"></path><path d="M342.79,264c-.93.58-12.21,45.5-18.8,97.66-5.57,44.12-14.15,88.19-14.15,88.19L331,453.81s18.82-54.63,30.43-93.49c9.88-33,16.67-55.57,16.67-55.57V264Z" style="fill:#263238"></path><path d="M399.57,252.8s20,20.06,18.4,46.2c-1,15.64-23.3,152.86-23.3,152.86l-21.28-.57.74-186Z" style="fill:#263238"></path><path d="M373.41,301.88c.15,0,.31,21.26.36,47.47s0,47.47-.16,47.47-.31-21.25-.36-47.47S373.27,301.88,373.41,301.88Z" style="fill:#455a64"></path><path d="M414.7,276.67a2.49,2.49,0,0,1-.73.28,13.8,13.8,0,0,1-2.06.44,18.75,18.75,0,0,1-7-.36,20.54,20.54,0,0,1-6.38-2.79,16.57,16.57,0,0,1-1.68-1.27c-.38-.33-.57-.53-.55-.56s.92.62,2.43,1.52a23.59,23.59,0,0,0,6.31,2.59,20.9,20.9,0,0,0,6.78.5C413.61,276.86,414.67,276.58,414.7,276.67Z" style="fill:#455a64"></path><path d="M306.18,190.57s2.12,45.57,11.09,50.52c4.53,2.49,8.48,1.07,11.5-3.44s12.79-38.17,12.79-38.17l-14.15-3.78-5.32,8.42-5.8-13.71Z" style="fill:#a26760"></path><path d="M330.12,222.51a1.77,1.77,0,0,0-.13-.35l-.41-1c-.39-.88-.91-2.08-1.55-3.54-1.3-3-3.09-7.11-5-11.68l-4.93-11.73-1.48-3.56-.42-1a1.45,1.45,0,0,0-.16-.33,1.3,1.3,0,0,0,.1.35c.09.27.21.59.35,1,.31.86.78,2.09,1.38,3.6,1.19,3,2.89,7.2,4.84,11.78s3.76,8.69,5.13,11.64c.68,1.49,1.24,2.68,1.64,3.49.2.38.35.69.48.94A1.23,1.23,0,0,0,330.12,222.51Z" style="fill:#7b4b45"></path><path d="M297.43,178a2.13,2.13,0,0,1,1.61-.7s-.6-1.35.1-2.1a1.9,1.9,0,0,1,1.62-.57s-.78-1.92.21-3.08a3,3,0,0,1,3.06-.88s-3.21-8.46-3.42-8.89c-.74-1.62-.5-3.28,1.29-3.3.65,0,1.17.56,2.62,3.2s3.88,7.18,3.88,7.18.88.9,1.9,2l0,0s1,1.11,2.3,2.54h0a54.67,54.67,0,0,1,4.32,5.32,5,5,0,0,1,.42,1,.08.08,0,0,0,0,0,10.76,10.76,0,0,1,.64,3.66,9.42,9.42,0,0,1-.61,3,16.49,16.49,0,0,1-1.27,3.3l1.42,4.21s-4.37,8.11-10.85,5l-1.23-8.51s-1.51-1.93-3.29-4l-1.87-2a24.58,24.58,0,0,1-1.81-2.17C297.4,180.78,296.1,179.36,297.43,178Z" style="fill:#a26760"></path><path d="M299.38,177.63a13.25,13.25,0,0,1,1.24,1l1.31,1.19a5.84,5.84,0,0,1,.74.75,1.93,1.93,0,0,1,.44,1.1,1.17,1.17,0,0,1-.53,1.07,1.57,1.57,0,0,1-1.09.15,5.24,5.24,0,0,1-.92-.29l-.76-.31c-.46-.2-.83-.38-1.08-.51s-.38-.22-.37-.24.58.22,1.52.58a10,10,0,0,0,1.65.53,1.33,1.33,0,0,0,.92-.12,1,1,0,0,0,.4-.85,1.63,1.63,0,0,0-.38-.95,6.17,6.17,0,0,0-.7-.74l-1.27-1.22A9.13,9.13,0,0,1,299.38,177.63Z" style="fill:#7b4b45"></path><path d="M309.36,176.14a4.22,4.22,0,0,1-.36-1.89,4,4,0,0,1,.3-1.91c.07,0-.06.86,0,1.9S309.44,176.12,309.36,176.14Z" style="fill:#7b4b45"></path><path d="M314.72,177.47a8,8,0,0,0-4.5-1,15.58,15.58,0,0,0-4.56,1c-1.18.43-2.47,1.1-2.74,2.32a2.66,2.66,0,0,0,2,2.87,6.22,6.22,0,0,0,3.77-.39,15.7,15.7,0,0,1,3.69-1.12" style="fill:#a26760"></path><path d="M312.39,181.1s-.35.05-.95.22a24.11,24.11,0,0,0-2.47.9,11.08,11.08,0,0,1-1.76.53,4.92,4.92,0,0,1-2.13,0,3.16,3.16,0,0,1-1.93-1.34,2.42,2.42,0,0,1-.4-1.21,2.16,2.16,0,0,1,.37-1.27,4.38,4.38,0,0,1,2-1.47,19.68,19.68,0,0,1,2.22-.72,11.93,11.93,0,0,1,3.92-.41,8,8,0,0,1,2.57.63,4.88,4.88,0,0,1,.64.34l.21.15s-.31-.17-.88-.39a8.42,8.42,0,0,0-2.56-.55,11.93,11.93,0,0,0-3.84.46,21.32,21.32,0,0,0-2.18.72,4.2,4.2,0,0,0-1.93,1.39,2,2,0,0,0-.33,1.11,2.14,2.14,0,0,0,.36,1.08,2.94,2.94,0,0,0,1.78,1.25,5,5,0,0,0,2,0,12.26,12.26,0,0,0,1.73-.5,20.49,20.49,0,0,1,2.52-.83,6.93,6.93,0,0,1,.71-.12Z" style="fill:#7b4b45"></path><path d="M299.5,177.74c1.73,1.57,3.38,3.37,4.95,5.11a3.84,3.84,0,0,0,1.59,1.24c.52.16,1.51-.64,2-.94l-5.44-6.9" style="fill:#a26760"></path><path d="M302.56,176.25a4.33,4.33,0,0,1,.45.5l1.18,1.44c1,1.22,2.37,2.94,3.91,4.88l.09.11-.12.08A12.12,12.12,0,0,1,307,184a2.78,2.78,0,0,1-.5.21.92.92,0,0,1-.29,0,.68.68,0,0,1-.29-.06,2.6,2.6,0,0,1-.88-.56c-.5-.46-.89-1-1.3-1.39-.81-.9-1.54-1.7-2.17-2.36s-1.15-1.18-1.51-1.54a3.48,3.48,0,0,1-.54-.58,5.21,5.21,0,0,1,.61.51c.39.33.93.84,1.57,1.49s1.4,1.43,2.21,2.32c.42.44.83.93,1.3,1.37a2.46,2.46,0,0,0,.8.5c.26.12.57,0,.87-.18s.72-.47,1.07-.7l0,.18c-1.53-1.95-2.88-3.68-3.84-4.94l-1.12-1.48A2.87,2.87,0,0,1,302.56,176.25Z" style="fill:#7b4b45"></path><path d="M301,174.18q2.73,3.7,5.45,7.42A6,6,0,0,0,307.8,183a2,2,0,0,0,1.85.29,2,2,0,0,0,1-2.29,6.34,6.34,0,0,0-1.27-2.35,55.4,55.4,0,0,1-4.38-7.13" style="fill:#a26760"></path><path d="M305,171.55s.06.07.15.23l.39.68c.33.59.82,1.44,1.46,2.47s1.43,2.24,2.38,3.54a8.41,8.41,0,0,1,1.3,2.19,2.58,2.58,0,0,1,.09,1.38,2,2,0,0,1-.74,1.23,1.73,1.73,0,0,1-1.41.25,2.67,2.67,0,0,1-1.21-.67,14.14,14.14,0,0,1-1.59-2l-2.5-3.46-1.67-2.34-.45-.65a2.44,2.44,0,0,1-.14-.23s.07.06.18.2l.49.62,1.73,2.29,2.55,3.43a16.77,16.77,0,0,0,1.56,1.94,2.53,2.53,0,0,0,1.11.61,1.49,1.49,0,0,0,1.2-.21,1.71,1.71,0,0,0,.64-1.07,2.31,2.31,0,0,0-.08-1.25,7.83,7.83,0,0,0-1.26-2.13c-.93-1.31-1.71-2.54-2.33-3.58s-1.09-1.92-1.4-2.53c-.15-.3-.27-.54-.34-.7A2.15,2.15,0,0,1,305,171.55Z" style="fill:#7b4b45"></path><path d="M312.8,188.14a1.49,1.49,0,0,1-.74.1,4.25,4.25,0,0,1-1.73-.48A4.14,4.14,0,0,1,309,186.6c-.27-.38-.36-.65-.33-.67a6.29,6.29,0,0,0,1.82,1.6A6.57,6.57,0,0,0,312.8,188.14Z" style="fill:#7b4b45"></path><path d="M337.85,211.87c0-8.94,4.08-21.72,4.08-21.72l8.3-17.13,35.1-.39,9.29,3.44,9.37,4.47-4.85,60.32L406,260.73c-20.88,34.12-59.06,21.46-65.35,10.6l4.94-26A20,20,0,0,0,344.23,232C341.46,226.14,337.85,217.4,337.85,211.87Z" style="fill:#6F35A5"></path><path d="M353.74,173l31.54-1.17,9.34,4.26c.19.08-3.59,23.6-12,26.77-8.64,3.27-33.51,2.9-34.34-6.41C347.64,189.12,353.74,173,353.74,173Z" style="fill:#a26760"></path><path d="M358.78,237.2a15.24,15.24,0,0,0,2.79.68c1.75.33,4.17.71,6.87,1s5.14.39,6.92.41a13.77,13.77,0,0,0,2.87-.11,20,20,0,0,0-2.86-.24c-1.77-.1-4.2-.27-6.89-.54s-5.1-.6-6.85-.84A19.4,19.4,0,0,0,358.78,237.2Z" style="fill:#263238"></path><path d="M362.09,242.21a27.29,27.29,0,0,0,3,.47,71.3,71.3,0,0,1,7.21,1.46,67.22,67.22,0,0,1,7,2.26,26.87,26.87,0,0,0,2.87,1.06s-.24-.18-.71-.43-1.16-.57-2-.95a49.28,49.28,0,0,0-14.29-3.74c-1-.09-1.71-.15-2.24-.16A3,3,0,0,0,362.09,242.21Z" style="fill:#263238"></path><g style="opacity:0.30000000000000004"><path d="M378.56,239.07c.17-9.7,2.22-19.85,8.55-27.2a25.66,25.66,0,0,0,12.49,27.41l0,2.61a15.25,15.25,0,0,1-6.8,7c-3,1.37-6.94,1.11-9.29-1.23-1.26-1.26-2-3-3.17-4.29-2-2.21-5-3.11-7.83-3.92Z"></path></g><path d="M351.17,173.12s-12-1-17.19,5.95a91.51,91.51,0,0,0-9.13,16.48l15.47,8.14Z" style="fill:#6F35A5"></path><path d="M402.6,180.26s8.07.51,10.87,14.18-6.22,39.19-10.61,43.57c0,0-6.43,10.38-16.24,7.54s-4.9-20.65-4.9-20.65L400,186Z" style="fill:#a26760"></path><path d="M376.27,162.26l-.6,33.43a2,2,0,0,1-1.91,2.1l-16.2-.39a2.09,2.09,0,0,1-1.88-2.28l.95-33.42a2,2,0,0,1,1.91-2.07l15.85.38A2.09,2.09,0,0,1,376.27,162.26Z" style="fill:#455a64"></path><path d="M395.3,213.15s8.3,15,8.12,19.12-4.88,13.37-11.2,14.28-12.29-4.88-12.47-12.47-1.12-31.59-1.12-31.59l6.55-9.49Z" style="fill:#a26760"></path><path d="M373,171.63s4.74,2.91,6.14,3.67,1.22,6.41,1.22,6.41l8,18.54-9.61,3.44s-3.42-6.48-4.41-7.3a6.55,6.55,0,0,0-2.29-1.15s-.49,1.8-2,1a14.34,14.34,0,0,1-3.12-2.78s-1.31.82-1.8-.17-1.31-3.11-1.31-3.11,2.79-3.61,3.93-3.61,7.06.33,7.06.33-.33-.5-2-1.15-11.41-3.53-11.87-3.71c-.68-.26-1.46-2.06.67-2.22s14.15,2,14.15,2,.66-3.1.16-3.76S371.16,174.58,373,171.63Z" style="fill:#a26760"></path><path d="M366.88,193.29a3.1,3.1,0,0,1,0-1.35,2.42,2.42,0,0,1,.72-1.33,2.79,2.79,0,0,1,1.77-.53,16,16,0,0,1,3.23.12,3.68,3.68,0,0,1,1.3.3c0,.11-2-.23-4.51-.07a2.68,2.68,0,0,0-1.57.43,2.27,2.27,0,0,0-.69,1.14C367,192.77,367,193.3,366.88,193.29Z" style="fill:#7b4b45"></path><path d="M368.78,193.88a18.89,18.89,0,0,1,1.85.87c1,.45,1.9.66,1.89.76a5.15,5.15,0,0,1-3.74-1.63Z" style="fill:#7b4b45"></path><path d="M375.2,181.71a3.12,3.12,0,0,1,2.59,2.51c-.1,0-.43-.73-1.14-1.41S375.16,181.81,375.2,181.71Z" style="fill:#7b4b45"></path><path d="M375.75,181.78a.67.67,0,0,1,0-.25c0-.19,0-.43,0-.72,0-.68,0-1.61.07-2.79l0,.08c-.68-.68-1.47-1.5-2.31-2.52a8.34,8.34,0,0,1-1.16-1.77,2,2,0,0,1,.48-2.32l.09-.08.11.07c1.65,1,3.47,2.07,5.4,3.35.24.17.49.33.73.51a3,3,0,0,1,.71.65,6.14,6.14,0,0,1,.42,1.87c.14,1.24.21,2.52.24,3.85v-.09c2.28,5.2,4.94,11.08,7.86,17.22,2.62,5.52,5.22,10.73,7.68,15.42s5,8.75,6.28,12.61,1.36,7.24.66,9.41a7.68,7.68,0,0,1-1.15,2.33,5.33,5.33,0,0,1-.42.52c-.11.12-.16.17-.17.16s.18-.25.5-.74a8,8,0,0,0,1-2.32c.63-2.13.45-5.48-.8-9.24s-3.92-7.8-6.37-12.51-5.1-9.89-7.72-15.42c-2.93-6.15-5.57-12-7.83-17.25v-.09c0-1.31-.08-2.59-.21-3.81a6.23,6.23,0,0,0-.35-1.69,7,7,0,0,0-1.3-1c-1.91-1.29-3.72-2.41-5.35-3.4l.2,0a1.73,1.73,0,0,0-.4,1.93,7.67,7.67,0,0,0,1.09,1.71c.8,1,1.57,1.86,2.23,2.55l0,0V178c-.08,1.18-.13,2.11-.18,2.79,0,.29,0,.52,0,.72A.92.92,0,0,1,375.75,181.78Z" style="fill:#7b4b45"></path><path d="M379.4,223.1a9,9,0,0,1-.14-1.45c-.05-1-.13-2.36-.22-4-.15-3.52-.36-8.35-.61-13.93l0,.12c-1.28-2.16-2.67-4.52-4.22-6.86a2.06,2.06,0,0,0-1-1,3.36,3.36,0,0,0-1.37-.2l.19-.11a2.77,2.77,0,0,1-1.59.92,1.39,1.39,0,0,1-1-.26,6.14,6.14,0,0,1-.68-.53,18.35,18.35,0,0,1-2.15-2.39l.33.05a2.91,2.91,0,0,1-1.5.44c-.46-.08-.56-.36-.72-.55a4.86,4.86,0,0,1-.34-.63,17.13,17.13,0,0,1-.89-2.54l0-.11.09-.09c.64-.69,1.27-1.33,1.87-1.94l.9-.88.45-.4a1.35,1.35,0,0,1,.56-.35,12.43,12.43,0,0,1,2.17-.06c.66,0,1.26.07,1.8.11,1.09.08,1.94.17,2.51.24a3.68,3.68,0,0,1,.89.15,5.61,5.61,0,0,1-.9,0l-2.51-.12a23.23,23.23,0,0,0-3.88,0c-.24.06-.55.42-.83.67l-.87.89-1.84,2,.05-.2a16.48,16.48,0,0,0,.89,2.45,3.46,3.46,0,0,0,.31.57c.11.17.3.34.33.33a2.38,2.38,0,0,0,1.22-.36l.2-.12.14.17a18.12,18.12,0,0,0,2.1,2.31c.37.33.87.72,1.2.67a2.33,2.33,0,0,0,1.27-.73l.09-.1h.1a3.88,3.88,0,0,1,1.61.24,2,2,0,0,1,.72.48,6.68,6.68,0,0,1,.5.65c1.58,2.38,2.94,4.74,4.22,6.91l0,.05v.06c.17,5.59.32,10.42.42,13.93,0,1.67.06,3,.08,4A9,9,0,0,1,379.4,223.1Z" style="fill:#7b4b45"></path><path d="M401.36,179.59s8.72,2.1,11.25,9.75c3,9.14,1.38,27.4,1.38,27.4s-22.7-12.53-22.78-13.05S401.36,179.59,401.36,179.59Z" style="fill:#6F35A5"></path></g></svg>